<svg width="434" height="194" viewBox="0 0 434 194" fill="none" xmlns="http://www.w3.org/2000/svg">
<path d="M402.182 122.695V115.589H412.385V112.608H402.182V106.196H413.021V103.186H398.636V125.706H413.287V122.695H402.182ZM389.221 103.186V120.766L378.516 103.186H374.269V125.706H377.715V108.092L388.42 125.706H392.668V103.186H389.221ZM359.128 125.916C365.216 125.916 368.46 122.725 368.46 116.792V103.185H364.914V116.792C364.914 120.738 362.907 122.844 359.128 122.844C355.347 122.844 353.34 120.738 353.34 116.792V103.185H349.794V116.792C349.794 122.725 353.041 125.916 359.128 125.916ZM338.6 103.186L331.309 122.122L323.848 103.186H318.63V125.706H322.074V107.611L329.269 125.706H333.316L340.407 107.611V125.706H343.988V103.186H338.6ZM307.273 103.186L299.98 122.122L292.518 103.186H287.3V125.706H290.747V107.611L297.939 125.706H301.986L309.078 107.611V125.706H312.656V103.186H307.273H307.273ZM271.081 122.784C266.362 122.784 263.321 119.504 263.321 114.446C263.321 109.357 266.362 106.105 271.081 106.105C275.797 106.105 278.841 109.357 278.841 114.446C278.841 119.504 275.797 122.784 271.081 122.784ZM271.081 125.916C277.87 125.916 282.554 121.22 282.554 114.446C282.554 107.671 277.87 102.975 271.081 102.975C264.324 102.975 259.641 107.671 259.641 114.446C259.641 121.22 264.324 125.916 271.081 125.916ZM254.24 125.706H258.589L248.32 112.879L258.354 103.186H254.004L243.135 113.693V103.186H239.589V125.706H243.135V117.847L245.844 115.229L254.24 125.706ZM227.148 125.916C231.864 125.916 235.177 123.387 235.177 119.352C235.177 111.974 223.501 113.541 223.501 108.906C223.501 107.068 225.275 106.014 227.447 106.014C229.388 106.014 230.861 106.678 232.232 107.76L234.407 105.474C232.666 103.966 230.258 102.975 227.282 102.975C223.032 102.975 219.989 105.413 219.989 109.146C219.989 116.341 231.662 114.717 231.662 119.562C231.662 121.43 229.958 122.844 227.148 122.844C224.672 122.844 222.966 122.03 221.225 120.647L219.185 123.085C221.225 124.861 223.736 125.916 227.148 125.916M204.4 122.694V115.588H214.603V112.608H204.4V106.196H215.239V103.185H200.854V125.705H215.505V122.694H204.4ZM192.658 125.705H197.005L186.738 112.879L196.771 103.185H192.422L181.55 113.693V103.185H178.005V125.705H181.55V117.846L184.262 115.228L192.658 125.705H192.658ZM162.733 122.694V103.185H159.187V125.705H174.076V122.694H162.733ZM151.543 103.185L145.59 113.693L139.736 103.185H135.755L143.816 117.094V125.705H147.364V117.094L155.423 103.185H151.543ZM132.574 106.196V103.185H118.189V125.705H121.767V116.703H131.672V113.693H121.767V106.196H132.574Z" fill="white"/>
<path d="M131.053 75.5717L136.806 58.5411L142.534 75.5717H131.053ZM141.52 51.3181L141.495 51.2168H132.093L117.9 90.9042L117.824 91.107H125.858L128.899 82.0087H144.739L147.755 91.0054L147.805 91.1067H155.814L141.52 51.3177V51.3181Z" fill="white"/>
<path d="M177.862 68.3236L195.78 91.107H186.53L172.667 73.3414L168.46 77.4216V91.107H160.882V51.2168H168.46V68.4755L186.251 51.2168H195.501L195.247 51.4703L177.862 68.3236Z" fill="white"/>
<path d="M208.477 84.67H227.408V91.107H200.899V51.2168H227.003V57.6538H208.477V67.3097H225.888V73.7468H208.477V84.67Z" fill="white"/>
<path d="M248.113 69.6922H242.31V57.6542H248.113C252.447 57.6542 254.855 59.7575 254.855 63.5339C254.855 67.5129 252.447 69.6922 248.113 69.6922ZM254.804 74.8875C260.151 73.1389 263.066 69.1093 263.066 63.5336C263.066 55.8292 257.49 51.2168 248.113 51.2168H234.732V91.107H242.309V75.8505H246.846L256.502 91.0311L256.552 91.107H265.194L254.804 74.8875Z" fill="white"/>
<path d="M372.143 51.2168H379.721V75.1407C379.721 85.6582 373.74 91.4617 362.868 91.4617C352.021 91.4617 346.04 85.6582 346.04 75.1407V51.2168H353.617V75.1407C353.617 81.4511 356.912 84.9231 362.867 84.9231C368.848 84.9231 372.143 81.4511 372.143 75.1407V51.2168H372.143Z" fill="white"/>
<path d="M329.846 51.2168H337.423V91.107H329.846V74.279H311.548V91.107H303.97V51.2168H311.548V67.842H329.846V51.2168Z" fill="white"/>
<path d="M414.188 79.5758C414.188 86.6973 408.359 91.4617 399.691 91.4617C393.863 91.4617 389.25 89.8905 385.195 86.5198L385.068 86.4185L389.377 81.122L389.478 81.1979C393.026 83.8842 395.864 84.9234 399.64 84.9234C403.873 84.9234 406.711 82.9719 406.711 80.0575C406.711 76.6867 402.935 75.2928 398.551 73.671C392.976 71.6183 386.665 69.2614 386.665 62.1653C386.665 55.5001 392.139 50.8623 399.996 50.8623C405.039 50.8623 409.474 52.3575 412.845 55.2213L412.946 55.3225L412.845 55.4491L408.359 60.2391L408.232 60.1631C405.749 58.237 403.316 57.4006 400.325 57.4006C397.36 57.4006 394.141 58.7439 394.141 61.6836C394.141 64.7249 397.74 66.0426 401.947 67.5887C407.675 69.6921 414.188 72.0743 414.188 79.5758Z" fill="white"/>
<path d="M297.583 79.5758C297.583 86.6973 291.755 91.4617 283.087 91.4617C277.258 91.4617 272.646 89.8905 268.591 86.5198L268.489 86.4185L272.772 81.122L272.899 81.1979C276.421 83.8842 279.26 84.9234 283.036 84.9234C287.268 84.9234 290.107 82.9719 290.107 80.0575C290.107 76.6867 286.331 75.2928 281.947 73.671C276.371 71.6183 270.061 69.2614 270.061 62.1653C270.061 55.5001 275.535 50.8623 283.391 50.8623C288.435 50.8623 292.87 52.3575 296.24 55.2213L296.342 55.3225L296.24 55.4491L291.755 60.2391L291.653 60.1631C289.144 58.237 286.712 57.4006 283.746 57.4006C280.756 57.4006 277.537 58.7439 277.537 61.6836C277.537 64.7249 281.136 66.0426 285.343 67.5887C291.07 69.6921 297.583 72.0743 297.583 79.5758Z" fill="white"/>
<path d="M89.1292 104.647C89.1292 104.667 89.109 104.688 89.109 104.708C89.109 104.748 89.0888 104.789 89.0683 104.829C87.5273 109.128 85.5809 113.649 83.1279 118.434C70.3753 143.27 48.8032 153.712 47.7893 154.158C46.147 153.428 25.0007 142.926 12.4304 118.434C9.97713 113.649 8.01058 109.128 6.46957 104.829C6.44939 104.789 6.44939 104.748 6.42888 104.708C6.42888 104.688 6.40869 104.667 6.40869 104.647H15.0863V91.5901H23.7231V78.5334H32.3398V65.4767H41.2404V52.4199H54.2971V65.4767H63.2179V78.5334H71.8548V91.5901H80.4715V104.647H89.1289H89.1292Z" fill="white"/>
<path d="M94.8232 39.748H0.713546V57.3871C0.713546 58.8647 0.713546 60.3448 0.693358 61.8425C0.612286 74.7624 0.511026 88.0271 6.48439 104.635C6.50457 104.675 6.50457 104.716 6.52508 104.756C8.06352 109.05 10.0275 113.566 12.4783 118.345C25.0306 142.809 46.1493 153.299 47.789 154.029C48.8029 153.582 70.3446 143.154 83.0796 118.345C85.5304 113.566 87.4742 109.049 89.0126 104.756C89.0328 104.716 89.0533 104.675 89.0533 104.635C95.0267 88.0271 94.9456 74.7624 94.8443 61.8425C94.8443 60.3448 94.8242 58.8647 94.8242 57.3871V39.748H94.8232Z" stroke="white" stroke-width="1.26575"/>
</svg>
