<svg width="624" height="194" viewBox="0 0 624 194" fill="none" xmlns="http://www.w3.org/2000/svg">
<g clip-path="url(#clip0_115_387)">
<path d="M112.938 106.817C110.807 106.817 108.922 106.436 107.284 105.673C105.669 104.888 104.401 103.721 103.481 102.173C102.562 100.625 102.102 98.6955 102.102 96.3845V79.1535H107.183V95.7451C107.183 97.7419 107.688 99.3013 108.698 100.423C109.708 101.522 111.177 102.072 113.107 102.072C115.103 102.072 116.584 101.489 117.549 100.322C118.514 99.133 118.996 97.6185 118.996 95.7788V79.1535H123.977V96.4518C123.977 98.6506 123.528 100.524 122.631 102.072C121.733 103.62 120.455 104.798 118.794 105.606C117.156 106.414 115.204 106.817 112.938 106.817ZM129.733 106.414V78.1438H134.613V94.0287H134.748L142.219 86.2209H148.041L140.132 94.4326L148.748 106.414H142.993L136.699 97.5624L134.613 99.4134V106.414H129.733ZM151.524 106.414V86.2209H156.202V89.7883H156.337C156.786 88.644 157.481 87.7353 158.423 87.0623C159.366 86.3667 160.499 86.019 161.823 86.019H163.438V90.3267H161.587C159.837 90.3267 158.536 90.854 157.683 91.9085C156.83 92.963 156.404 94.3653 156.404 96.1153V106.414H151.524ZM171.897 106.784C169.855 106.784 168.206 106.212 166.95 105.067C165.716 103.923 165.099 102.42 165.099 100.558C165.099 98.6057 165.749 97.0913 167.051 96.0143C168.374 94.9374 170.225 94.3989 172.604 94.3989H177.786V93.5239C177.786 92.3572 177.45 91.4486 176.777 90.7979C176.126 90.1472 175.217 89.8219 174.051 89.8219C173.063 89.8219 172.245 90.0463 171.594 90.495C170.943 90.9437 170.517 91.5944 170.315 92.447H165.368C165.749 90.338 166.703 88.7113 168.228 87.5671C169.754 86.4004 171.695 85.817 174.051 85.817C176.698 85.817 178.751 86.5013 180.209 87.87C181.69 89.2386 182.431 91.1681 182.431 93.6585V106.414H177.887V103.385H177.753C177.214 104.462 176.429 105.303 175.397 105.909C174.387 106.492 173.221 106.784 171.897 106.784ZM172.94 102.914C173.86 102.914 174.679 102.712 175.397 102.308C176.137 101.904 176.721 101.354 177.147 100.659C177.573 99.9407 177.786 99.133 177.786 98.2355V97.798H172.839C171.852 97.798 171.078 98.0224 170.517 98.4711C169.978 98.9198 169.709 99.5368 169.709 100.322C169.709 101.13 170.001 101.769 170.584 102.24C171.168 102.689 171.953 102.914 172.94 102.914ZM187.736 106.414V86.2209H192.616V106.414H187.736ZM190.159 83.9997C189.374 83.9997 188.701 83.7305 188.14 83.192C187.601 82.6311 187.332 81.958 187.332 81.1727C187.332 80.3874 187.601 79.7256 188.14 79.1871C188.701 78.6262 189.374 78.3457 190.159 78.3457C190.944 78.3457 191.606 78.6262 192.145 79.1871C192.706 79.7256 192.986 80.3874 192.986 81.1727C192.986 81.958 192.706 82.6311 192.145 83.192C191.606 83.7305 190.944 83.9997 190.159 83.9997ZM198.041 106.414V86.2209H202.786V89.2834H202.921C203.504 88.1841 204.312 87.3427 205.344 86.7594C206.399 86.1536 207.61 85.8507 208.979 85.8507C210.46 85.8507 211.75 86.2097 212.849 86.9276C213.971 87.6456 214.846 88.6328 215.474 89.8892C216.102 91.1457 216.416 92.5928 216.416 94.2307V106.414H211.537V95.173C211.537 93.6473 211.155 92.4582 210.392 91.6056C209.629 90.7306 208.575 90.2931 207.229 90.2931C205.905 90.2931 204.85 90.7306 204.065 91.6056C203.302 92.4582 202.921 93.6473 202.921 95.173V106.414H198.041ZM227.151 106.784C225.109 106.784 223.46 106.212 222.203 105.067C220.969 103.923 220.352 102.42 220.352 100.558C220.352 98.6057 221.003 97.0913 222.304 96.0143C223.628 94.9374 225.479 94.3989 227.857 94.3989H233.04V93.5239C233.04 92.3572 232.704 91.4486 232.031 90.7979C231.38 90.1472 230.471 89.8219 229.304 89.8219C228.317 89.8219 227.498 90.0463 226.848 90.495C226.197 90.9437 225.771 91.5944 225.569 92.447H220.622C221.003 90.338 221.957 88.7113 223.482 87.5671C225.008 86.4004 226.949 85.817 229.304 85.817C231.952 85.817 234.005 86.5013 235.463 87.87C236.944 89.2386 237.684 91.1681 237.684 93.6585V106.414H233.141V103.385H233.006C232.468 104.462 231.683 105.303 230.651 105.909C229.641 106.492 228.474 106.784 227.151 106.784ZM228.194 102.914C229.114 102.914 229.933 102.712 230.651 102.308C231.391 101.904 231.974 101.354 232.401 100.659C232.827 99.9407 233.04 99.133 233.04 98.2355V97.798H228.093C227.106 97.798 226.332 98.0224 225.771 98.4711C225.232 98.9198 224.963 99.5368 224.963 100.322C224.963 101.13 225.255 101.769 225.838 102.24C226.421 102.689 227.207 102.914 228.194 102.914ZM250.596 106.817C248.06 106.817 245.996 106.189 244.403 104.933C242.81 103.676 241.958 101.982 241.846 99.851H246.557C246.714 100.861 247.152 101.635 247.87 102.173C248.61 102.689 249.586 102.947 250.798 102.947C251.807 102.947 252.581 102.756 253.12 102.375C253.681 101.971 253.961 101.399 253.961 100.659C253.961 99.5368 253.198 98.8077 251.673 98.4711L248.004 97.6971C244.302 96.8894 242.451 95.0384 242.451 92.1441C242.451 90.237 243.169 88.7113 244.605 87.5671C246.041 86.4004 247.915 85.817 250.225 85.817C252.536 85.817 254.432 86.4116 255.913 87.6007C257.394 88.7898 258.202 90.4053 258.336 92.447H253.625C253.445 91.5046 253.041 90.7867 252.413 90.2931C251.785 89.7995 250.966 89.5527 249.956 89.5527C249.059 89.5527 248.341 89.7434 247.802 90.1248C247.264 90.4838 246.995 91.011 246.995 91.7066C246.995 92.2002 247.174 92.6152 247.533 92.9518C247.892 93.2659 248.431 93.5015 249.149 93.6585L252.918 94.4662C254.78 94.8701 256.182 95.5432 257.125 96.4855C258.067 97.4054 258.538 98.6618 258.538 100.255C258.538 102.274 257.82 103.878 256.384 105.067C254.971 106.234 253.041 106.817 250.596 106.817ZM269.775 106.414L280.275 79.1535H285.491L295.857 106.414H290.64L288.116 99.2788H277.515L274.823 106.414H269.775ZM279.029 94.9711H286.669L283.001 84.7064H282.866L279.029 94.9711ZM298.768 106.414V86.2209H303.446V89.2834H303.58C304.119 88.1392 304.882 87.2866 305.869 86.7257C306.856 86.1424 308 85.8507 309.302 85.8507C310.603 85.8507 311.77 86.1536 312.802 86.7594C313.834 87.3651 314.653 88.2402 315.259 89.3844H315.359C316.055 88.2402 316.941 87.3651 318.018 86.7594C319.118 86.1536 320.34 85.8507 321.687 85.8507C323.212 85.8507 324.547 86.1985 325.691 86.894C326.836 87.5895 327.722 88.5655 328.35 89.8219C329.001 91.0559 329.326 92.5031 329.326 94.1633V106.414H324.446V95.072C324.446 93.5688 324.087 92.4021 323.369 91.572C322.674 90.7194 321.709 90.2931 320.475 90.2931C319.263 90.2931 318.299 90.7194 317.581 91.572C316.863 92.4021 316.504 93.5688 316.504 95.072V106.414H311.624V95.072C311.624 93.5688 311.265 92.4021 310.547 91.572C309.829 90.7194 308.842 90.2931 307.585 90.2931C306.351 90.2931 305.387 90.7194 304.691 91.572C303.996 92.4021 303.648 93.5688 303.648 95.072V106.414H298.768ZM345.348 106.817C342.588 106.817 340.625 105.673 339.458 103.385H339.324V106.414H334.578V78.1438H339.458V89.1488H339.593C340.715 86.9276 342.633 85.817 345.348 85.817C347.03 85.817 348.5 86.2545 349.756 87.1296C351.013 88.0046 351.989 89.2386 352.684 90.8316C353.38 92.4021 353.728 94.2307 353.728 96.3172C353.728 98.3814 353.38 100.21 352.684 101.803C351.989 103.373 351.013 104.607 349.756 105.505C348.5 106.38 347.03 106.817 345.348 106.817ZM344.002 102.476C345.505 102.476 346.683 101.926 347.535 100.827C348.41 99.7051 348.848 98.2019 348.848 96.3172C348.848 94.4326 348.41 92.9406 347.535 91.8412C346.683 90.7194 345.505 90.1585 344.002 90.1585C342.588 90.1585 341.477 90.6184 340.67 91.5383C339.862 92.4582 339.458 93.6922 339.458 95.2403V97.3942C339.458 98.9423 339.862 100.176 340.67 101.096C341.477 102.016 342.588 102.476 344.002 102.476ZM363.491 106.784C361.449 106.784 359.8 106.212 358.543 105.067C357.309 103.923 356.692 102.42 356.692 100.558C356.692 98.6057 357.343 97.0913 358.644 96.0143C359.968 94.9374 361.819 94.3989 364.197 94.3989H369.38V93.5239C369.38 92.3572 369.044 91.4486 368.371 90.7979C367.72 90.1472 366.811 89.8219 365.645 89.8219C364.657 89.8219 363.838 90.0463 363.188 90.495C362.537 90.9437 362.111 91.5944 361.909 92.447H356.962C357.343 90.338 358.297 88.7113 359.822 87.5671C361.348 86.4004 363.289 85.817 365.645 85.817C368.292 85.817 370.345 86.5013 371.803 87.87C373.284 89.2386 374.025 91.1681 374.025 93.6585V106.414H369.481V103.385H369.347C368.808 104.462 368.023 105.303 366.991 105.909C365.981 106.492 364.814 106.784 363.491 106.784ZM364.534 102.914C365.454 102.914 366.273 102.712 366.991 102.308C367.731 101.904 368.314 101.354 368.741 100.659C369.167 99.9407 369.38 99.133 369.38 98.2355V97.798H364.433C363.446 97.798 362.672 98.0224 362.111 98.4711C361.572 98.9198 361.303 99.5368 361.303 100.322C361.303 101.13 361.595 101.769 362.178 102.24C362.761 102.689 363.547 102.914 364.534 102.914ZM386.936 106.817C384.4 106.817 382.336 106.189 380.743 104.933C379.15 103.676 378.298 101.982 378.186 99.851H382.897C383.054 100.861 383.492 101.635 384.21 102.173C384.95 102.689 385.926 102.947 387.138 102.947C388.147 102.947 388.921 102.756 389.46 102.375C390.021 101.971 390.301 101.399 390.301 100.659C390.301 99.5368 389.538 98.8077 388.013 98.4711L384.344 97.6971C380.642 96.8894 378.791 95.0384 378.791 92.1441C378.791 90.237 379.509 88.7113 380.945 87.5671C382.381 86.4004 384.255 85.817 386.566 85.817C388.876 85.817 390.772 86.4116 392.253 87.6007C393.734 88.7898 394.542 90.4053 394.676 92.447H389.965C389.785 91.5046 389.381 90.7867 388.753 90.2931C388.125 89.7995 387.306 89.5527 386.296 89.5527C385.399 89.5527 384.681 89.7434 384.142 90.1248C383.604 90.4838 383.335 91.011 383.335 91.7066C383.335 92.2002 383.514 92.6152 383.873 92.9518C384.232 93.2659 384.771 93.5015 385.489 93.6585L389.258 94.4662C391.12 94.8701 392.522 95.5432 393.465 96.4855C394.407 97.4054 394.878 98.6618 394.878 100.255C394.878 102.274 394.16 103.878 392.724 105.067C391.311 106.234 389.381 106.817 386.936 106.817ZM406.576 106.817C404.041 106.817 401.977 106.189 400.384 104.933C398.791 103.676 397.938 101.982 397.826 99.851H402.538C402.695 100.861 403.132 101.635 403.85 102.173C404.591 102.689 405.567 102.947 406.778 102.947C407.788 102.947 408.562 102.756 409.1 102.375C409.661 101.971 409.942 101.399 409.942 100.659C409.942 99.5368 409.179 98.8077 407.653 98.4711L403.985 97.6971C400.283 96.8894 398.432 95.0384 398.432 92.1441C398.432 90.237 399.15 88.7113 400.586 87.5671C402.022 86.4004 403.895 85.817 406.206 85.817C408.517 85.817 410.413 86.4116 411.894 87.6007C413.374 88.7898 414.182 90.4053 414.317 92.447H409.605C409.426 91.5046 409.022 90.7867 408.394 90.2931C407.765 89.7995 406.946 89.5527 405.937 89.5527C405.039 89.5527 404.321 89.7434 403.783 90.1248C403.244 90.4838 402.975 91.011 402.975 91.7066C402.975 92.2002 403.155 92.6152 403.514 92.9518C403.873 93.2659 404.411 93.5015 405.129 93.6585L408.898 94.4662C410.761 94.8701 412.163 95.5432 413.105 96.4855C414.048 97.4054 414.519 98.6618 414.519 100.255C414.519 102.274 413.801 103.878 412.365 105.067C410.951 106.234 409.022 106.817 406.576 106.817ZM424.029 106.784C421.988 106.784 420.338 106.212 419.082 105.067C417.848 103.923 417.231 102.42 417.231 100.558C417.231 98.6057 417.882 97.0913 419.183 96.0143C420.507 94.9374 422.358 94.3989 424.736 94.3989H429.919V93.5239C429.919 92.3572 429.582 91.4486 428.909 90.7979C428.259 90.1472 427.35 89.8219 426.183 89.8219C425.196 89.8219 424.377 90.0463 423.726 90.495C423.076 90.9437 422.649 91.5944 422.448 92.447H417.5C417.882 90.338 418.835 88.7113 420.361 87.5671C421.887 86.4004 423.827 85.817 426.183 85.817C428.831 85.817 430.884 86.5013 432.342 87.87C433.823 89.2386 434.563 91.1681 434.563 93.6585V106.414H430.02V103.385H429.885C429.347 104.462 428.561 105.303 427.529 105.909C426.52 106.492 425.353 106.784 424.029 106.784ZM425.073 102.914C425.992 102.914 426.811 102.712 427.529 102.308C428.27 101.904 428.853 101.354 429.279 100.659C429.706 99.9407 429.919 99.133 429.919 98.2355V97.798H424.972C423.984 97.798 423.21 98.0224 422.649 98.4711C422.111 98.9198 421.842 99.5368 421.842 100.322C421.842 101.13 422.133 101.769 422.717 102.24C423.3 102.689 424.085 102.914 425.073 102.914ZM447.07 106.817C445.41 106.817 443.941 106.38 442.662 105.505C441.405 104.607 440.429 103.373 439.734 101.803C439.038 100.21 438.691 98.3814 438.691 96.3172C438.691 94.2307 439.038 92.4021 439.734 90.8316C440.429 89.2386 441.405 88.0046 442.662 87.1296C443.941 86.2545 445.41 85.817 447.07 85.817C449.785 85.817 451.704 86.9276 452.825 89.1488H452.96V78.1438H457.84V106.414H453.095V103.385H452.96C451.793 105.673 449.83 106.817 447.07 106.817ZM448.417 102.476C449.853 102.476 450.963 102.016 451.748 101.096C452.556 100.176 452.96 98.9423 452.96 97.3942V95.2403C452.96 93.6922 452.556 92.4582 451.748 91.5383C450.963 90.6184 449.853 90.1585 448.417 90.1585C446.936 90.1585 445.758 90.7194 444.883 91.8412C444.008 92.9406 443.57 94.4326 443.57 96.3172C443.57 98.2019 444.008 99.7051 444.883 100.827C445.758 101.926 446.936 102.476 448.417 102.476ZM471.877 106.817C469.992 106.817 468.31 106.391 466.829 105.539C465.37 104.664 464.215 103.441 463.362 101.87C462.532 100.277 462.117 98.4038 462.117 96.2499C462.117 94.1185 462.521 92.2787 463.329 90.7306C464.159 89.16 465.292 87.9485 466.728 87.0959C468.164 86.2433 469.813 85.817 471.675 85.817C473.425 85.817 474.984 86.2097 476.353 86.9949C477.722 87.7578 478.81 88.8796 479.618 90.3604C480.425 91.8412 480.829 93.6249 480.829 95.7115V97.4951H466.896C467.076 99.1554 467.603 100.457 468.478 101.399C469.375 102.319 470.497 102.779 471.843 102.779C472.875 102.779 473.728 102.532 474.401 102.038C475.097 101.545 475.568 100.872 475.815 100.019H480.795C480.526 101.433 479.965 102.655 479.113 103.688C478.283 104.697 477.239 105.471 475.983 106.01C474.749 106.548 473.38 106.817 471.877 106.817ZM467.031 94.096H476.05C475.893 92.705 475.411 91.6505 474.603 90.9325C473.818 90.1921 472.842 89.8219 471.675 89.8219C470.508 89.8219 469.51 90.1921 468.68 90.9325C467.872 91.6729 467.322 92.7274 467.031 94.096ZM494.886 106.414V86.2209H499.766V106.414H494.886ZM497.309 83.9997C496.523 83.9997 495.85 83.7305 495.289 83.192C494.751 82.6311 494.482 81.958 494.482 81.1727C494.482 80.3874 494.751 79.7256 495.289 79.1871C495.85 78.6262 496.523 78.3457 497.309 78.3457C498.094 78.3457 498.756 78.6262 499.294 79.1871C499.855 79.7256 500.136 80.3874 500.136 81.1727C500.136 81.958 499.855 82.6311 499.294 83.192C498.756 83.7305 498.094 83.9997 497.309 83.9997ZM538.686 106.414H533.302L520.345 87.0286H520.21V106.414H515.532V79.1535H520.715L533.874 98.875H534.008V79.1535H538.686V106.414ZM553.459 106.817C551.574 106.817 549.891 106.391 548.41 105.539C546.93 104.664 545.752 103.441 544.877 101.87C544.024 100.3 543.598 98.4487 543.598 96.3172C543.598 94.1633 544.024 92.3011 544.877 90.7306C545.752 89.16 546.93 87.9485 548.41 87.0959C549.891 86.2433 551.574 85.817 553.459 85.817C555.388 85.817 557.093 86.2433 558.574 87.0959C560.055 87.9485 561.21 89.16 562.04 90.7306C562.893 92.3011 563.319 94.1633 563.319 96.3172C563.319 98.4487 562.893 100.311 562.04 101.904C561.188 103.474 560.021 104.686 558.54 105.539C557.06 106.391 555.366 106.817 553.459 106.817ZM553.459 102.442C554.962 102.442 556.162 101.893 557.06 100.793C557.979 99.6715 558.439 98.1794 558.439 96.3172C558.439 94.4326 557.979 92.9406 557.06 91.8412C556.162 90.7418 554.962 90.1921 553.459 90.1921C552 90.1921 550.8 90.7418 549.858 91.8412C548.938 92.9406 548.478 94.4326 548.478 96.3172C548.478 98.1794 548.938 99.6715 549.858 100.793C550.8 101.893 552 102.442 553.459 102.442ZM567.919 106.414V86.2209H572.597V89.7883H572.732C573.181 88.644 573.876 87.7353 574.819 87.0623C575.761 86.3667 576.894 86.019 578.218 86.019H579.833V90.3267H577.982C576.232 90.3267 574.931 90.854 574.078 91.9085C573.226 92.963 572.799 94.3653 572.799 96.1153V106.414H567.919ZM591.067 114.895C588.442 114.895 586.254 114.266 584.504 113.01C582.754 111.776 581.733 110.127 581.442 108.063H586.591C586.815 108.938 587.309 109.622 588.072 110.116C588.857 110.609 589.822 110.856 590.966 110.856C592.492 110.856 593.703 110.407 594.601 109.51C595.498 108.612 595.947 107.401 595.947 105.875V102.981H595.812C595.251 104.103 594.477 104.955 593.49 105.539C592.525 106.122 591.392 106.414 590.091 106.414C588.408 106.414 586.916 105.976 585.615 105.101C584.336 104.226 583.338 103.014 582.62 101.466C581.902 99.9183 581.543 98.1346 581.543 96.1153C581.543 94.0736 581.902 92.2899 582.62 90.7642C583.338 89.2161 584.336 88.0046 585.615 87.1296C586.916 86.2545 588.408 85.817 590.091 85.817C591.415 85.817 592.57 86.1087 593.557 86.6921C594.545 87.2754 595.296 88.1168 595.812 89.2161H595.947V86.2209H600.692V105.942C600.692 108.725 599.84 110.912 598.134 112.505C596.429 114.098 594.073 114.895 591.067 114.895ZM591.336 102.038C592.727 102.038 593.815 101.59 594.601 100.692C595.408 99.7724 595.812 98.5384 595.812 96.9903V95.173C595.812 93.6697 595.408 92.4694 594.601 91.572C593.793 90.6521 592.705 90.1921 591.336 90.1921C589.833 90.1921 588.633 90.7306 587.735 91.8075C586.86 92.862 586.423 94.298 586.423 96.1153C586.423 97.9326 586.86 99.3798 587.735 100.457C588.633 101.511 589.833 102.038 591.336 102.038ZM614.724 106.817C612.84 106.817 611.157 106.391 609.676 105.539C608.218 104.664 607.062 103.441 606.21 101.87C605.38 100.277 604.965 98.4038 604.965 96.2499C604.965 94.1185 605.369 92.2787 606.176 90.7306C607.006 89.16 608.139 87.9485 609.575 87.0959C611.011 86.2433 612.66 85.817 614.523 85.817C616.273 85.817 617.832 86.2097 619.201 86.9949C620.569 87.7578 621.657 88.8796 622.465 90.3604C623.273 91.8412 623.677 93.6249 623.677 95.7115V97.4951H609.744C609.923 99.1554 610.45 100.457 611.325 101.399C612.223 102.319 613.345 102.779 614.691 102.779C615.723 102.779 616.575 102.532 617.249 102.038C617.944 101.545 618.415 100.872 618.662 100.019H623.643C623.374 101.433 622.813 102.655 621.96 103.688C621.13 104.697 620.087 105.471 618.83 106.01C617.596 106.548 616.228 106.817 614.724 106.817ZM609.878 94.096H618.898C618.741 92.705 618.258 91.6505 617.45 90.9325C616.665 90.1921 615.689 89.8219 614.523 89.8219C613.356 89.8219 612.357 90.1921 611.527 90.9325C610.72 91.6729 610.17 92.7274 609.878 94.096Z" fill="white"/>
<path d="M34.7578 39C32.0566 42.0662 30.4106 46.0772 30.4106 50.4828C30.57 60.1542 31.7555 69.8138 31.8597 79.4648C32.074 88.478 29.3731 96.9408 26.0864 105.201C24.9909 107.482 23.8082 109.713 22.6231 111.951L19.1453 111.249C16.0064 110.623 13.9662 107.572 14.5952 104.433C15.143 101.688 17.56 99.7666 20.2553 99.7666L21.5248 99.9028L18.6934 76.2534C17.7688 65.733 12.3376 56.4878 4.34721 50.4883C2.97351 49.4564 1.51575 48.5117 0 47.6798V131.641H19.3832C20.8322 139.495 25.1621 146.363 31.2484 151.058C32.6946 152.055 33.9089 153.371 34.7814 154.907C35.6508 153.371 36.865 152.055 38.3144 151.058C44.4007 146.352 48.7305 139.498 50.1796 131.641H69.5628V47.6798C68.047 48.5117 66.5893 49.4564 65.2156 50.4883C57.2165 56.4962 51.7968 65.7327 50.8694 76.2534L48.038 99.9028L49.3074 99.7666C52.0027 99.7781 54.4198 101.685 54.9676 104.433C55.5935 107.572 53.5532 110.62 50.4175 111.249L46.9397 111.951C45.7542 109.716 44.5688 107.485 43.4764 105.201C40.1869 96.9467 37.486 88.4839 37.7003 79.4648C37.8045 69.7847 38.99 60.1337 39.1494 50.4828C39.1494 46.0776 37.5034 42.078 34.8022 39H34.7587L34.7578 39ZM5.77581 59.7801C9.52596 64.1825 12.0445 69.6631 12.7895 75.7L15.1079 95.2048C12.1372 96.683 9.89102 99.3957 9.03901 102.679H5.75534V59.786L5.77581 59.7801ZM63.7398 59.7801V102.673H60.4562C59.6097 99.3926 57.358 96.6799 54.3872 95.1989L56.7057 75.6941C57.4563 69.6631 59.9748 64.1767 63.7194 59.7714L63.7395 59.7801H63.7398ZM34.7578 98.9928C36.3142 104.085 38.4559 108.934 41.1192 113.42C38.5861 114.188 36.3837 115.683 34.7578 117.698C33.132 115.683 30.9292 114.191 28.3964 113.417C31.0598 108.922 33.2017 104.085 34.7578 98.9928ZM5.77581 108.482H9.05948C10.0942 112.484 13.2184 115.643 17.1745 116.747L19.9598 117.382C19.2151 120.083 18.8063 122.917 18.8063 125.873H5.76433V108.484L5.77581 108.482ZM60.4648 108.482H63.7485V125.871H50.7066C50.7066 122.932 50.2978 120.083 49.5531 117.379L52.3383 116.745C56.309 115.64 59.4301 112.478 60.4534 108.479L60.4648 108.482ZM25.6286 118.712C29.1439 119.208 31.8538 122.219 31.8538 125.868H24.6084C24.6084 123.384 24.9766 120.987 25.6286 118.712ZM43.8784 118.712C44.5303 120.987 44.8985 123.378 44.8985 125.868H37.6532C37.6532 122.213 40.363 119.208 43.8784 118.712ZM25.2719 131.667H31.8594V143.868C28.6712 140.521 26.3528 136.333 25.2719 131.667ZM37.656 131.667H44.2435C43.1768 136.333 40.8525 140.527 37.656 143.868V131.667Z" fill="white"/>
</g>
<defs>
<clipPath id="clip0_115_387">
<rect width="624" height="194" fill="white"/>
</clipPath>
</defs>
</svg>
