<svg width="337" height="194" viewBox="0 0 337 194" fill="none" xmlns="http://www.w3.org/2000/svg">
<g clip-path="url(#clip0_115_362)">
<path d="M39.6813 40.665C40.1054 42.366 40.4078 43.8996 40.8767 45.3795C41.8739 48.4879 43.8858 50.9915 45.9115 53.4686C47.9328 55.9408 50.337 58.1558 52.0424 60.8267C58.3178 70.648 52.832 83.5053 41.4453 86.0227C32.4543 88.0122 22.773 81.7596 20.9772 72.7547C20.2824 69.2902 21.0676 65.9697 22.3306 62.7665C25.3262 55.1964 30.2299 48.9934 36.2392 43.6021C36.7939 43.1059 37.3536 42.6142 37.9173 42.127C38.4497 41.6761 38.9955 41.2332 39.6813 40.665Z" fill="white"/>
<path d="M84.0009 132.577H91.4086L87.7454 124.069L84.0009 132.577ZM85.467 114.708H90.1452L102.642 143.202H96.0506L93.7274 137.91H81.8038L79.4805 143.202H72.9707L85.4674 114.708H85.467Z" fill="white"/>
<path d="M104.309 122.035H110.21V122.887C110.453 122.563 110.895 122.274 111.532 122.012C112.172 121.755 112.817 121.629 113.467 121.629C114.527 121.629 115.353 121.769 115.948 122.053C116.548 122.342 117.103 122.806 117.617 123.46L114.608 128.179C114.306 127.611 113.67 127.327 112.695 127.327C111.446 127.327 110.615 128.058 110.21 129.524V143.202H104.309V122.035V122.035Z" fill="white"/>
<path d="M117.414 122.035H121.443V117.108H127.344V122.035H133.817V127.53H127.344V134.409C127.344 135.682 127.511 136.593 127.835 137.134C128.16 137.68 128.715 137.951 129.505 137.951C130.75 137.951 131.959 137.491 133.127 136.566L135.567 140.757C133.858 142.548 131.647 143.446 128.931 143.446C126.653 143.446 124.835 142.828 123.477 141.592C122.124 140.356 121.443 138.546 121.443 136.16V127.53H117.414V122.035Z" fill="white"/>
<path d="M176.063 143.2H170.934L164.871 125.944L158.97 143.2H153.841L144.967 114.707H151.481L156.687 131.886L162.39 114.707H167.433L173.257 131.764L178.22 114.707H184.491L176.063 143.2Z" fill="white"/>
<path d="M190.654 136.484C191.646 137.517 192.928 138.032 194.502 138.032C196.126 138.032 197.439 137.545 198.427 136.566C199.42 135.591 199.916 134.26 199.916 132.578C199.916 130.895 199.397 129.56 198.369 128.567C197.336 127.579 196.045 127.083 194.502 127.083C192.955 127.083 191.678 127.57 190.672 128.549C189.671 129.523 189.17 130.867 189.17 132.577C189.17 134.152 189.662 135.451 190.654 136.484M186.26 124.682C188.39 122.616 191.137 121.587 194.502 121.587C197.864 121.587 200.624 122.616 202.785 124.682C204.942 126.744 206.02 129.374 206.02 132.577C206.02 135.753 204.942 138.37 202.785 140.431C200.624 142.493 197.863 143.526 194.502 143.526C191.218 143.526 188.489 142.493 186.319 140.431C184.149 138.37 183.062 135.753 183.062 132.577C183.062 129.374 184.126 126.744 186.26 124.682Z" fill="white"/>
<path d="M208.662 122.035H214.563V122.887C214.807 122.563 215.249 122.274 215.885 122.012C216.526 121.755 217.171 121.629 217.82 121.629C218.881 121.629 219.706 121.769 220.302 122.053C220.902 122.342 221.456 122.806 221.971 123.46L218.962 128.179C218.659 127.611 218.024 127.327 217.049 127.327C215.799 127.327 214.969 128.058 214.563 129.524V143.202H208.662V122.035V122.035Z" fill="white"/>
<path d="M223.396 113.487H229.296V129.2L235.973 122.036H243.543L234.466 131.276L243.827 143.199H236.339L230.032 135.223L229.296 135.71V143.199H223.396V113.487Z" fill="white"/>
<path d="M255.447 135.915C254.622 135.617 253.624 135.306 252.456 134.976C251.287 134.652 250.114 134.245 248.932 133.758C247.755 133.271 246.749 132.545 245.923 131.579C245.093 130.618 244.683 129.468 244.683 128.141C244.683 126.107 245.49 124.505 247.101 123.337C248.716 122.173 250.949 121.586 253.8 121.586C255.727 121.586 257.495 121.961 259.11 122.705C260.725 123.454 261.885 124.357 262.589 125.412L258.56 129.278C257.152 127.817 255.172 127.081 252.618 127.081C251.396 127.081 250.787 127.419 250.787 128.101C250.787 128.426 251.202 128.719 252.027 128.976C252.857 129.233 253.854 129.517 255.018 129.829C256.187 130.14 257.36 130.541 258.542 131.028C259.719 131.52 260.726 132.265 261.551 133.271C262.381 134.272 262.796 135.468 262.796 136.853C262.796 139.05 261.948 140.71 260.252 141.838C258.555 142.961 256.417 143.525 253.841 143.525C251.396 143.525 249.303 143.047 247.552 142.081C245.802 141.116 244.521 139.889 243.704 138.395L248.387 135.224C248.982 136.009 249.835 136.672 250.949 137.218C252.064 137.759 253.241 138.03 254.491 138.03C255.957 138.03 256.688 137.651 256.688 136.893C256.688 136.537 256.277 136.212 255.447 135.914" fill="white"/>
<path d="M265.234 113.487H271.135V123.376C272.439 122.212 274.311 121.626 276.752 121.626C279.603 121.626 281.715 122.406 283.082 123.967C284.453 125.528 285.139 127.991 285.139 131.357V143.199H279.238V131.641C279.238 129.985 278.926 128.816 278.3 128.14C277.677 127.463 276.644 127.12 275.205 127.12C273.499 127.12 272.141 127.964 271.135 129.647V143.199H265.234V113.487V113.487Z" fill="white"/>
<path d="M295.169 136.484C296.161 137.517 297.442 138.032 299.017 138.032C300.641 138.032 301.954 137.545 302.942 136.566C303.934 135.591 304.431 134.26 304.431 132.578C304.431 130.895 303.912 129.56 302.883 128.567C301.85 127.579 300.56 127.083 299.017 127.083C297.47 127.083 296.193 127.57 295.187 128.549C294.185 129.523 293.685 130.867 293.685 132.577C293.685 134.152 294.176 135.451 295.169 136.484M290.775 124.682C292.904 122.616 295.652 121.587 299.017 121.587C302.378 121.587 305.139 122.616 307.3 124.682C309.456 126.744 310.534 129.374 310.534 132.577C310.534 135.753 309.456 138.37 307.3 140.431C305.139 142.493 302.378 143.526 299.017 143.526C295.733 143.526 293.003 142.493 290.834 140.431C288.664 138.37 287.576 135.753 287.576 132.577C287.576 129.374 288.641 126.744 290.775 124.682Z" fill="white"/>
<path d="M319.08 129.483C319.946 127.881 321.304 127.083 323.149 127.083C324.723 127.083 325.946 127.565 326.812 128.526C327.683 129.492 328.116 130.895 328.116 132.74C328.116 134.368 327.642 135.654 326.69 136.606C325.743 137.558 324.452 138.032 322.824 138.032C322.012 138.032 321.272 137.861 320.604 137.522C319.941 137.184 319.431 136.755 319.08 136.241V129.483ZM319.792 142.954C320.6 143.333 321.872 143.527 323.636 143.527C326.812 143.527 329.37 142.467 331.31 140.351C333.25 138.235 334.22 135.547 334.22 132.294C334.22 129.118 333.277 126.537 331.391 124.557C329.505 122.576 326.975 121.588 323.803 121.588C321.764 121.588 320.19 122.103 319.08 123.136V122.035H313.179L313.192 154.955H319.792V142.955V142.954Z" fill="white"/>
<path d="M72.9707 51.7681H110.821V62.1218H84.0416V73.0526H109.039V83.4064H84.0416V101.758H72.9707V51.7681Z" fill="white"/>
<path d="M134.145 92.047C135.597 91.2395 136.63 90.2378 137.253 89.0468V87.3325C135.584 86.7146 133.703 86.4033 131.609 86.4033C126.8 86.4033 124.396 87.6215 124.396 90.0485C124.396 91.0457 124.838 91.8349 125.718 92.4035C126.597 92.9766 127.825 93.2607 129.394 93.2607C131.109 93.2607 132.692 92.8594 134.145 92.047ZM116.041 69.5487C119.708 65.741 125.158 63.8374 132.394 63.8374C137.203 63.8374 140.943 65.1818 143.609 67.8705C146.276 70.5638 147.606 74.358 147.606 79.2617V101.76H137.253V98.4038C136.396 99.4054 135.051 100.285 133.215 101.047C131.383 101.81 129.394 102.189 127.251 102.189C123.159 102.189 119.875 101.083 117.398 98.8682C114.922 96.6532 113.686 93.7117 113.686 90.0485C113.686 86.0019 115.292 82.9522 118.504 80.9041C121.716 78.8604 125.731 77.8364 130.54 77.8364C133.301 77.8364 135.539 78.1433 137.253 78.7656C137.298 76.9067 136.824 75.5624 135.823 74.728C134.826 73.8932 133.301 73.4784 131.253 73.4784C129.254 73.4784 127.527 73.7267 126.074 74.2273C124.621 74.728 122.92 75.671 120.967 77.0516L116.041 69.5487Z" fill="white"/>
<path d="M173.751 101.76H165.896L148.825 64.6221H160.465L169.966 86.0467L179.034 64.6221H190.032L173.751 101.76H173.751Z" fill="white"/>
<path d="M201.5 89.9757C203.237 91.7849 205.488 92.6917 208.25 92.6917C211.105 92.6917 213.402 91.8345 215.143 90.1202C216.88 88.4058 217.746 86.0736 217.746 83.1186C217.746 80.1682 216.843 77.8221 215.035 76.0854C213.225 74.3486 210.965 73.4776 208.25 73.4776C205.534 73.4776 203.296 74.3348 201.537 76.0492C199.773 77.7635 198.893 80.1185 198.893 83.1186C198.893 85.8794 199.764 88.1669 201.501 89.9761M193.786 69.2646C197.526 65.6466 202.344 63.8374 208.25 63.8374C214.155 63.8374 219 65.6466 222.785 69.2646C226.57 72.8826 228.46 77.5022 228.46 83.119C228.46 88.6907 226.57 93.2876 222.785 96.9059C219 100.524 214.155 102.333 208.25 102.333C202.489 102.333 197.702 100.524 193.894 96.9059C190.087 93.288 188.179 88.6907 188.179 83.119C188.179 77.5022 190.051 72.883 193.786 69.2646Z" fill="white"/>
<path d="M233.107 64.6223H243.466V66.1201C243.894 65.5515 244.665 65.0374 245.784 64.586C246.903 64.1351 248.036 63.9092 249.177 63.9092C251.036 63.9092 252.488 64.1575 253.535 64.6581C254.581 65.1587 255.556 65.9801 256.462 67.1214L251.175 75.4086C250.652 74.407 249.533 73.9063 247.819 73.9063C245.631 73.9063 244.178 75.1921 243.466 77.7636V101.759H233.107V64.6223Z" fill="white"/>
<path d="M259.607 64.6233H269.961V101.761H259.607V64.6233ZM260.609 51.0891C261.701 50.1147 263.109 49.623 264.823 49.623C266.487 49.623 267.868 50.1147 268.964 51.0891C270.06 52.0635 270.606 53.2907 270.606 54.7657C270.606 56.2904 270.06 57.5538 268.964 58.5506C267.868 59.5522 266.487 60.0529 264.823 60.0529C263.013 60.0529 261.584 59.5612 260.537 58.5868C259.49 57.6124 258.967 56.3401 258.967 54.7657C258.967 53.2907 259.513 52.0635 260.609 51.0891Z" fill="white"/>
<path d="M274.178 64.6223H281.247V55.9785H291.605V64.6223H302.96V74.263H291.605V86.3355C291.605 88.5733 291.89 90.1655 292.463 91.1176C293.031 92.0696 294.01 92.5478 295.39 92.5478C297.578 92.5478 299.699 91.7358 301.747 90.1208L306.028 97.4744C303.032 100.619 299.148 102.189 294.389 102.189C290.392 102.189 287.197 101.106 284.82 98.9408C282.438 96.7755 281.247 93.5951 281.247 89.404V74.2638H274.178V64.6232V64.6223Z" fill="white"/>
<path d="M304.977 64.6223H312.046V55.9785H322.404V64.6223H333.759V74.263H322.404V86.3355C322.404 88.5733 322.688 90.1655 323.261 91.1176C323.83 92.0696 324.809 92.5478 326.189 92.5478C328.377 92.5478 330.497 91.7358 332.545 90.1208L336.827 97.4744C333.831 100.619 329.947 102.189 325.187 102.189C321.191 102.189 317.996 101.106 315.619 98.9408C313.237 96.7755 312.046 93.5951 312.046 89.404V74.2638H304.977V64.6232V64.6223Z" fill="white"/>
<path d="M-0.000976562 57.8622L4.9797 62.2381L-0.000976562 67.6246L4.9797 72.0004L-0.000976562 77.0487L4.9797 81.0907L-0.000976562 85.1284L4.9797 89.1704L-0.000976562 95.9013L4.9797 100.277L-0.000976562 105.664L4.9797 110.039L-0.000976562 115.092L4.9797 119.13L-0.000976562 123.172V143.5H16.5105V38.999L-0.000976562 57.861V57.8622Z" fill="white"/>
<path fill-rule="evenodd" clip-rule="evenodd" d="M30.0701 98.0757L30.0664 97.7505L30.0701 97.7509V98.0757ZM45.157 102.991C45.1574 111.434 45.1582 128.808 45.1615 143.5H30.1433C30.1234 128.753 30.103 111.095 30.0847 102.672C33.537 104.458 37.5555 105.145 41.4434 104.284C42.7682 103.991 44.0031 103.545 45.157 102.991Z" fill="white"/>
<path fill-rule="evenodd" clip-rule="evenodd" d="M45.1599 88.5659V99.174C44.0052 99.7287 42.7691 100.176 41.4426 100.469C37.5495 101.33 33.5253 100.64 30.0693 98.8491V88.2305C33.5261 90.0156 37.5499 90.7003 41.4447 89.8382C42.7654 89.5464 44.0068 89.1149 45.1599 88.5659Z" fill="white"/>
</g>
<defs>
<clipPath id="clip0_115_362">
<rect width="337" height="194" fill="white"/>
</clipPath>
</defs>
</svg>
