<svg width="326" height="160" viewBox="0 0 326 160" fill="none" xmlns="http://www.w3.org/2000/svg">
<path d="M308.862 112.559V107.257H316.475V105.033H308.862V100.248H316.95V98.0017H306.216V114.805H317.148V112.559H308.862H308.862V112.559ZM299.191 98.0017V111.12L291.203 98.0017H288.034V114.805H290.606V101.663L298.593 114.805H301.763V98.0017H299.191ZM276.737 114.962C281.279 114.962 283.699 112.582 283.699 108.155V98.0015H281.054V108.155C281.054 111.099 279.556 112.67 276.737 112.67C273.915 112.67 272.417 111.099 272.417 108.155V98.0015H269.772V108.155C269.772 112.582 272.194 114.962 276.737 114.962ZM261.419 98.0017L255.979 112.132L250.411 98.0017H246.518V114.805H249.088V101.304L254.456 114.805H257.476L262.767 101.304V114.805H265.439V98.0017H261.419ZM238.044 98.0017L232.602 112.132L227.034 98.0017H223.141V114.805H225.713V101.304L231.079 114.805H234.099L239.39 101.304V114.805H242.06V98.0017H238.044ZM211.038 112.625C207.517 112.625 205.248 110.178 205.248 106.404C205.248 102.606 207.517 100.18 211.038 100.18C214.557 100.18 216.829 102.606 216.829 106.404C216.829 110.178 214.557 112.625 211.038 112.625ZM211.038 114.962C216.104 114.962 219.599 111.458 219.599 106.404C219.599 101.349 216.104 97.845 211.038 97.845C205.997 97.845 202.502 101.349 202.502 106.404C202.502 111.458 205.997 114.962 211.038 114.962ZM198.472 114.806H201.717L194.055 105.235L201.542 98.0017H198.297L190.186 105.842V98.0017H187.54V114.805H190.186V108.941L192.208 106.988L198.473 114.805L198.472 114.806ZM178.257 114.962C181.776 114.962 184.248 113.075 184.248 110.064C184.248 104.56 175.536 105.728 175.536 102.27C175.536 100.899 176.859 100.112 178.48 100.112C179.929 100.112 181.028 100.608 182.051 101.415L183.673 99.7093C182.374 98.5842 180.577 97.8447 178.357 97.8447C175.186 97.8447 172.915 99.6638 172.915 102.449C172.915 107.818 181.625 106.606 181.625 110.221C181.625 111.615 180.354 112.67 178.257 112.67C176.409 112.67 175.136 112.063 173.837 111.031L172.315 112.85C173.837 114.176 175.712 114.962 178.257 114.962ZM161.283 112.559V107.257H168.896V105.033H161.283V100.248H169.371V98.0017H158.637V114.805H169.569V112.559H161.282L161.283 112.559ZM152.521 114.806H155.765L148.104 105.235L155.591 98.0017H152.346L144.233 105.842V98.0017H141.588V114.805H144.233V108.941L146.256 106.988L152.521 114.805L152.521 114.806ZM130.192 112.559V98.0017H127.546V114.805H138.656V112.559H130.192V112.559ZM121.843 98.0017L117.401 105.842L113.033 98.0017H110.062L116.077 108.38V114.805H118.725V108.38L124.738 98.0017H121.843H121.843ZM107.689 100.248V98.0017H96.9551V114.805H99.6251V108.088H107.015V105.842H99.6251V100.248L107.689 100.248Z" fill="white"/>
<path d="M106.554 77.3967L110.846 64.689L115.12 77.3967H106.554H106.554ZM114.364 59.2993L114.345 59.2236H107.329L96.7392 88.8371L96.6826 88.9884H102.677L104.946 82.1995H116.765L119.016 88.9125L119.054 88.9882H125.029L114.364 59.2988V59.2993Z" fill="white"/>
<path d="M141.481 71.9882L154.851 88.9884H147.949L137.605 75.7322L134.466 78.7768V88.9884H128.812V59.2236H134.466V72.1015L147.741 59.2236H154.643L154.454 59.4127L141.481 71.9882Z" fill="white"/>
<path d="M164.325 84.1853H178.452V88.9884H158.671V59.2236H178.149V64.0268H164.325V71.2317H177.317V76.0348H164.325V84.1853Z" fill="white"/>
<path d="M193.901 73.0093H189.57V64.027H193.901C197.135 64.027 198.931 65.5965 198.931 68.4144C198.931 71.3833 197.135 73.0093 193.901 73.0093ZM198.893 76.8861C202.883 75.5814 205.058 72.5747 205.058 68.4141C205.058 62.6652 200.898 59.2236 193.901 59.2236H183.916V88.9884H189.57V77.6046H192.955L200.16 88.9319L200.198 88.9884H206.646L198.893 76.8858V76.8861Z" fill="white"/>
<path d="M286.448 59.2236H292.102V77.0749C292.102 84.9226 287.639 89.2531 279.527 89.2531C271.433 89.2531 266.97 84.9226 266.97 77.0749V59.2236H272.624V77.0749C272.624 81.7835 275.082 84.3743 279.527 84.3743C283.99 84.3743 286.448 81.7837 286.448 77.0749V59.2236Z" fill="white"/>
<path d="M254.887 59.2236H260.541V88.9884H254.887V76.4318H241.234V88.9884H235.58V59.2236H241.234V71.6289H254.887V59.2236Z" fill="white"/>
<path d="M317.821 80.3826C317.821 85.6966 313.471 89.2515 307.004 89.2515C302.655 89.2515 299.213 88.0793 296.187 85.5641L296.093 85.4884L299.308 81.5363L299.383 81.5928C302.031 83.5972 304.149 84.3727 306.966 84.3727C310.124 84.3727 312.242 82.9167 312.242 80.7418C312.242 78.2266 309.425 77.1866 306.153 75.9764C301.993 74.4447 297.284 72.6862 297.284 67.391C297.284 62.4177 301.369 58.957 307.231 58.957C310.995 58.957 314.304 60.0727 316.819 62.2096L316.895 62.2852L316.819 62.3798L313.472 65.9538L313.377 65.8973C311.524 64.46 309.709 63.8358 307.477 63.8358C305.264 63.8358 302.863 64.8381 302.863 67.0318C302.863 69.3012 305.548 70.2843 308.687 71.438C312.961 73.0074 317.821 74.7853 317.821 80.3826Z" fill="white"/>
<path d="M230.814 80.3826C230.814 85.6966 226.465 89.2515 219.997 89.2515C215.648 89.2515 212.206 88.0793 209.181 85.5641L209.105 85.4884L212.301 81.5363L212.395 81.5928C215.024 83.5972 217.142 84.3727 219.959 84.3727C223.117 84.3727 225.235 82.9167 225.235 80.7418C225.235 78.2266 222.418 77.1866 219.146 75.9764C214.986 74.4447 210.277 72.6862 210.277 67.391C210.277 62.4177 214.362 58.957 220.224 58.957C223.988 58.957 227.297 60.0727 229.812 62.2096L229.888 62.2852L229.812 62.3798L226.465 65.9538L226.389 65.8973C224.517 64.46 222.702 63.8358 220.489 63.8358C218.257 63.8358 215.856 64.8381 215.856 67.0318C215.856 69.3012 218.541 70.2843 221.68 71.438C225.954 73.0074 230.814 74.7853 230.814 80.3826Z" fill="white"/>
<path d="M75.2719 99.0912C75.2719 99.1062 75.2568 99.1216 75.2568 99.1367C75.2568 99.1671 75.2418 99.1973 75.2264 99.2274C74.0765 102.434 72.6242 105.808 70.7938 109.378C61.2783 127.911 45.1818 135.702 44.4251 136.035C43.1998 135.49 27.4211 127.654 18.0413 109.378C16.2106 105.808 14.7432 102.435 13.5934 99.2274C13.5783 99.197 13.5783 99.1668 13.5629 99.1367C13.5629 99.1216 13.5479 99.1062 13.5479 99.0912H20.0228V89.3486H26.4672V79.6061H32.8966V69.8636H39.5379V60.1211H49.2805V69.8636H55.9369V79.6061H62.3813V89.3486H68.8107V99.0912H75.2708H75.2719Z" fill="white"/>
<path d="M79.5216 50.665H9.29921V63.8268C9.29921 64.9293 9.29921 66.0336 9.28413 67.1512C9.22354 76.7917 9.14813 86.6893 13.6052 99.0814C13.6203 99.1118 13.6203 99.142 13.6356 99.1721C14.7836 102.376 16.2491 105.745 18.0777 109.312C27.444 127.566 43.202 135.393 44.4254 135.937C45.1818 135.605 61.2557 127.823 70.7583 109.312C72.587 105.745 74.0375 102.375 75.1852 99.1721C75.2003 99.1417 75.2156 99.1116 75.2156 99.0814C79.6727 86.6893 79.6124 76.7917 79.5367 67.1512C79.5367 66.0336 79.5216 64.9293 79.5216 63.8268V50.665Z" stroke="white" stroke-width="0.945222"/>
</svg>
