<svg width="427" height="91" viewBox="0 0 427 91" fill="none" xmlns="http://www.w3.org/2000/svg">
<path d="M25.6744 0.955078C23.8425 3.03471 22.726 5.75498 22.726 8.74304C22.834 15.3024 23.6381 21.8537 23.7087 28.3994C23.8541 34.5125 22.0222 40.252 19.7931 45.8542C19.0501 47.4012 18.2481 48.9147 17.4443 50.4321L15.0855 49.9564C12.9566 49.5319 11.573 47.462 11.9994 45.3332C12.3709 43.4716 14.0102 42.1685 15.8382 42.1685L16.6993 42.2608L14.7789 26.2213C14.152 19.0861 10.4683 12.8157 5.04899 8.74692C4.11732 8.04702 3.12866 7.40638 2.10059 6.84209V63.7862H15.2466C16.2293 69.113 19.1659 73.7714 23.2939 76.9559C24.2748 77.6321 25.0985 78.5245 25.6901 79.5663C26.2797 78.5245 27.1033 77.6321 28.0863 76.9559C32.2141 73.7636 35.1507 69.115 36.1336 63.7862H49.2796V6.84209C48.2516 7.40638 47.2629 8.04702 46.3312 8.74692C40.9062 12.8216 37.2303 19.0861 36.6013 26.2213L34.681 42.2608L35.542 42.1685C37.37 42.1762 39.0093 43.4698 39.3808 45.3332C39.8054 47.462 38.4216 49.5298 36.2948 49.9564L33.9359 50.4321C33.1319 48.9167 32.3281 47.4032 31.5872 45.8542C29.3562 40.2561 27.5243 34.5166 27.6697 28.3994C27.7403 21.8341 28.5444 15.2887 28.6524 8.74304C28.6524 5.75544 27.5361 3.04269 25.704 0.955078H25.6739H25.6744ZM6.01804 15.0487C8.56146 18.0345 10.2696 21.7516 10.7749 25.8459L12.3472 39.0744C10.3323 40.077 8.80897 41.9169 8.23123 44.144H6.00414V15.0528L6.01804 15.0487ZM45.3305 15.0487V44.1399H43.1034C42.5293 41.9146 41.0021 40.0749 38.9874 39.0703L40.5598 25.8418C41.0689 21.7514 42.777 18.0304 45.3166 15.0428L45.3303 15.0487H45.3305ZM25.6742 41.6436C26.7298 45.0973 28.1823 48.3857 29.9886 51.4285C28.2707 51.9492 26.777 52.9637 25.6742 54.3297C24.5716 52.9637 23.0774 51.9513 21.3597 51.4267C23.1661 48.378 24.6187 45.0975 25.6742 41.6438V41.6436ZM6.01782 48.0792H8.2449C8.94662 50.7935 11.0657 52.9361 13.7488 53.6852L15.6379 54.1155C15.1329 55.9474 14.8555 57.8698 14.8555 59.8746H6.01006V48.081L6.01782 48.0792ZM43.1091 48.0792H45.3362V59.8728H36.4908C36.4908 57.8798 36.2134 55.9476 35.7084 54.1137L37.5975 53.6834C40.2904 52.9345 42.4074 50.7899 43.1014 48.0774L43.1091 48.0792ZM19.4824 55.0178C21.8665 55.3539 23.7046 57.3962 23.7046 59.871H18.7907C18.7907 58.1865 19.0405 56.5609 19.4827 55.0178H19.4824ZM31.86 55.0178C32.3021 56.5607 32.5519 58.1824 32.5519 59.871H27.638C27.638 57.3923 29.4758 55.3539 31.8602 55.0178H31.86ZM19.2406 63.8039H23.7085V72.0792C21.5461 69.8088 19.9738 66.9686 19.2406 63.8039ZM27.6398 63.8039H32.1077C31.3843 66.9686 29.8079 69.8129 27.6398 72.0792V63.8039Z" fill="white"/>
<path d="M78.7066 50.5346C77.261 50.5346 75.9828 50.276 74.872 49.7586C73.7764 49.226 72.9166 48.4347 72.2927 47.3848C71.6688 46.3348 71.3569 45.0262 71.3569 43.4588V31.7723H74.8035V43.0251C74.8035 44.3794 75.1459 45.437 75.8306 46.1978C76.5154 46.9435 77.5121 47.3163 78.8207 47.3163C80.175 47.3163 81.1793 46.9206 81.8337 46.1294C82.488 45.3229 82.8152 44.2957 82.8152 43.048V31.7723H86.1933V43.5045C86.1933 44.9957 85.889 46.2663 85.2803 47.3163C84.6716 48.3662 83.8042 49.1651 82.6782 49.7129C81.5674 50.2607 80.2435 50.5346 78.7066 50.5346ZM90.0971 50.2607V31.0875H93.4068V41.8611H93.4981L98.5653 36.5656H102.514L97.1501 42.135L102.993 50.2607H99.0903L94.8219 44.2577L93.4068 45.5131V50.2607H90.0971Z" fill="white"/>
<path d="M104.864 50.2607V36.5656H108.037V38.9851H108.128C108.433 38.209 108.904 37.5927 109.544 37.1362C110.183 36.6645 110.951 36.4286 111.849 36.4286H112.944V39.3503H111.689C110.502 39.3503 109.62 39.7079 109.041 40.4231C108.463 41.1383 108.174 42.0893 108.174 43.2762V50.2607H104.864ZM118.681 50.5118C117.297 50.5118 116.178 50.1238 115.326 49.3477C114.489 48.5717 114.071 47.5521 114.071 46.2891C114.071 44.9653 114.512 43.9381 115.395 43.2077C116.292 42.4773 117.548 42.1121 119.161 42.1121H122.676V41.5187C122.676 40.7274 122.448 40.1111 121.991 39.6698C121.55 39.2285 120.934 39.0079 120.142 39.0079C119.473 39.0079 118.917 39.1601 118.476 39.4644C118.035 39.7687 117.746 40.21 117.609 40.7883H114.253C114.512 39.3579 115.159 38.2547 116.193 37.4786C117.228 36.6873 118.544 36.2917 120.142 36.2917C121.938 36.2917 123.33 36.7558 124.319 37.684C125.324 38.6123 125.826 39.9209 125.826 41.61V50.2607H122.744V48.2065H122.653C122.288 48.9369 121.755 49.5075 121.055 49.9184C120.371 50.314 119.579 50.5118 118.681 50.5118ZM119.389 47.8869C120.013 47.8869 120.568 47.75 121.055 47.4761C121.557 47.2022 121.953 46.8293 122.242 46.3576C122.531 45.8707 122.676 45.3229 122.676 44.7142V44.4175H119.321C118.651 44.4175 118.126 44.5696 117.746 44.874C117.38 45.1783 117.198 45.5968 117.198 46.1294C117.198 46.6772 117.396 47.1109 117.791 47.4304C118.187 47.7347 118.719 47.8869 119.389 47.8869ZM129.424 50.2607V36.5656H132.734V50.2607H129.424ZM131.067 35.0591C130.535 35.0591 130.078 34.8765 129.698 34.5113C129.333 34.1309 129.15 33.6744 129.15 33.1418C129.15 32.6092 129.333 32.1603 129.698 31.7951C130.078 31.4147 130.535 31.2245 131.067 31.2245C131.6 31.2245 132.049 31.4147 132.414 31.7951C132.794 32.1603 132.985 32.6092 132.985 33.1418C132.985 33.6744 132.794 34.1309 132.414 34.5113C132.049 34.8765 131.6 35.0591 131.067 35.0591ZM136.413 50.2607V36.5656H139.631V38.6427H139.723C140.118 37.8971 140.666 37.3264 141.366 36.9308C142.081 36.5199 142.903 36.3145 143.831 36.3145C144.836 36.3145 145.711 36.558 146.456 37.0449C147.217 37.5319 147.811 38.2014 148.237 39.0535C148.663 39.9057 148.876 40.8872 148.876 41.998V50.2607H145.566V42.6371C145.566 41.6024 145.307 40.7959 144.79 40.2176C144.273 39.6242 143.557 39.3274 142.644 39.3274C141.747 39.3274 141.031 39.6242 140.499 40.2176C139.981 40.7959 139.723 41.6024 139.723 42.6371V50.2607H136.413ZM156.156 50.5118C154.771 50.5118 153.653 50.1238 152.801 49.3477C151.964 48.5717 151.545 47.5521 151.545 46.2891C151.545 44.9653 151.986 43.9381 152.869 43.2077C153.767 42.4773 155.022 42.1121 156.635 42.1121H160.15V41.5187C160.15 40.7274 159.922 40.1111 159.466 39.6698C159.024 39.2285 158.408 39.0079 157.617 39.0079C156.947 39.0079 156.392 39.1601 155.95 39.4644C155.509 39.7687 155.22 40.21 155.083 40.7883H151.728C151.986 39.3579 152.633 38.2547 153.668 37.4786C154.703 36.6873 156.019 36.2917 157.617 36.2917C159.412 36.2917 160.805 36.7558 161.794 37.684C162.798 38.6123 163.3 39.9209 163.3 41.61V50.2607H160.219V48.2065H160.127C159.762 48.9369 159.23 49.5075 158.53 49.9184C157.845 50.314 157.054 50.5118 156.156 50.5118ZM156.863 47.8869C157.487 47.8869 158.043 47.75 158.53 47.4761C159.032 47.2022 159.427 46.8293 159.717 46.3576C160.006 45.8707 160.15 45.3229 160.15 44.7142V44.4175H156.795C156.125 44.4175 155.6 44.5696 155.22 44.874C154.855 45.1783 154.672 45.5968 154.672 46.1294C154.672 46.6772 154.87 47.1109 155.266 47.4304C155.661 47.7347 156.194 47.8869 156.863 47.8869ZM172.057 50.5346C170.337 50.5346 168.937 50.1086 167.857 49.2564C166.777 48.4043 166.198 47.2554 166.122 45.8098H169.318C169.424 46.4946 169.721 47.0196 170.208 47.3848C170.71 47.7347 171.372 47.9097 172.194 47.9097C172.879 47.9097 173.404 47.7804 173.769 47.5217C174.149 47.2478 174.339 46.8598 174.339 46.3576C174.339 45.5968 173.822 45.1022 172.787 44.874L170.299 44.349C167.789 43.8012 166.533 42.5458 166.533 40.5828C166.533 39.2894 167.02 38.2547 167.994 37.4786C168.968 36.6873 170.238 36.2917 171.806 36.2917C173.373 36.2917 174.659 36.6949 175.663 37.5014C176.668 38.3079 177.215 39.4035 177.307 40.7883H174.111C173.989 40.1492 173.715 39.6622 173.289 39.3274C172.863 38.9927 172.308 38.8253 171.623 38.8253C171.015 38.8253 170.528 38.9546 170.162 39.2133C169.797 39.4568 169.615 39.8144 169.615 40.2861C169.615 40.6209 169.736 40.9024 169.98 41.1306C170.223 41.3437 170.588 41.5035 171.075 41.61L173.632 42.1578C174.895 42.4317 175.846 42.8882 176.485 43.5273C177.124 44.1512 177.444 45.0033 177.444 46.0837C177.444 47.4532 176.957 48.5412 175.983 49.3477C175.024 50.139 173.715 50.5346 172.057 50.5346ZM185.064 50.2607L192.186 31.7723H195.724L202.754 50.2607H199.216L197.504 45.4218H190.314L188.488 50.2607H185.064ZM191.341 42.5002H196.523L194.035 35.5385H193.943L191.341 42.5002ZM204.728 50.2607V36.5656H207.901V38.6427H207.992C208.358 37.8666 208.875 37.2884 209.544 36.908C210.214 36.5123 210.99 36.3145 211.873 36.3145C212.755 36.3145 213.546 36.5199 214.246 36.9308C214.946 37.3417 215.502 37.9351 215.913 38.7112H215.981C216.453 37.9351 217.054 37.3417 217.784 36.9308C218.53 36.5199 219.359 36.3145 220.272 36.3145C221.307 36.3145 222.212 36.5504 222.989 37.0221C223.765 37.4938 224.366 38.1558 224.792 39.0079C225.233 39.8448 225.454 40.8263 225.454 41.9524V50.2607H222.144V42.5686C222.144 41.5491 221.901 40.7578 221.414 40.1948C220.942 39.6166 220.288 39.3274 219.451 39.3274C218.629 39.3274 217.975 39.6166 217.488 40.1948C217.001 40.7578 216.757 41.5491 216.757 42.5686V50.2607H213.448V42.5686C213.448 41.5491 213.204 40.7578 212.717 40.1948C212.23 39.6166 211.561 39.3274 210.709 39.3274C209.872 39.3274 209.217 39.6166 208.746 40.1948C208.274 40.7578 208.038 41.5491 208.038 42.5686V50.2607H204.728ZM236.32 50.5346C234.448 50.5346 233.117 49.7586 232.325 48.2065H232.234V50.2607H229.016V31.0875H232.325V38.5514H232.417C233.178 37.0449 234.479 36.2917 236.32 36.2917C237.461 36.2917 238.458 36.5884 239.31 37.1819C240.162 37.7753 240.824 38.6123 241.296 39.6927C241.768 40.7578 242.003 41.998 242.003 43.4132C242.003 44.8131 241.768 46.0533 241.296 47.1337C240.824 48.1989 240.162 49.0358 239.31 49.6445C238.458 50.2379 237.461 50.5346 236.32 50.5346ZM235.407 47.5902C236.426 47.5902 237.225 47.2174 237.804 46.4718C238.397 45.7109 238.694 44.6914 238.694 43.4132C238.694 42.135 238.397 41.123 237.804 40.3774C237.225 39.6166 236.426 39.2361 235.407 39.2361C234.448 39.2361 233.695 39.5481 233.147 40.172C232.599 40.7959 232.325 41.6328 232.325 42.6828V44.1436C232.325 45.1935 232.599 46.0305 233.147 46.6544C233.695 47.2782 234.448 47.5902 235.407 47.5902ZM248.625 50.5118C247.24 50.5118 246.122 50.1238 245.27 49.3477C244.433 48.5717 244.014 47.5521 244.014 46.2891C244.014 44.9653 244.455 43.9381 245.338 43.2077C246.236 42.4773 247.491 42.1121 249.104 42.1121H252.619V41.5187C252.619 40.7274 252.391 40.1111 251.935 39.6698C251.493 39.2285 250.877 39.0079 250.086 39.0079C249.416 39.0079 248.861 39.1601 248.419 39.4644C247.978 39.7687 247.689 40.21 247.552 40.7883H244.197C244.455 39.3579 245.102 38.2547 246.137 37.4786C247.172 36.6873 248.488 36.2917 250.086 36.2917C251.881 36.2917 253.274 36.7558 254.263 37.684C255.267 38.6123 255.769 39.9209 255.769 41.61V50.2607H252.688V48.2065H252.596C252.231 48.9369 251.699 49.5075 250.999 49.9184C250.314 50.314 249.523 50.5118 248.625 50.5118ZM249.332 47.8869C249.956 47.8869 250.512 47.75 250.999 47.4761C251.501 47.2022 251.896 46.8293 252.186 46.3576C252.475 45.8707 252.619 45.3229 252.619 44.7142V44.4175H249.264C248.594 44.4175 248.069 44.5696 247.689 44.874C247.324 45.1783 247.141 45.5968 247.141 46.1294C247.141 46.6772 247.339 47.1109 247.735 47.4304C248.13 47.7347 248.663 47.8869 249.332 47.8869ZM264.526 50.5346C262.806 50.5346 261.406 50.1086 260.326 49.2564C259.246 48.4043 258.667 47.2554 258.591 45.8098H261.787C261.893 46.4946 262.19 47.0196 262.677 47.3848C263.179 47.7347 263.841 47.9097 264.663 47.9097C265.348 47.9097 265.873 47.7804 266.238 47.5217C266.618 47.2478 266.808 46.8598 266.808 46.3576C266.808 45.5968 266.291 45.1022 265.256 44.874L262.768 44.349C260.258 43.8012 259.002 42.5458 259.002 40.5828C259.002 39.2894 259.489 38.2547 260.463 37.4786C261.437 36.6873 262.707 36.2917 264.275 36.2917C265.842 36.2917 267.128 36.6949 268.132 37.5014C269.137 38.3079 269.684 39.4035 269.776 40.7883H266.58C266.458 40.1492 266.184 39.6622 265.758 39.3274C265.332 38.9927 264.777 38.8253 264.092 38.8253C263.483 38.8253 262.997 38.9546 262.631 39.2133C262.266 39.4568 262.084 39.8144 262.084 40.2861C262.084 40.6209 262.205 40.9024 262.449 41.1306C262.692 41.3437 263.057 41.5035 263.544 41.61L266.101 42.1578C267.364 42.4317 268.315 42.8882 268.954 43.5273C269.593 44.1512 269.913 45.0033 269.913 46.0837C269.913 47.4532 269.426 48.5412 268.452 49.3477C267.493 50.139 266.184 50.5346 264.526 50.5346ZM277.847 50.5346C276.127 50.5346 274.727 50.1086 273.647 49.2564C272.566 48.4043 271.988 47.2554 271.912 45.8098H275.107C275.214 46.4946 275.511 47.0196 275.998 47.3848C276.5 47.7347 277.162 47.9097 277.983 47.9097C278.668 47.9097 279.193 47.7804 279.558 47.5217C279.939 47.2478 280.129 46.8598 280.129 46.3576C280.129 45.5968 279.612 45.1022 278.577 44.874L276.089 44.349C273.578 43.8012 272.323 42.5458 272.323 40.5828C272.323 39.2894 272.81 38.2547 273.784 37.4786C274.758 36.6873 276.028 36.2917 277.595 36.2917C279.163 36.2917 280.449 36.6949 281.453 37.5014C282.457 38.3079 283.005 39.4035 283.096 40.7883H279.901C279.779 40.1492 279.505 39.6622 279.079 39.3274C278.653 38.9927 278.098 38.8253 277.413 38.8253C276.804 38.8253 276.317 38.9546 275.952 39.2133C275.587 39.4568 275.404 39.8144 275.404 40.2861C275.404 40.6209 275.526 40.9024 275.769 41.1306C276.013 41.3437 276.378 41.5035 276.865 41.61L279.421 42.1578C280.684 42.4317 281.636 42.8882 282.275 43.5273C282.914 44.1512 283.233 45.0033 283.233 46.0837C283.233 47.4532 282.746 48.5412 281.772 49.3477C280.814 50.139 279.505 50.5346 277.847 50.5346ZM289.684 50.5118C288.299 50.5118 287.18 50.1238 286.328 49.3477C285.491 48.5717 285.073 47.5521 285.073 46.2891C285.073 44.9653 285.514 43.9381 286.397 43.2077C287.295 42.4773 288.55 42.1121 290.163 42.1121H293.678V41.5187C293.678 40.7274 293.45 40.1111 292.993 39.6698C292.552 39.2285 291.936 39.0079 291.144 39.0079C290.475 39.0079 289.919 39.1601 289.478 39.4644C289.037 39.7687 288.748 40.21 288.611 40.7883H285.255C285.514 39.3579 286.161 38.2547 287.196 37.4786C288.23 36.6873 289.547 36.2917 291.144 36.2917C292.94 36.2917 294.332 36.7558 295.321 37.684C296.326 38.6123 296.828 39.9209 296.828 41.61V50.2607H293.746V48.2065H293.655C293.29 48.9369 292.757 49.5075 292.057 49.9184C291.373 50.314 290.581 50.5118 289.684 50.5118ZM290.391 47.8869C291.015 47.8869 291.57 47.75 292.057 47.4761C292.56 47.2022 292.955 46.8293 293.244 46.3576C293.533 45.8707 293.678 45.3229 293.678 44.7142V44.4175H290.323C289.653 44.4175 289.128 44.5696 288.748 44.874C288.383 45.1783 288.2 45.5968 288.2 46.1294C288.2 46.6772 288.398 47.1109 288.793 47.4304C289.189 47.7347 289.722 47.8869 290.391 47.8869ZM305.311 50.5346C304.185 50.5346 303.188 50.2379 302.321 49.6445C301.468 49.0358 300.806 48.1989 300.335 47.1337C299.863 46.0533 299.627 44.8131 299.627 43.4132C299.627 41.998 299.863 40.7578 300.335 39.6927C300.806 38.6123 301.468 37.7753 302.321 37.1819C303.188 36.5884 304.185 36.2917 305.311 36.2917C307.152 36.2917 308.453 37.0449 309.214 38.5514H309.305V31.0875H312.615V50.2607H309.396V48.2065H309.305C308.514 49.7586 307.182 50.5346 305.311 50.5346ZM306.224 47.5902C307.198 47.5902 307.951 47.2782 308.483 46.6544C309.031 46.0305 309.305 45.1935 309.305 44.1436V42.6828C309.305 41.6328 309.031 40.7959 308.483 40.172C307.951 39.5481 307.198 39.2361 306.224 39.2361C305.219 39.2361 304.42 39.6166 303.827 40.3774C303.234 41.123 302.937 42.135 302.937 43.4132C302.937 44.6914 303.234 45.7109 303.827 46.4718C304.42 47.2174 305.219 47.5902 306.224 47.5902ZM322.135 50.5346C320.857 50.5346 319.716 50.2455 318.711 49.6673C317.722 49.0738 316.938 48.2445 316.36 47.1793C315.797 46.0989 315.516 44.8283 315.516 43.3675C315.516 41.9219 315.79 40.6741 316.337 39.6242C316.9 38.559 317.669 37.7373 318.643 37.1591C319.617 36.5808 320.735 36.2917 321.998 36.2917C323.185 36.2917 324.243 36.558 325.171 37.0906C326.099 37.6079 326.837 38.3688 327.385 39.3731C327.933 40.3774 328.206 41.5871 328.206 43.0023V44.2121H318.757C318.879 45.3381 319.236 46.2207 319.83 46.8598C320.438 47.4837 321.199 47.7956 322.112 47.7956C322.812 47.7956 323.39 47.6282 323.847 47.2935C324.319 46.9587 324.638 46.5022 324.806 45.9239H328.184C328.001 46.8826 327.621 47.7119 327.042 48.4119C326.479 49.0967 325.772 49.6216 324.92 49.9868C324.083 50.352 323.155 50.5346 322.135 50.5346ZM318.848 41.9067H324.965C324.859 40.9633 324.532 40.2481 323.984 39.7611C323.451 39.259 322.789 39.0079 321.998 39.0079C321.207 39.0079 320.53 39.259 319.967 39.7611C319.419 40.2633 319.046 40.9785 318.848 41.9067ZM337.74 50.2607V36.5656H341.05V50.2607H337.74ZM339.383 35.0591C338.851 35.0591 338.394 34.8765 338.014 34.5113C337.649 34.1309 337.466 33.6744 337.466 33.1418C337.466 32.6092 337.649 32.1603 338.014 31.7951C338.394 31.4147 338.851 31.2245 339.383 31.2245C339.916 31.2245 340.365 31.4147 340.73 31.7951C341.11 32.1603 341.301 32.6092 341.301 33.1418C341.301 33.6744 341.11 34.1309 340.73 34.5113C340.365 34.8765 339.916 35.0591 339.383 35.0591ZM367.447 50.2607H363.795L355.007 37.1134H354.916V50.2607H351.743V31.7723H355.258L364.183 45.1479H364.274V31.7723H367.447V50.2607ZM377.466 50.5346C376.187 50.5346 375.046 50.2455 374.042 49.6673C373.037 49.0738 372.239 48.2445 371.645 47.1793C371.067 46.1142 370.778 44.8588 370.778 43.4132C370.778 41.9524 371.067 40.6894 371.645 39.6242C372.239 38.559 373.037 37.7373 374.042 37.1591C375.046 36.5808 376.187 36.2917 377.466 36.2917C378.774 36.2917 379.931 36.5808 380.935 37.1591C381.939 37.7373 382.723 38.559 383.286 39.6242C383.864 40.6894 384.153 41.9524 384.153 43.4132C384.153 44.8588 383.864 46.1218 383.286 47.2022C382.708 48.2673 381.916 49.089 380.912 49.6673C379.908 50.2455 378.759 50.5346 377.466 50.5346ZM377.466 47.5674C378.485 47.5674 379.299 47.1946 379.908 46.4489C380.532 45.6881 380.844 44.6762 380.844 43.4132C380.844 42.135 380.532 41.123 379.908 40.3774C379.299 39.6318 378.485 39.259 377.466 39.259C376.476 39.259 375.662 39.6318 375.023 40.3774C374.399 41.123 374.087 42.135 374.087 43.4132C374.087 44.6762 374.399 45.6881 375.023 46.4489C375.662 47.1946 376.476 47.5674 377.466 47.5674ZM387.273 50.2607V36.5656H390.446V38.9851H390.537C390.842 38.209 391.313 37.5927 391.952 37.1362C392.592 36.6645 393.36 36.4286 394.258 36.4286H395.353V39.3503H394.098C392.911 39.3503 392.028 39.7079 391.45 40.4231C390.872 41.1383 390.583 42.0893 390.583 43.2762V50.2607H387.273Z" fill="white"/>
<path d="M402.986 56.0127C401.206 56.0127 399.722 55.5866 398.535 54.7345C397.348 53.8976 396.656 52.7791 396.458 51.3792H399.95C400.103 51.9726 400.437 52.4367 400.955 52.7715C401.487 53.1063 402.142 53.2737 402.918 53.2737C403.952 53.2737 404.774 52.9693 405.383 52.3607C405.992 51.752 406.296 50.9303 406.296 49.8955V47.9326H406.205C405.824 48.6934 405.299 49.2716 404.63 49.6673C403.975 50.0629 403.207 50.2607 402.324 50.2607C401.183 50.2607 400.171 49.964 399.288 49.3706C398.421 48.7771 397.744 47.9554 397.257 46.9054C396.77 45.8555 396.527 44.6457 396.527 43.2762C396.527 41.8915 396.77 40.6817 397.257 39.647C397.744 38.597 398.421 37.7753 399.288 37.1819C400.171 36.5884 401.183 36.2917 402.324 36.2917C403.222 36.2917 404.006 36.4895 404.675 36.8851C405.345 37.2808 405.855 37.8514 406.205 38.597H406.296V36.5656H409.514V49.9412C409.514 51.8281 408.936 53.3117 407.779 54.3921C406.623 55.4725 405.025 56.0127 402.986 56.0127ZM403.169 47.2935C404.112 47.2935 404.85 46.9891 405.383 46.3805C405.931 45.7566 406.205 44.9196 406.205 43.8697V42.6371C406.205 41.6176 405.931 40.8035 405.383 40.1948C404.835 39.5709 404.097 39.259 403.169 39.259C402.149 39.259 401.335 39.6242 400.726 40.3546C400.133 41.0698 399.836 42.0437 399.836 43.2762C399.836 44.5088 400.133 45.4903 400.726 46.2207C401.335 46.9359 402.149 47.2935 403.169 47.2935ZM419.031 50.5346C417.753 50.5346 416.612 50.2455 415.607 49.6673C414.618 49.0738 413.835 48.2445 413.256 47.1793C412.693 46.0989 412.412 44.8283 412.412 43.3675C412.412 41.9219 412.686 40.6741 413.234 39.6242C413.797 38.559 414.565 37.7373 415.539 37.1591C416.513 36.5808 417.631 36.2917 418.894 36.2917C420.081 36.2917 421.139 36.558 422.067 37.0906C422.995 37.6079 423.733 38.3688 424.281 39.3731C424.829 40.3774 425.103 41.5871 425.103 43.0023V44.2121H415.653C415.775 45.3381 416.132 46.2207 416.726 46.8598C417.335 47.4837 418.095 47.7956 419.008 47.7956C419.708 47.7956 420.287 47.6282 420.743 47.2935C421.215 46.9587 421.534 46.5022 421.702 45.9239H425.08C424.897 46.8826 424.517 47.7119 423.939 48.4119C423.376 49.0967 422.668 49.6216 421.816 49.9868C420.979 50.352 420.051 50.5346 419.031 50.5346ZM415.744 41.9067H421.862C421.755 40.9633 421.428 40.2481 420.88 39.7611C420.348 39.259 419.686 39.0079 418.894 39.0079C418.103 39.0079 417.426 39.259 416.863 39.7611C416.315 40.2633 415.942 40.9785 415.744 41.9067Z" fill="white"/>
</svg>
