<svg width="241" height="91" viewBox="0 0 241 91" fill="none" xmlns="http://www.w3.org/2000/svg">
<mask id="mask0_263_302" style="mask-type:luminance" maskUnits="userSpaceOnUse" x="0" y="4" width="241" height="87">
<path d="M240.364 4H0V90.9764H240.364V4Z" fill="white"/>
</mask>
<g mask="url(#mask0_263_302)">
<path d="M220.763 57.0739V56.8555C220.76 56.7954 220.758 56.7353 220.758 56.675C220.758 54.9708 222.16 53.5684 223.864 53.5684C223.953 53.5684 224.043 53.5723 224.132 53.5799C224.208 53.5737 224.285 53.5707 224.362 53.5707C225.932 53.5707 227.225 54.8632 227.225 56.4341C227.225 56.5017 227.223 56.5694 227.218 56.637V57.0739H220.763ZM224.255 66.9812C227.062 66.9812 229.585 65.9229 230.829 63.4312L227.904 61.7484C227.141 62.9419 225.857 63.706 224.444 63.8072C222.416 63.8072 220.764 62.6214 220.764 60.5969V59.7239H231.017V56.6358C231.017 52.3972 227.593 50.3738 224.131 50.3738C220.171 50.3738 216.809 52.8591 216.809 57.3534V60.4685C216.809 64.8335 220.329 66.9803 224.254 66.9803M199.446 66.6064H203.251V57.6611C203.251 54.951 204.468 53.672 206.557 53.672C208.49 53.672 209.519 54.9511 209.519 57.3493V66.6064H213.319V56.38C213.319 52.5785 211.324 50.3364 207.741 50.3364C205.951 50.2947 204.254 51.1482 203.22 52.6094H203.158V50.6523H199.451L199.446 66.6064ZM186.947 66.917C188.728 66.9592 190.416 66.1045 191.437 64.6439H191.532V66.6052H195.205V50.6573H191.406V59.5705C191.406 62.2826 190.222 63.5905 188.132 63.5905C186.198 63.5905 185.137 62.3136 185.137 59.9133V50.6541H181.34V60.8463C181.34 64.6148 183.363 66.9188 186.947 66.9188M153.789 66.6082H157.586V57.2259C157.586 54.5781 159.333 53.6718 160.674 53.6718C162.983 53.6718 163.574 55.3545 163.574 57.3802V66.6061H167.373V57.4155C167.373 55.3257 168.276 53.6741 170.428 53.6741C172.58 53.6741 173.328 55.1716 173.328 57.3213V66.6093H177.125V55.9472C177.137 55.8069 177.142 55.6661 177.142 55.5253C177.142 52.6729 174.795 50.3258 171.943 50.3258C171.812 50.3258 171.681 50.3309 171.55 50.3407C169.625 50.2933 167.789 51.1745 166.623 52.7071H166.592C165.624 51.1484 163.876 50.239 162.044 50.3407C160.261 50.3009 158.569 51.1399 157.522 52.5829H157.46V50.6525H153.787L153.789 66.6086L153.789 66.6082ZM126.081 66.6082H129.88V57.2259C129.88 54.5781 131.627 53.6718 132.969 53.6718C135.277 53.6718 135.868 55.3545 135.868 57.3802V66.6061H139.667V57.4155C139.667 55.3257 140.57 53.6741 142.724 53.6741C144.878 53.6741 145.623 55.1716 145.623 57.3213V66.6093H149.421V55.9472C149.432 55.8069 149.438 55.6661 149.438 55.5253C149.438 52.6729 147.091 50.3258 144.238 50.3258C144.107 50.3258 143.976 50.3309 143.845 50.3407C141.921 50.294 140.086 51.1752 138.92 52.7071H138.887C137.919 51.1484 136.171 50.239 134.339 50.3407C132.557 50.3009 130.865 51.1399 129.818 52.5829H129.756V50.6525H126.083L126.081 66.6086L126.081 66.6082ZM115.235 63.7748C113.268 63.7748 111.775 62.6221 111.775 60.6868V56.7599C111.773 56.7195 111.772 56.6792 111.772 56.6388C111.772 54.9692 113.146 53.5952 114.816 53.5952C114.914 53.5952 115.012 53.6001 115.11 53.6095C117.078 53.6095 118.571 54.7321 118.571 56.6645V60.6256C118.573 60.6659 118.573 60.7063 118.573 60.7466C118.573 62.4163 117.199 63.7902 115.53 63.7902C115.431 63.7902 115.333 63.7854 115.235 63.776M115.235 66.9862C118.756 66.9862 122.432 64.6199 122.432 60.2892V57.0095C122.432 52.9251 118.977 50.3735 115.109 50.3735C111.588 50.3735 107.913 52.7399 107.913 57.0705V60.7198C107.913 64.8019 111.367 66.9798 115.235 66.9798M91.6772 66.6059H95.4849V61.5575L97.5748 59.3133L101.844 66.6047H106.114L100.162 56.6634L105.865 50.6489H101.345L95.5161 57.2248L95.4849 44.3838H91.6772V66.6061V66.6059Z" fill="white"/>
<path d="M233.359 30.3681C231.391 30.3681 229.896 29.2154 229.896 27.2821V23.7612C229.894 23.7216 229.893 23.6819 229.893 23.6425C229.893 21.9717 231.268 20.5968 232.939 20.5968C233.037 20.5968 233.136 20.6017 233.233 20.6111C235.201 20.6111 236.694 21.7337 236.694 23.6661V27.2223C236.696 27.2613 236.697 27.3002 236.697 27.339C236.697 29.0087 235.323 30.3826 233.653 30.3826C233.555 30.3826 233.457 30.3778 233.359 30.3684M232.764 39.7476C238.282 39.7476 240.367 35.9791 240.367 32.2686V17.6516H236.755V19.5478H236.691C235.658 18.1594 234.026 17.3389 232.295 17.3368C228.774 17.3368 226.033 19.7353 226.033 24.068V27.123C226.033 31.2074 228.492 33.3851 232.357 33.3851C234.038 33.4466 235.644 32.663 236.629 31.2996H236.691V32.9803C236.704 33.0997 236.71 33.2198 236.71 33.3402C236.71 35.1843 235.193 36.7017 233.349 36.7017C233.268 36.7017 233.187 36.6988 233.106 36.693C231.711 36.7201 230.434 35.8881 229.895 34.6011L226.283 35.8801C227.094 38.498 230.178 39.7437 232.764 39.7437M215.904 30.7716C213.936 30.7716 212.443 29.6189 212.443 27.6836V23.7599C212.441 23.7202 212.441 23.6805 212.441 23.6411C212.441 21.9703 213.816 20.5955 215.486 20.5955C215.585 20.5955 215.683 20.6003 215.781 20.6097C217.748 20.6097 219.242 21.7323 219.242 23.6647V27.6258C219.243 27.6654 219.244 27.7051 219.244 27.7445C219.244 29.4153 217.869 30.7902 216.198 30.7902C216.1 30.7902 216.002 30.7854 215.904 30.776M215.904 33.9862C219.425 33.9862 223.102 31.6199 223.102 27.2892V24.0095C223.102 19.9251 219.645 17.3735 215.78 17.3735C212.259 17.3735 208.581 19.7399 208.581 24.0705V27.7198C208.581 31.8019 212.038 33.9798 215.904 33.9798M192.346 33.6059H196.155V28.5575L198.243 26.3133L202.513 33.6047H206.782L200.83 23.6634L206.533 17.6489H202.012L196.185 24.2248L196.153 11.3838H192.344L192.346 33.6061V33.6059ZM181.808 33.9486C185.081 33.9486 188.85 32.2058 188.85 28.5295C188.85 26.129 187.296 24.6005 184.584 24.0703L182.181 23.6021C180.525 23.2915 179.158 23.1361 179.158 22.0116C179.158 20.7968 180.249 20.2355 181.747 20.2355C183.112 20.1519 184.438 20.7335 185.301 21.7952L188.042 19.924C186.701 18.0248 184.646 17.3082 181.778 17.3082C178.378 17.3082 175.453 19.2073 175.453 22.5409C175.453 24.9414 177.196 26.2202 179.812 26.6895L181.902 27.0634C184.055 27.4373 184.897 27.7189 184.897 28.9646C184.897 30.3979 183.307 30.9323 181.747 30.9323C180.036 30.9676 178.405 30.193 177.351 28.8445L174.674 30.87C176.263 33.2052 178.94 33.9518 181.809 33.9518M157.626 33.6091H161.424V24.6608C161.424 21.9508 162.641 20.6718 164.73 20.6718C166.663 20.6718 167.692 21.9508 167.692 24.3491V33.6061H171.491V23.3798C171.491 19.5783 169.499 17.3362 165.914 17.3362C164.124 17.2944 162.427 18.1479 161.393 19.6092H161.33V17.6521H157.626L157.626 33.6091ZM143.627 24.0735V23.855C143.623 23.7965 143.621 23.7379 143.621 23.6792C143.621 21.9749 145.024 20.5725 146.728 20.5725C146.816 20.5725 146.904 20.5762 146.992 20.5838C147.069 20.5776 147.146 20.5744 147.223 20.5744C148.794 20.5744 150.087 21.8674 150.087 23.4387C150.087 23.5061 150.085 23.5735 150.08 23.6407V24.0776L143.626 24.0735H143.627ZM147.119 33.9807C149.926 33.9807 152.447 32.9225 153.692 30.4307L150.766 28.748C150.003 29.9413 148.719 30.7054 147.307 30.8067C145.279 30.8067 143.628 29.621 143.628 27.5964V26.7234H153.88V23.6354C153.88 19.3967 150.454 17.3733 146.993 17.3733C143.035 17.3733 139.67 19.8586 139.67 24.3529V27.4681C139.67 31.8331 143.191 33.9798 147.118 33.9798M127.235 33.6059H131.034V25.4403C131.034 22.4806 133.185 20.8279 136.053 20.8279C136.532 20.8117 137.012 20.8428 137.486 20.9212V17.4354C137.064 17.3566 136.636 17.3247 136.207 17.3401C134.098 17.4251 132.156 18.5287 131.003 20.2977H130.941V17.6518H127.237L127.235 33.6059H127.235ZM116.547 30.7746C116.126 30.7732 115.707 30.7207 115.299 30.6182L119.573 22.2621C119.776 22.7016 119.882 23.1801 119.883 23.6643V27.6253C119.885 27.6645 119.886 27.7037 119.886 27.7429C119.886 29.4137 118.511 30.7886 116.84 30.7886C116.742 30.7886 116.644 30.7838 116.547 30.7744M113.086 27.7008V23.7656C113.084 23.725 113.083 23.6844 113.083 23.6439C113.083 21.9719 114.459 20.5962 116.131 20.5962C116.229 20.5962 116.326 20.6007 116.423 20.6101C116.966 20.6049 117.506 20.7 118.014 20.8907L113.616 29.486C113.252 28.9646 113.066 28.3392 113.086 27.7037M112.555 35.9768L113.772 33.6084C114.678 33.8461 115.61 33.9718 116.547 33.9823C120.067 33.9823 123.745 31.616 123.745 27.2853V24.0088C123.761 22.0274 122.836 20.1516 121.253 18.9595L122.496 16.5322L120.689 15.6592L119.505 17.9634C118.523 17.5737 117.476 17.3735 116.419 17.3731C112.899 17.3731 109.221 19.7394 109.221 24.07V27.7193C109.168 29.767 110.198 31.698 111.929 32.7936L110.748 35.102L112.556 35.9771L112.555 35.9768ZM91.8335 33.6084H106.787V29.9633H95.9727V11.3872H91.8306L91.8335 33.6084Z" fill="white"/>
<path d="M33.9166 90.9757L-0.000488281 72.2318V3.99902H67.849V72.2277L33.9164 90.9757H33.9166ZM2.67858 70.6495L33.9166 87.9145L65.1681 70.6495V6.68016H2.67858V70.6495Z" fill="white" stroke="white" stroke-width="1.03623" stroke-miterlimit="2" stroke-linejoin="round"/>
<path d="M35.8476 49.0221C36.8726 48.722 37.8108 48.1801 38.5827 47.4419L44.9669 51.1294C42.7395 54.0208 39.4628 55.9241 35.8476 56.4263V49.0221ZM35.8144 36.1944V28.7902C39.4272 29.2842 42.7058 31.1758 44.9419 34.0561L38.5473 37.746C37.7741 37.0167 36.8366 36.4839 35.8144 36.1926M31.1729 42.6131L33.9265 39.8616L36.6759 42.6131L33.9265 45.3646L31.1729 42.6131ZM29.3701 47.446C30.1344 48.1755 31.0613 48.7129 32.0739 49.0139V56.4399C28.4494 55.9571 25.157 54.0648 22.9154 51.176L29.3701 47.4458V47.446ZM22.8966 34.0715C25.133 31.1827 28.417 29.2849 32.0365 28.7902V36.2182C31.0264 36.5218 30.1032 37.0624 29.3439 37.7944L22.8964 34.0715H22.8966ZM21.0087 37.3366L27.4727 41.0697C27.2313 42.0915 27.2334 43.1557 27.4789 44.1764L21.019 47.9045C19.6316 44.5202 19.6279 40.7226 21.0087 37.3354M46.8493 47.8589L40.4651 44.1754C40.7159 43.1333 40.7124 42.0459 40.4547 41.0055L46.8328 37.3262C48.2127 40.6995 48.2187 44.4824 46.8493 47.86M55.7066 42.617C55.7068 40.7171 55.4416 38.8265 54.9184 37L58.2323 39.0278L59.4801 36.9814L53.4459 33.2927C52.2614 31.0073 50.6699 28.9571 48.7496 27.2429L53.1901 27.3466L53.2481 24.9513L45.3778 24.7617C43.2931 23.5214 41.0192 22.6315 38.6466 22.1271L42.9846 19.7607L41.8339 17.6585L34.5228 21.6443C34.3249 21.6381 34.1271 21.636 33.9263 21.636C31.8499 21.6344 29.7834 21.9199 27.7852 22.4843L30.3348 18.3036L28.2884 17.0537L24.1295 23.875C22.08 24.8681 20.1992 26.1771 18.5561 27.7542L18.6597 23.3561L16.2686 23.3014L16.0916 30.5784C14.6762 32.5156 13.6102 34.6855 12.9414 36.9895L11.0774 33.572L8.97305 34.7182L12.236 40.6986C12.176 41.3292 12.1448 41.9714 12.1448 42.6165C12.1441 44.5159 12.41 46.4059 12.935 48.2314L9.61404 46.206L8.36621 48.2523L14.4098 51.9398C15.5937 54.2251 17.1854 56.2746 19.1061 57.9876L14.6657 57.8839L14.6118 60.271L22.4821 60.4605C24.5665 61.702 26.8405 62.5933 29.2132 63.0993L24.8774 65.4656L26.0236 67.5679L33.3307 63.5851C33.5264 63.5912 33.7264 63.5933 33.9272 63.5933C36.0035 63.5949 38.07 63.3095 40.0682 62.7451L37.5146 66.9278L39.5629 68.1756L43.7239 61.3544C45.773 60.3608 47.6533 59.0518 49.2964 57.4752L49.1928 61.8753L51.5818 61.928L51.7588 54.6531C53.1742 52.7159 54.2403 50.546 54.909 48.242L56.7731 51.6595L58.8774 50.5132L55.6206 44.5308C55.6786 43.9001 55.7119 43.258 55.7119 42.6128" fill="white"/>
<path d="M35.8144 36.1944V28.7902C39.4272 29.2842 42.7058 31.1758 44.9419 34.0561L38.5473 37.746C37.7741 37.0167 36.8366 36.4839 35.8144 36.1926M21.0087 37.3366L27.4727 41.0697C27.2313 42.0915 27.2334 43.1557 27.4789 44.1764L21.019 47.9045C19.6316 44.5202 19.6279 40.7226 21.0087 37.3354M46.8493 47.8589L40.4651 44.1754C40.7159 43.1333 40.7124 42.0459 40.4547 41.0055L46.8328 37.3262C48.2127 40.6995 48.2187 44.4824 46.8493 47.86M55.7066 42.617C55.7068 40.7171 55.4416 38.8265 54.9184 37L58.2323 39.0278L59.4801 36.9814L53.4459 33.2927C52.2614 31.0073 50.6699 28.9571 48.7496 27.2429L53.1901 27.3466L53.2481 24.9513L45.3778 24.7617C43.2931 23.5214 41.0192 22.6315 38.6466 22.1271L42.9846 19.7607L41.8339 17.6585L34.5228 21.6443C34.3249 21.6381 34.1271 21.636 33.9263 21.636C31.8499 21.6344 29.7834 21.9199 27.7852 22.4843L30.3348 18.3036L28.2884 17.0537L24.1295 23.875C22.08 24.8681 20.1992 26.1771 18.5561 27.7542L18.6597 23.3561L16.2686 23.3014L16.0916 30.5784C14.6762 32.5156 13.6102 34.6855 12.9414 36.9895L11.0774 33.572L8.97305 34.7182L12.236 40.6986C12.176 41.3292 12.1448 41.9714 12.1448 42.6165C12.1441 44.5159 12.41 46.4059 12.935 48.2314L9.61404 46.206L8.36621 48.2523L14.4098 51.9398C15.5937 54.2251 17.1854 56.2746 19.1061 57.9876L14.6657 57.8839L14.6118 60.271L22.4821 60.4605C24.5665 61.702 26.8405 62.5933 29.2132 63.0993L24.8774 65.4656L26.0236 67.5679L33.3307 63.5851C33.5264 63.5912 33.7264 63.5933 33.9272 63.5933C36.0035 63.5949 38.07 63.3095 40.0682 62.7451L37.5146 66.9278L39.5629 68.1756L43.7239 61.3544C45.773 60.3608 47.6533 59.0518 49.2964 57.4752L49.1928 61.8753L51.5818 61.928L51.7588 54.6531C53.1742 52.7159 54.2403 50.546 54.909 48.242L56.7731 51.6595L58.8774 50.5132L55.6206 44.5308C55.6786 43.9001 55.7119 43.258 55.7119 42.6128M35.8476 49.0221C36.8726 48.722 37.8108 48.1801 38.5827 47.4419L44.9669 51.1294C42.7395 54.0208 39.4628 55.9241 35.8476 56.4263V49.0221ZM31.1729 42.6131L33.9265 39.8616L36.6759 42.6131L33.9265 45.3646L31.1729 42.6131ZM29.3701 47.446C30.1344 48.1755 31.0613 48.7129 32.0739 49.0139V56.4399C28.4494 55.9571 25.157 54.0648 22.9154 51.176L29.3701 47.4458V47.446ZM22.8966 34.0715C25.133 31.1827 28.417 29.2849 32.0365 28.7902V36.2182C31.0264 36.5218 30.1032 37.0624 29.3439 37.7944L22.8964 34.0715H22.8966Z" stroke="white" stroke-width="1.03623" stroke-miterlimit="2" stroke-linejoin="round"/>
</g>
</svg>
