<svg width="237" height="160" viewBox="0 0 237 160" fill="none" xmlns="http://www.w3.org/2000/svg">
<g clip-path="url(#clip0_263_414)">
<path d="M30.822 61.0081C31.6588 60.9756 31.8604 61.0314 32.0193 61.3509C32.1247 61.5616 32.1457 61.8398 32.0672 61.97C31.9885 62.1004 31.4923 62.5966 30.9656 63.0716C30.4387 63.5468 29.19 64.7214 28.1883 65.6849C27.1885 66.6464 26.1539 67.5518 25.8894 67.6956C25.5255 67.8968 24.1995 67.9737 20.3338 68.014C16.8824 68.0504 15.0837 68.144 14.7156 68.3011C14.4168 68.4294 14.1276 68.7076 14.072 68.9183C14.0165 69.129 14.0315 69.5602 14.1043 69.8763C14.1772 70.1925 14.6164 71.01 15.0799 71.6956C15.5434 72.3814 16.4209 73.6731 17.032 74.5696C17.6413 75.4663 18.9109 77.3184 19.8513 78.6878C20.7919 80.0575 22.4218 82.4717 23.4754 84.0521C24.5266 85.6318 25.4368 86.9661 25.4969 87.0208C25.5582 87.0745 26.4676 88.3891 27.5193 89.9427C28.5729 91.4963 29.6695 93.1341 29.9568 93.5823C30.2441 94.0305 30.5673 94.59 30.6746 94.8275C30.7819 95.065 30.8699 95.5383 30.8699 95.8812C30.8697 96.4424 30.2981 97.0716 25.075 102.27C21.8877 105.442 19.0263 108.2 18.7136 108.4C18.1888 108.739 17.6177 108.769 10.6678 108.836C3.4965 108.905 3.1836 108.894 3.04373 108.549C2.95179 108.325 3.00726 108.026 3.18728 107.758C3.34614 107.521 3.54122 107.329 3.6199 107.33C3.69844 107.332 4.75405 106.333 5.96658 105.111C7.17907 103.887 8.51431 102.657 9.70193 101.867L16.1482 101.772C22.2572 101.682 22.6158 101.656 23.0027 101.292C23.2266 101.082 23.4067 100.737 23.4011 100.527C23.3954 100.316 23.1612 99.7566 22.8797 99.2816C22.5981 98.8065 21.4665 97.0836 20.3631 95.4495C19.2598 93.8156 17.5338 91.2742 16.5261 89.7991C15.5205 88.3241 14.1138 86.2551 13.4011 85.2015C12.6904 84.1479 11.0677 81.7758 9.79763 79.9329C8.52764 78.0883 7.26394 76.1071 6.99002 75.5267C6.61467 74.7376 6.52008 74.3049 6.60818 73.803C6.70779 73.2418 7.64332 72.215 12.3347 67.5159C15.417 64.428 18.1984 61.7556 18.5144 61.5775C19.001 61.3055 19.9093 61.2398 24.4529 61.1517C27.4025 61.0961 30.2679 61.0311 30.822 61.0081ZM132.208 74.9525C134.251 74.9525 134.549 74.9946 134.889 75.3353C135.244 75.6897 135.269 75.939 135.225 78.5823C135.191 80.622 135.107 81.5191 134.928 81.6956C134.739 81.8853 133.388 81.9561 129.229 81.9925C125.145 82.0289 123.734 82.0997 123.594 82.2796C123.477 82.429 123.423 86.0672 123.492 101.467L124.353 101.716C124.828 101.852 125.324 102.114 125.459 102.298C125.627 102.53 125.701 103.456 125.701 105.316C125.701 107.34 125.633 108.091 125.427 108.38C125.176 108.731 124.888 108.769 122.118 108.832C120.45 108.869 118.289 108.848 117.314 108.784C116.123 108.706 115.448 108.574 115.255 108.38C115.027 108.152 114.966 107.528 114.962 105.364C114.956 102.818 114.983 102.607 115.364 102.25C115.59 102.04 115.894 101.629 116.04 101.34C116.258 100.911 116.304 99.2027 116.285 92.0491C116.273 87.2316 116.208 83.0304 116.139 82.7112C116.019 82.1385 116.013 82.1361 114.534 82.0882C113.305 82.048 113.039 81.9828 112.971 81.7054C112.916 81.4736 113.812 80.448 115.892 78.3714C118.049 76.2188 119.081 75.3201 119.564 75.18C119.932 75.0746 120.645 74.9796 121.145 74.97C121.645 74.9605 122.274 75.0596 122.542 75.1917C122.827 75.3335 123.113 75.7073 123.237 76.1019C123.36 76.4946 123.398 77.2709 123.327 77.97C123.256 78.6519 123.287 79.3318 123.396 79.5501C123.502 79.7607 123.695 79.9309 123.827 79.9271C123.959 79.9251 125.057 78.9427 126.269 77.7435C127.503 76.5213 128.789 75.4296 129.191 75.2571C129.714 75.035 130.532 74.9525 132.208 74.9525ZM68.2254 74.9525C68.9973 74.941 69.4071 75.037 69.7576 75.3109C70.2116 75.6652 70.239 75.7975 70.2849 77.8089C70.3309 79.8717 70.3459 79.9328 70.7635 79.9271C71.0527 79.9251 71.9472 79.1783 73.4929 77.6536C75.3932 75.7764 75.9415 75.3433 76.6541 75.1536C77.2403 74.9965 78.8768 74.9428 86.0164 75.0482L87.1922 76.1976L87.24 88.6878C87.2764 98.6088 87.3376 101.23 87.5349 101.427C87.6923 101.586 88.5219 101.711 89.8318 101.772C91.5921 101.854 91.8873 101.915 91.9295 102.202C91.9601 102.406 91.4736 103.019 90.6863 103.768C89.9756 104.444 88.5959 105.781 87.6209 106.737C85.9697 108.357 85.7745 108.492 84.7478 108.691C84.0985 108.817 83.0564 108.851 82.2097 108.775C81.3534 108.698 80.6556 108.532 80.4851 108.364C80.2361 108.118 80.1923 106.357 80.1502 95.2503C80.1061 83.2619 80.0813 82.4124 79.7674 82.2454C79.5835 82.1477 77.5351 82.05 71.0027 81.9925L70.6599 82.4485C70.3402 82.87 70.3173 83.5396 70.325 91.8577C70.3288 97.4274 70.4055 100.958 70.5242 101.197C70.6372 101.421 71.0531 101.664 71.5301 101.784C71.9783 101.898 72.4536 102.136 72.5877 102.312C72.7561 102.536 72.8289 103.449 72.8289 105.316C72.8289 107.34 72.7613 108.091 72.5545 108.38C72.2978 108.738 72.0202 108.767 68.1931 108.826C65.9461 108.863 63.589 108.836 62.9568 108.771C62.3248 108.704 61.6773 108.572 61.5203 108.474C61.2945 108.336 61.2195 107.763 61.1717 105.754C61.1353 104.243 61.1926 102.993 61.3152 102.681C61.4513 102.332 61.8139 102.025 62.3826 101.772C63.0933 101.456 63.2642 101.279 63.3523 100.766C63.4098 100.423 63.4308 96.1628 63.4002 91.2991C63.3676 86.4363 63.2695 82.3849 63.1814 82.2952C63.0933 82.2071 62.3618 82.094 61.5554 82.0403C60.2743 81.9561 60.0799 81.8967 60.0281 81.5618C59.9898 81.3064 60.213 80.9795 60.697 80.5823C61.0977 80.2545 62.4593 78.9709 63.7234 77.7298C64.9877 76.4885 66.2814 75.3608 66.5974 75.221C66.9136 75.0812 67.647 74.9601 68.2254 74.9525ZM226.458 74.9525C229.777 74.9525 230.814 75.0136 231.343 75.2396C231.71 75.3966 232.099 75.6997 232.205 75.9105C232.327 76.1561 232.396 80.8608 232.396 88.8411C232.396 101.196 232.402 101.393 232.779 101.58C232.99 101.686 234.024 101.772 235.078 101.772C236.936 101.772 236.994 101.785 237 102.202C237.004 102.503 236.27 103.362 234.557 105.057C233.211 106.39 231.85 107.701 231.534 107.969C231.181 108.268 230.517 108.541 229.81 108.677C229.178 108.8 228.085 108.869 227.38 108.832C226.372 108.779 226.032 108.681 225.804 108.38C225.55 108.046 225.511 106.424 225.506 95.8333C225.5 88.8616 225.422 83.3852 225.318 82.9984C225.199 82.5578 224.986 82.2797 224.695 82.1859C224.452 82.1093 222.488 82.0423 220.328 82.0403C217.213 82.0346 216.322 82.0905 216.017 82.3089C215.644 82.577 215.633 82.8342 215.587 91.6995C215.556 97.491 215.608 100.952 215.73 101.197C215.839 101.415 216.25 101.663 216.688 101.772C217.113 101.877 217.583 102.154 217.744 102.394C217.962 102.721 218.033 103.423 218.039 105.316C218.045 107.501 218.001 107.866 217.298 108.764H212.117C208.13 108.764 206.88 108.706 206.688 108.515C206.512 108.339 206.424 107.449 206.389 105.45C206.353 103.416 206.407 102.546 206.581 102.314C206.713 102.139 207.168 101.878 208.355 101.484L208.503 99.7601C208.583 98.8118 208.627 94.5797 208.598 90.3538C208.554 83.8562 208.503 82.6232 208.26 82.3431C208.035 82.0845 207.715 82.0216 206.822 82.0599C206.19 82.0867 205.566 82.0497 205.433 81.9788C205.301 81.906 205.192 81.7417 205.192 81.6097C205.19 81.4775 206.505 80.0617 208.114 78.4603C209.721 76.8607 211.34 75.416 211.708 75.2493C212.155 75.0477 212.806 74.9639 213.661 74.9984C214.389 75.0271 215.052 75.1554 215.194 75.2972C215.355 75.4584 215.478 76.2956 215.539 77.6898C215.627 79.6454 215.667 79.8393 216.017 79.8948C216.291 79.9389 217.023 79.3354 218.603 77.7552C219.883 76.4775 221.108 75.4276 221.525 75.2532C222.104 75.0119 223.064 74.9525 226.458 74.9525ZM197.053 74.9622C200.757 74.9488 201.725 74.9988 202.033 75.221C202.382 75.472 202.422 75.7532 202.477 78.4329C202.512 80.0478 202.491 81.6286 202.431 81.9446C202.372 82.2607 202.056 82.8201 201.728 83.1898C201.401 83.5595 200.828 84.2049 200.453 84.6263C200.077 85.0477 197.219 88.1012 194.102 91.4134C190.984 94.7253 188.19 97.6986 187.89 98.0228C187.593 98.3465 187.227 98.8908 187.076 99.2337C186.927 99.5766 186.803 100.157 186.803 100.527C186.804 101.046 186.921 101.274 187.323 101.533C187.79 101.833 188.462 101.867 194.012 101.867C197.405 101.867 200.238 101.911 200.305 101.963C200.374 102.015 200.382 102.231 200.325 102.442C200.268 102.652 198.989 104.101 194.754 108.493L193.413 108.702C192.583 108.829 190.499 108.869 187.953 108.804C185.394 108.739 183.581 108.609 183.164 108.459C182.796 108.327 182.191 107.98 181.823 107.691C181.455 107.399 180.9 106.704 180.59 106.143C180.053 105.172 180.019 104.969 179.86 101.772C179.768 99.9289 179.723 95.963 179.763 92.9593C179.809 89.3045 179.909 87.3255 180.062 86.973C180.187 86.6837 182.096 84.6568 184.301 82.471C186.505 80.2853 189.026 77.791 189.903 76.931C190.78 76.0708 191.714 75.2785 191.976 75.1712C192.25 75.0601 194.417 74.9699 197.053 74.9622ZM149.353 74.9642C153.538 74.9584 153.801 74.9792 154.607 75.3851C155.075 75.6207 155.679 76.1091 156.441 77.1243L156.537 89.1517C156.614 98.6663 156.684 101.23 156.882 101.427C157.024 101.569 157.782 101.716 158.653 101.772C159.772 101.843 160.201 101.944 160.274 102.155C160.339 102.342 159.395 103.396 157.545 105.201C155.989 106.718 154.544 108.072 154.334 108.21C154.123 108.35 153.499 108.553 152.945 108.662C152.391 108.772 151.615 108.814 151.22 108.756C150.826 108.701 150.33 108.535 150.119 108.388C149.784 108.156 149.725 107.844 149.64 105.86C149.564 104.056 149.485 103.584 149.258 103.534C149.095 103.497 147.975 104.472 146.671 105.784C144.995 107.472 144.139 108.187 143.511 108.43C142.783 108.712 141.991 108.762 138.433 108.756C136.116 108.752 133.895 108.687 133.501 108.613C132.873 108.494 132.757 108.386 132.593 107.758C132.487 107.363 132.401 105.877 132.401 104.453C132.401 103.03 132.484 101.566 132.584 101.197C132.728 100.669 134.406 98.9027 140.389 92.9788C144.581 88.8279 148.341 85.0352 148.744 84.5501C149.301 83.8797 149.462 83.5308 149.414 83.096C149.37 82.6765 149.2 82.4506 148.778 82.2571C148.33 82.0503 147.079 81.9963 137.955 82.0403V81.4661C137.955 81.1503 138.037 80.8703 138.14 80.8431C138.242 80.8163 139.587 79.5885 141.131 78.1136C142.673 76.6386 144.163 75.3281 144.441 75.2015C144.788 75.0425 146.336 74.968 149.353 74.9642ZM100.408 61.1634C101.199 61.1576 101.794 61.2537 102.037 61.428C102.402 61.6904 102.423 61.9815 102.515 68.1214C102.567 71.65 102.682 74.6095 102.77 74.6976C102.858 74.7857 104.301 74.8778 105.979 74.9046C108.902 74.9506 109.04 74.9695 109.318 75.3831C109.54 75.7145 109.605 76.418 109.605 78.4485C109.603 80.1745 109.521 81.2456 109.364 81.554C109.127 82.0213 109.101 82.0248 106.004 82.0804C103.483 82.1244 102.849 82.1915 102.703 82.4232C102.596 82.5936 102.519 86.473 102.519 91.9534C102.515 99.913 102.556 101.236 102.803 101.484C103.038 101.719 103.749 101.772 110.37 101.772V102.25C110.37 102.586 110.046 103.032 109.295 103.735C108.705 104.288 107.347 105.584 106.278 106.617C104.845 107.998 104.159 108.526 103.665 108.627C103.297 108.702 101.573 108.764 99.8338 108.764C98.0963 108.764 96.435 108.698 95.6189 108.476V88.8411C95.6189 74.4293 95.56 69.0944 95.3992 68.7747C95.2785 68.5372 95.0844 68.2801 94.9676 68.2034C94.852 68.125 94.2179 68.0599 93.5594 68.0599C92.667 68.056 92.3373 67.9834 92.2664 67.7689C92.2147 67.6099 92.2357 67.3737 92.3142 67.2415C92.3938 67.1084 93.666 65.826 95.1404 64.388C96.6155 62.9494 98.1232 61.6387 98.4929 61.4739C98.8647 61.3074 99.7167 61.1692 100.408 61.1634ZM51.1765 74.9603C55.6126 74.9411 55.8979 74.9605 56.9226 75.7191L56.9304 81.9446L56.364 82.8069C56.0517 83.2821 54.6551 84.8759 53.2605 86.3509C51.866 87.8259 49.5478 90.2831 48.1072 91.8099C46.6686 93.3386 44.9368 95.1874 44.2625 95.9173C43.5863 96.6491 42.8619 97.4284 42.6511 97.6487C42.4404 97.869 42.0713 98.3062 41.8318 98.6185C41.4985 99.0494 41.3933 99.4362 41.3914 100.239C41.3914 100.85 41.4929 101.396 41.6385 101.537C41.8224 101.719 43.4847 101.818 48.1834 101.921C52.9781 102.027 54.5112 102.116 54.6013 102.302C54.6722 102.448 54.0666 103.22 53.0916 104.224C52.1951 105.147 50.9024 106.486 50.2185 107.202C49.5346 107.919 48.7583 108.562 48.4939 108.635C48.2307 108.706 46.032 108.762 43.6092 108.76C41.1859 108.758 38.6856 108.681 38.0535 108.589C37.0826 108.447 36.776 108.3 36.0769 107.635C35.6229 107.202 35.0617 106.461 34.8318 105.986C34.4239 105.145 34.4127 104.91 34.3533 96.4075C34.3131 90.7565 34.3626 87.4557 34.491 87.0208C34.6408 86.5187 36.0315 85.0107 40.0115 81.0364C42.9385 78.1132 45.5918 75.556 45.908 75.3509C46.4348 75.0118 46.8817 74.9794 51.1765 74.9603ZM169.515 61.3665C169.648 61.359 170.035 61.4664 171 61.8665L171.095 81.5023C171.18 98.5896 171.227 101.179 171.478 101.459C171.718 101.727 172.214 101.789 174.446 101.826C176.831 101.864 177.13 101.904 177.176 102.202C177.206 102.411 176.635 103.101 175.674 104.023C174.821 104.839 173.442 106.176 172.609 106.992C171.46 108.12 170.923 108.509 170.377 108.615C169.982 108.689 168.71 108.754 167.552 108.758C166.393 108.762 165.207 108.699 164.918 108.62C164.55 108.521 164.333 108.289 164.195 107.854C164.069 107.45 164.002 100.511 164.004 88.0267C164.008 69.0174 164.004 68.8208 163.625 68.6312C163.414 68.5258 163.048 68.4428 162.81 68.4466C162.573 68.4523 162.251 68.3163 162.092 68.1458C161.832 67.8643 162.09 67.5532 164.774 64.886C166.895 62.7808 167.962 61.8568 168.51 61.6595C168.931 61.5063 169.383 61.3742 169.515 61.3665ZM149.055 89.6985C148.989 89.7101 146.868 91.7984 144.332 94.348C140.227 98.4762 139.698 99.0781 139.579 99.7601C139.5 100.214 139.534 100.703 139.658 100.957C139.775 101.195 140.108 101.48 140.397 101.593C140.731 101.723 142.369 101.775 144.851 101.737C147.53 101.695 148.913 101.599 149.209 101.436L149.64 101.197C149.646 91.4962 149.589 90.1237 149.405 89.9378C149.271 89.8056 149.113 89.6966 149.055 89.6985ZM45.6687 82.0765C42.257 82.0248 41.8261 82.0539 41.5828 82.347C41.3625 82.6134 41.3103 83.6649 41.3103 87.8655C41.3103 92.9062 41.3218 93.0571 41.6931 93.1146C41.9652 93.1567 42.3835 92.8173 43.1306 91.9476C43.7113 91.2731 45.167 89.6503 46.366 88.3441C47.567 87.0357 48.8808 85.5569 49.2869 85.0569C49.8021 84.4229 50.0281 83.9595 50.0301 83.5247C50.032 83.1819 49.9099 82.7296 49.7586 82.5189C49.5019 82.1606 49.2277 82.132 45.6687 82.0765ZM191.162 82.0443C189.134 82.0443 187.348 82.1283 187.187 82.2278C186.944 82.3811 186.899 83.2089 186.899 87.7318V93.055C187.667 93.1412 188.191 92.6602 189.723 90.8997C190.802 89.6623 191.863 88.4766 192.08 88.2659C192.297 88.0549 193.082 87.1926 193.827 86.3499C194.57 85.5071 195.321 84.5375 195.493 84.1946C195.665 83.852 195.807 83.4427 195.807 83.2855C195.807 83.1284 195.592 82.7832 195.328 82.5189C194.851 82.0421 194.841 82.0404 191.162 82.0443Z" fill="white"/>
</g>
<defs>
<clipPath id="clip0_263_414">
<rect width="237" height="160" fill="white" transform="matrix(-1 0 0 1 237 0)"/>
</clipPath>
</defs>
</svg>
