<svg width="321" height="194" viewBox="0 0 321 194" fill="none" xmlns="http://www.w3.org/2000/svg">
<g clip-path="url(#clip0_115_354)">
<g opacity="0.8">
<path d="M295.431 109.786V109.494C295.396 108.901 295.49 108.307 295.705 107.753C295.92 107.199 296.252 106.698 296.679 106.283C297.105 105.869 297.615 105.551 298.175 105.351C298.735 105.152 299.331 105.075 299.923 105.126C300.472 105.082 301.023 105.156 301.54 105.345C302.057 105.534 302.527 105.832 302.917 106.219C303.308 106.606 303.611 107.073 303.804 107.588C303.998 108.103 304.078 108.654 304.039 109.203V109.786H295.431ZM300.088 122.999C303.832 122.999 307.196 121.588 308.855 118.265L304.955 116.02C304.453 116.806 303.774 117.463 302.972 117.94C302.171 118.416 301.269 118.699 300.339 118.766C297.635 118.766 295.432 117.184 295.432 114.484V113.32H309.105V109.202C309.105 103.549 304.539 100.85 299.922 100.85C294.641 100.85 290.156 104.165 290.156 110.159V114.313C290.156 120.135 294.852 122.998 300.086 122.998M267 122.499H272.074V110.569C272.074 106.954 273.697 105.249 276.484 105.249C279.061 105.249 280.434 106.954 280.434 110.153V122.499H285.502V108.86C285.502 103.79 282.842 100.8 278.063 100.8C276.886 100.773 275.721 101.035 274.669 101.563C273.618 102.092 272.713 102.871 272.033 103.832H271.95V101.221H267.007L267 122.499ZM250.33 122.913C251.5 122.941 252.66 122.679 253.705 122.15C254.75 121.621 255.647 120.842 256.318 119.882H256.445V122.498H261.344V101.228H256.277V113.116C256.277 116.733 254.698 118.477 251.911 118.477C249.331 118.477 247.917 116.774 247.917 113.573V101.224H242.852V114.817C242.852 119.843 245.551 122.916 250.33 122.916M206.107 122.502H211.172V109.989C211.172 106.457 213.502 105.249 215.29 105.249C218.369 105.249 219.157 107.493 219.157 110.195V122.499H224.225V110.242C224.225 107.454 225.429 105.251 228.299 105.251C231.169 105.251 232.166 107.249 232.166 110.116V122.503H237.231V108.283C237.312 107.284 237.176 106.279 236.832 105.338C236.487 104.397 235.943 103.541 235.236 102.831C234.53 102.12 233.677 101.571 232.738 101.221C231.798 100.872 230.794 100.73 229.795 100.806C228.528 100.774 227.272 101.044 226.129 101.593C224.987 102.141 223.991 102.953 223.224 103.961H223.182C222.547 102.939 221.649 102.107 220.582 101.552C219.515 100.997 218.317 100.739 217.116 100.806C215.944 100.779 214.783 101.038 213.733 101.558C212.683 102.079 211.775 102.847 211.086 103.796H211.003V101.221H206.104L206.107 122.502ZM169.154 122.502H174.221V109.989C174.221 106.457 176.551 105.249 178.339 105.249C181.418 105.249 182.207 107.493 182.207 110.195V122.499H187.273V110.242C187.273 107.454 188.477 105.251 191.35 105.251C194.222 105.251 195.217 107.249 195.217 110.116V122.503H200.282V108.283C200.363 107.284 200.227 106.279 199.882 105.338C199.538 104.397 198.994 103.541 198.287 102.831C197.58 102.12 196.728 101.571 195.788 101.221C194.849 100.872 193.845 100.73 192.846 100.806C191.579 100.775 190.323 101.045 189.182 101.593C188.04 102.142 187.044 102.954 186.277 103.961H186.233C185.598 102.939 184.7 102.107 183.632 101.552C182.565 100.997 181.368 100.739 180.167 100.806C178.995 100.779 177.834 101.038 176.784 101.558C175.733 102.079 174.825 102.847 174.137 103.796H174.054V101.221H169.156L169.154 122.502ZM154.689 118.723C152.065 118.723 150.073 117.186 150.073 114.605V109.367C150.05 108.788 150.151 108.21 150.37 107.674C150.589 107.137 150.921 106.653 151.342 106.255C151.764 105.857 152.265 105.554 152.814 105.366C153.362 105.178 153.945 105.11 154.522 105.166C157.146 105.166 159.138 106.663 159.138 109.24V114.523C159.161 115.102 159.059 115.68 158.84 116.217C158.622 116.754 158.29 117.237 157.869 117.635C157.447 118.033 156.945 118.337 156.397 118.524C155.848 118.712 155.266 118.779 154.689 118.723ZM154.689 123.006C159.385 123.006 164.286 119.85 164.286 114.074V109.7C164.286 104.253 159.679 100.85 154.52 100.85C149.825 100.85 144.923 104.006 144.923 109.782V114.649C144.923 120.093 149.53 122.998 154.689 122.998M123.27 122.499H128.348V115.766L131.135 112.773L136.83 122.498H142.524L134.585 109.239L142.191 101.217H136.164L128.389 109.987L128.348 92.8613H123.27V122.499Z" fill="white"/>
<path d="M312.228 74.166C309.604 74.166 307.609 72.6288 307.609 70.0502V65.3544C307.587 64.7749 307.689 64.1974 307.908 63.6605C308.127 63.1237 308.459 62.64 308.88 62.2419C309.302 61.8439 309.804 61.5408 310.353 61.353C310.901 61.1651 311.484 61.0969 312.061 61.153C314.685 61.153 316.677 62.6501 316.677 65.2273V69.9701C316.699 70.549 316.597 71.1259 316.378 71.6621C316.158 72.1983 315.827 72.6813 315.406 73.0788C314.984 73.4763 314.483 73.7789 313.934 73.9665C313.386 74.154 312.805 74.222 312.228 74.166ZM311.435 86.6749C318.794 86.6749 321.575 81.649 321.575 76.7004V57.2057H316.758V59.7346H316.672C315.992 58.8207 315.108 58.0783 314.09 57.5663C313.072 57.0544 311.949 56.7872 310.81 56.7858C306.114 56.7858 302.458 59.9845 302.458 65.7632V69.8375C302.458 75.2847 305.737 78.1893 310.892 78.1893C311.998 78.2297 313.096 77.997 314.089 77.5118C315.083 77.0266 315.942 76.3039 316.59 75.4077H316.672V77.6492C316.743 78.302 316.669 78.9623 316.456 79.5834C316.243 80.2044 315.896 80.7711 315.44 81.2434C314.984 81.7157 314.43 82.0821 313.816 82.3166C313.203 82.5511 312.546 82.6481 311.891 82.6006C310.98 82.6183 310.084 82.3618 309.321 81.8643C308.558 81.3668 307.961 80.6513 307.609 79.8107L302.792 81.5164C303.874 85.0079 307.987 86.6694 311.435 86.6694M288.949 74.7033C286.325 74.7033 284.333 73.1661 284.333 70.5847V65.3516C284.311 64.7722 284.412 64.1946 284.631 63.6578C284.851 63.1209 285.182 62.6372 285.604 62.2392C286.026 61.8411 286.528 61.538 287.076 61.3502C287.625 61.1624 288.207 61.0942 288.785 61.1502C291.409 61.1502 293.4 62.6474 293.4 65.2246V70.5074C293.423 71.0868 293.321 71.6644 293.102 72.2013C292.883 72.7381 292.551 73.2218 292.13 73.6199C291.708 74.0179 291.206 74.321 290.657 74.5088C290.109 74.6967 289.526 74.7648 288.949 74.7088M288.949 78.9903C293.645 78.9903 298.549 75.8344 298.549 70.0585V65.6845C298.549 60.2373 293.939 56.8342 288.783 56.8342C284.087 56.8342 279.183 59.9901 279.183 65.766V70.6331C279.183 76.0775 283.793 78.982 288.949 78.982M257.53 78.4834H262.611V71.7504L265.395 68.7575L271.09 78.4821H276.784L268.845 65.2232L276.451 57.2016H270.421L262.649 65.9718L262.608 48.8457H257.527L257.53 78.4834ZM243.475 78.9406C247.841 78.9406 252.867 76.6161 252.867 71.7131C252.867 68.5117 250.795 66.4731 247.178 65.766L243.974 65.1417C241.764 64.7274 239.941 64.5202 239.941 63.0203C239.941 61.4002 241.397 60.6516 243.394 60.6516C244.292 60.5966 245.191 60.7566 246.015 61.1183C246.84 61.48 247.566 62.0331 248.134 62.7316L251.79 60.2359C250.001 57.7029 247.261 56.7472 243.435 56.7472C238.901 56.7472 235.001 59.2802 235.001 63.726C235.001 66.9275 237.325 68.6332 240.814 69.2589L243.601 69.7574C246.472 70.256 247.595 70.6317 247.595 72.2932C247.595 74.2047 245.474 74.9174 243.394 74.9174C242.267 74.9406 241.151 74.7011 240.133 74.2178C239.116 73.7345 238.225 73.0207 237.531 72.133L233.961 74.8345C236.079 77.9489 239.649 78.9447 243.477 78.9447M211.224 78.4876H216.289V66.5532C216.289 62.9388 217.912 61.2331 220.699 61.2331C223.276 61.2331 224.649 62.9388 224.649 66.1375V78.4834H229.716V64.8448C229.716 59.7746 227.059 56.7845 222.278 56.7845C221.101 56.757 219.936 57.0192 218.884 57.5478C217.833 58.0764 216.927 58.8553 216.248 59.816H216.165V57.2057H211.224V78.4876ZM192.553 65.7701V65.4787C192.519 64.8861 192.613 64.2932 192.829 63.7401C193.044 63.187 193.376 62.6867 193.802 62.273C194.227 61.8593 194.737 61.5419 195.296 61.3422C195.855 61.1425 196.45 61.0653 197.041 61.1157C197.59 61.0713 198.142 61.146 198.659 61.3347C199.176 61.5233 199.646 61.8214 200.037 62.2086C200.428 62.5957 200.731 63.0628 200.925 63.5779C201.119 64.093 201.199 64.6438 201.16 65.1928V65.7756L192.553 65.7701ZM197.21 78.9834C200.954 78.9834 204.316 77.5719 205.977 74.2489L202.074 72.0045C201.572 72.79 200.894 73.4472 200.093 73.9239C199.292 74.4007 198.391 74.6836 197.461 74.7502C194.757 74.7502 192.554 73.1688 192.554 70.4687V69.3044H206.227V65.1859C206.227 59.5329 201.659 56.8342 197.041 56.8342C191.763 56.8342 187.275 60.1489 187.275 66.143V70.2975C187.275 76.1189 191.971 78.982 197.209 78.982M170.691 78.4834H175.758V67.5932C175.758 63.6459 178.627 61.4416 182.451 61.4416C183.091 61.42 183.731 61.4617 184.363 61.5659V56.917C183.801 56.8119 183.228 56.7693 182.657 56.79C181.269 56.8459 179.915 57.2331 178.708 57.9194C177.5 58.6056 176.475 59.5709 175.717 60.7345H175.634V57.2057H170.694L170.691 78.4834ZM156.436 74.7074C155.875 74.7056 155.316 74.6356 154.772 74.4989L160.472 63.3545C160.744 63.9405 160.885 64.5786 160.886 65.2246V70.5074C160.909 71.0866 160.807 71.6639 160.588 72.2005C160.368 72.7371 160.037 73.2205 159.615 73.6184C159.194 74.0162 158.692 74.3192 158.144 74.5071C157.595 74.6949 157.013 74.7632 156.436 74.7074ZM151.82 70.6082V65.3599C151.797 64.78 151.898 64.2019 152.117 63.6644C152.336 63.1269 152.668 62.6425 153.089 62.2439C153.511 61.8452 154.013 61.5414 154.562 61.353C155.111 61.1646 155.694 61.0959 156.272 61.1516C156.996 61.1445 157.715 61.2714 158.393 61.5259L152.528 72.9893C152.042 72.2939 151.794 71.4602 151.82 70.6124M151.113 81.6462L152.736 78.4876C153.944 78.8048 155.187 78.9722 156.436 78.9862C161.132 78.9862 166.036 75.8303 166.036 70.0544V65.6845C166.047 64.3804 165.752 63.0919 165.175 61.9224C164.598 60.7528 163.755 59.7349 162.713 58.9501L164.371 55.7127L161.961 54.5484L160.382 57.6214C159.072 57.1017 157.676 56.8346 156.266 56.8342C151.57 56.8342 146.666 59.9901 146.666 65.766V70.6331C146.631 71.9772 146.945 73.3075 147.578 74.4937C148.211 75.68 149.142 76.6816 150.278 77.4006L148.702 80.4792L151.113 81.6462ZM123.477 78.4876H143.42V73.626H128.997V48.8512H123.473L123.477 78.4876Z" fill="white"/>
</g>
<path opacity="0.8" d="M46.2349 155L1 130.001V39H91.4905V129.996L46.2349 155ZM4.57299 127.891L46.2349 150.917L87.9147 127.891V42.5758H4.57299V127.891Z" fill="white"/>
<path opacity="0.8" d="M48.8093 99.0448C50.1765 98.6446 51.4275 97.9218 52.4569 96.9371L60.9716 101.855C57.9998 105.713 53.6325 108.25 48.8093 108.92V99.0448ZM48.7651 81.9367V72.0616C53.5852 72.7206 57.9552 75.2418 60.9384 79.0846L52.41 84.0056C51.3785 83.033 50.1285 82.3225 48.7651 81.9339M42.5749 90.4969L46.2473 86.8273L49.9142 90.4969L46.2473 94.1666L42.5749 90.4969ZM40.1703 96.9427C41.1898 97.9155 42.4258 98.6322 43.7765 99.0337V108.938C38.9407 108.294 34.5528 105.772 31.5617 101.918L40.1703 96.9427ZM31.5369 79.1053C34.5205 75.2511 38.8976 72.7219 43.7268 72.0616V81.9684C42.3796 82.3734 41.1485 83.0941 40.1358 84.0705L31.5369 79.1053ZM29.0191 83.4601L37.6401 88.439C37.3182 89.8017 37.321 91.221 37.6484 92.5824L29.0329 97.5545C27.1817 93.0392 27.1768 87.979 29.0191 83.4601ZM63.4825 97.4937L54.9678 92.5811C55.3024 91.1911 55.2977 89.7411 54.954 88.3534L63.4604 83.4462C65.3013 87.9468 65.3092 92.9874 63.4825 97.4937ZM75.2953 90.5024C75.2957 87.9686 74.9419 85.4471 74.2443 83.0112L78.6639 85.7154L80.3282 82.9863L72.2803 78.0667C70.7005 75.0187 68.578 72.2844 66.0169 69.9981L71.9392 70.1363L72.0165 66.9417L61.5199 66.689C58.7397 65.0348 55.707 63.8478 52.5425 63.1754L58.3281 60.0195L56.7937 57.2158L47.0429 62.5317C46.7791 62.5235 46.5153 62.5207 46.2473 62.5207C43.4782 62.5187 40.7221 62.8993 38.0572 63.6518L41.4576 58.0762L38.7284 56.4092L33.1818 65.5067C30.4483 66.8312 27.94 68.5771 25.7486 70.6804L25.8867 64.8148L22.6976 64.7416L22.4615 74.4468C20.5737 77.0306 19.1519 79.9243 18.2601 82.9974L15.774 78.4396L12.9675 79.9685L17.3195 87.9446C17.2394 88.7857 17.198 89.642 17.198 90.5024C17.1971 93.0356 17.5518 95.5564 18.2518 97.991L13.8225 95.2895L12.1582 98.0186L20.2185 102.937C21.7976 105.984 23.9202 108.718 26.4819 111.003L20.5596 110.864L20.4878 114.048L30.9844 114.301C33.7645 115.956 36.7972 117.145 39.9618 117.82L34.179 120.976L35.7079 123.779L45.4532 118.468C45.7142 118.476 45.9808 118.479 46.2487 118.479C49.0178 118.481 51.7739 118.1 54.4388 117.348L51.033 122.926L53.7648 124.59L59.3142 115.493C62.047 114.168 64.5548 112.422 66.7461 110.319L66.608 116.187L69.7943 116.258L70.0304 106.555C71.9182 103.972 73.34 101.078 74.2319 98.0048L76.7179 102.563L79.5244 101.034L75.1807 93.0548C75.258 92.2137 75.3022 91.3574 75.3022 90.4969" fill="white"/>
</g>
<defs>
<clipPath id="clip0_115_354">
<rect width="321" height="194" fill="white"/>
</clipPath>
</defs>
</svg>
