<svg width="420" height="194" viewBox="0 0 420 194" fill="none" xmlns="http://www.w3.org/2000/svg">
<g clip-path="url(#clip0_115_352)">
<path d="M-0.469195 107.265V73.3316H6.70513V101.35H21.2526V107.265H-0.469195ZM29.8312 108.888L26.6002 106.701L44.8757 80.3899L48.1398 82.577L29.8312 108.888ZM37.37 107.795C34.7963 107.795 32.5705 107.248 30.6927 106.155C28.826 105.05 27.3845 103.515 26.3683 101.548C25.352 99.5822 24.8439 97.2902 24.8439 94.6723C24.8439 92.0434 25.352 89.7458 26.3683 87.7796C27.3845 85.8024 28.826 84.267 30.6927 83.1735C32.5705 82.0689 34.7963 81.5166 37.37 81.5166C39.9437 81.5166 42.1639 82.0689 44.0307 83.1735C45.9085 84.267 47.3555 85.8024 48.3717 87.7796C49.388 89.7458 49.8961 92.0434 49.8961 94.6723C49.8961 97.2902 49.388 99.5822 48.3717 101.548C47.3555 103.515 45.9085 105.05 44.0307 106.155C42.1639 107.248 39.9437 107.795 37.37 107.795ZM37.4031 102.327C38.574 102.327 39.5516 101.996 40.3358 101.333C41.1201 100.659 41.711 99.7424 42.1087 98.5826C42.5174 97.4227 42.7218 96.1083 42.7218 94.6392C42.7218 93.148 42.5174 91.8224 42.1087 90.6626C41.711 89.5028 41.1201 88.586 40.3358 87.9122C39.5516 87.2384 38.574 86.9015 37.4031 86.9015C36.2212 86.9015 35.2271 87.2384 34.4207 87.9122C33.6254 88.586 33.0234 89.5028 32.6147 90.6626C32.2171 91.8224 32.0182 93.148 32.0182 94.6392C32.0182 96.1083 32.2171 97.4227 32.6147 98.5826C33.0234 99.7424 33.6254 100.659 34.4207 101.333C35.2271 101.996 36.2212 102.327 37.4031 102.327ZM54.4857 107.265V81.8148H61.3286V86.2553H61.5937C62.0576 84.6757 62.8364 83.4828 63.9299 82.6764C65.0235 81.859 66.2827 81.4503 67.7076 81.4503C68.0611 81.4503 68.4422 81.4724 68.8509 81.5166C69.2596 81.5608 69.6186 81.6215 69.9279 81.6989V87.9619C69.5965 87.8625 69.1381 87.7741 68.5526 87.6968C67.9672 87.6195 67.4315 87.5808 66.9455 87.5808C65.9071 87.5808 64.9793 87.8073 64.1619 88.2601C63.3555 88.702 62.7149 89.3205 62.2399 90.1158C61.776 90.9112 61.544 91.828 61.544 92.8663V107.265H54.4857ZM83.9907 107.762C81.3728 107.762 79.1195 107.232 77.2306 106.171C75.3528 105.1 73.9058 103.586 72.8896 101.631C71.8733 99.6651 71.3652 97.3399 71.3652 94.6557C71.3652 92.0378 71.8733 89.7403 72.8896 87.7631C73.9058 85.7858 75.3362 84.2449 77.1809 83.1403C79.0366 82.0358 81.2127 81.4835 83.709 81.4835C85.388 81.4835 86.951 81.7541 88.398 82.2953C89.8561 82.8255 91.1264 83.6264 92.2089 84.6978C93.3024 85.7693 94.153 87.1169 94.7605 88.7406C95.368 90.3533 95.6718 92.2422 95.6718 94.4072V96.3458H74.1819V91.9716H89.0276C89.0276 90.9553 88.8067 90.0551 88.3649 89.2708C87.9231 88.4866 87.31 87.8735 86.5257 87.4317C85.7525 86.9788 84.8523 86.7524 83.825 86.7524C82.7536 86.7524 81.8036 87.0009 80.9752 87.498C80.1578 87.984 79.5171 88.6412 79.0532 89.4697C78.5892 90.2871 78.3518 91.1984 78.3407 92.2035V96.3623C78.3407 97.6216 78.5727 98.7096 79.0366 99.6264C79.5116 100.543 80.1799 101.25 81.0414 101.747C81.903 102.244 82.9248 102.493 84.1067 102.493C84.891 102.493 85.6089 102.382 86.2606 102.161C86.9124 101.941 87.4702 101.609 87.9341 101.167C88.398 100.725 88.7515 100.184 88.9945 99.5435L95.5227 99.9743C95.1913 101.543 94.512 102.913 93.4847 104.083C92.4685 105.243 91.154 106.149 89.5413 106.801C87.9396 107.441 86.0894 107.762 83.9907 107.762ZM107.336 92.5515V107.265H100.278V81.8148H107.005V86.305H107.303C107.866 84.8249 108.811 83.654 110.136 82.7924C111.462 81.9198 113.069 81.4835 114.958 81.4835C116.725 81.4835 118.266 81.8701 119.581 82.6433C120.895 83.4165 121.917 84.5211 122.646 85.9571C123.375 87.382 123.739 89.0831 123.739 91.0603V107.265H116.681V92.3195C116.692 90.762 116.295 89.547 115.488 88.6744C114.682 87.7907 113.572 87.3488 112.158 87.3488C111.208 87.3488 110.368 87.5532 109.639 87.9619C108.921 88.3706 108.358 88.9671 107.949 89.7513C107.552 90.5245 107.347 91.4579 107.336 92.5515ZM150.478 89.072L144.016 89.4697C143.905 88.9174 143.668 88.4203 143.303 87.9785C142.939 87.5256 142.458 87.1666 141.862 86.9015C141.276 86.6253 140.575 86.4873 139.757 86.4873C138.664 86.4873 137.742 86.7192 136.99 87.1832C136.239 87.636 135.864 88.2436 135.864 89.0057C135.864 89.6133 136.107 90.1269 136.593 90.5466C137.079 90.9664 137.913 91.3033 139.095 91.5573L143.701 92.4852C146.175 92.9933 148.02 93.8107 149.235 94.9374C150.45 96.0641 151.057 97.5442 151.057 99.3779C151.057 101.046 150.566 102.509 149.583 103.769C148.611 105.028 147.274 106.011 145.573 106.718C143.883 107.414 141.933 107.762 139.724 107.762C136.355 107.762 133.671 107.06 131.672 105.657C129.684 104.244 128.518 102.322 128.176 99.8915L135.118 99.527C135.328 100.554 135.836 101.339 136.642 101.88C137.449 102.41 138.482 102.675 139.741 102.675C140.978 102.675 141.972 102.438 142.723 101.963C143.485 101.477 143.872 100.852 143.883 100.09C143.872 99.4497 143.601 98.925 143.071 98.5163C142.541 98.0965 141.724 97.7762 140.619 97.5553L136.212 96.6771C133.726 96.1801 131.876 95.3185 130.661 94.0924C129.457 92.8663 128.855 91.3033 128.855 89.4034C128.855 87.7686 129.297 86.3602 130.181 85.1783C131.075 83.9964 132.329 83.0851 133.942 82.4445C135.566 81.8038 137.465 81.4835 139.641 81.4835C142.856 81.4835 145.385 82.1628 147.23 83.5214C149.086 84.8801 150.168 86.7303 150.478 89.072ZM161.898 99.9412L161.914 91.4745H162.941L171.093 81.8148H179.196L168.243 94.606H166.57L161.898 99.9412ZM155.502 107.265V73.3316H162.56V107.265H155.502ZM171.408 107.265L163.919 96.1801L168.625 91.1928L179.676 107.265H171.408ZM193.109 107.762C190.536 107.762 188.31 107.215 186.432 106.121C184.565 105.017 183.124 103.481 182.108 101.515C181.091 99.538 180.583 97.246 180.583 94.6392C180.583 92.0102 181.091 89.7127 182.108 87.7465C183.124 85.7693 184.565 84.2339 186.432 83.1403C188.31 82.0358 190.536 81.4835 193.109 81.4835C195.683 81.4835 197.903 82.0358 199.77 83.1403C201.648 84.2339 203.095 85.7693 204.111 87.7465C205.127 89.7127 205.635 92.0102 205.635 94.6392C205.635 97.246 205.127 99.538 204.111 101.515C203.095 103.481 201.648 105.017 199.77 106.121C197.903 107.215 195.683 107.762 193.109 107.762ZM193.142 102.294C194.313 102.294 195.291 101.963 196.075 101.3C196.859 100.626 197.45 99.7092 197.848 98.5494C198.257 97.3896 198.461 96.0696 198.461 94.5894C198.461 93.1093 198.257 91.7893 197.848 90.6295C197.45 89.4697 196.859 88.5529 196.075 87.8791C195.291 87.2052 194.313 86.8683 193.142 86.8683C191.96 86.8683 190.966 87.2052 190.16 87.8791C189.365 88.5529 188.763 89.4697 188.354 90.6295C187.956 91.7893 187.757 93.1093 187.757 94.5894C187.757 96.0696 187.956 97.3896 188.354 98.5494C188.763 99.7092 189.365 100.626 190.16 101.3C190.966 101.963 191.96 102.294 193.142 102.294ZM221.691 117.339C219.404 117.339 217.443 117.024 215.809 116.394C214.185 115.776 212.893 114.931 211.932 113.859C210.971 112.788 210.346 111.584 210.059 110.247L216.587 109.369C216.786 109.877 217.101 110.352 217.532 110.794C217.963 111.236 218.531 111.589 219.238 111.854C219.956 112.13 220.829 112.268 221.856 112.268C223.392 112.268 224.656 111.893 225.651 111.142C226.656 110.402 227.158 109.159 227.158 107.414V102.758H226.86C226.551 103.465 226.087 104.133 225.468 104.763C224.85 105.392 224.054 105.906 223.082 106.304C222.11 106.701 220.951 106.9 219.603 106.9C217.692 106.9 215.952 106.458 214.384 105.575C212.826 104.68 211.584 103.316 210.656 101.482C209.739 99.6374 209.28 97.3067 209.28 94.49C209.28 91.607 209.75 89.199 210.689 87.266C211.628 85.333 212.876 83.8859 214.433 82.925C216.002 81.964 217.72 81.4835 219.586 81.4835C221.011 81.4835 222.204 81.7265 223.165 82.2125C224.126 82.6875 224.899 83.2839 225.485 84.0019C226.081 84.7089 226.54 85.4048 226.86 86.0896H227.125V81.8148H234.134V107.513C234.134 109.678 233.604 111.49 232.543 112.948C231.483 114.406 230.014 115.499 228.136 116.228C226.269 116.968 224.121 117.339 221.691 117.339ZM221.84 101.598C222.977 101.598 223.938 101.316 224.723 100.753C225.518 100.179 226.126 99.3613 226.545 98.3009C226.976 97.2294 227.191 95.9481 227.191 94.4569C227.191 92.9657 226.982 91.6733 226.562 90.5798C226.142 89.4752 225.535 88.6191 224.739 88.0116C223.944 87.4041 222.977 87.1003 221.84 87.1003C220.68 87.1003 219.702 87.4151 218.907 88.0447C218.112 88.6633 217.51 89.5249 217.101 90.6295C216.692 91.7341 216.488 93.0099 216.488 94.4569C216.488 95.926 216.692 97.1963 217.101 98.2677C217.521 99.3282 218.123 100.151 218.907 100.737C219.702 101.311 220.68 101.598 221.84 101.598ZM250.682 107.265V73.3316H257.74V86.0896H257.956C258.265 85.4048 258.712 84.7089 259.298 84.0019C259.894 83.2839 260.668 82.6875 261.617 82.2125C262.578 81.7265 263.771 81.4835 265.196 81.4835C267.052 81.4835 268.764 81.9695 270.333 82.9415C271.901 83.9025 273.155 85.3551 274.094 87.2991C275.033 89.2322 275.502 91.6568 275.502 94.5729C275.502 97.4117 275.044 99.8086 274.127 101.764C273.221 103.708 271.984 105.182 270.416 106.188C268.858 107.182 267.113 107.679 265.18 107.679C263.81 107.679 262.645 107.452 261.684 107C260.734 106.547 259.955 105.978 259.348 105.293C258.74 104.597 258.276 103.896 257.956 103.189H257.641V107.265H250.682ZM257.591 94.5397C257.591 96.053 257.801 97.373 258.221 98.4997C258.641 99.6264 259.248 100.505 260.043 101.134C260.839 101.753 261.805 102.062 262.943 102.062C264.092 102.062 265.064 101.747 265.859 101.118C266.654 100.477 267.256 99.5933 267.665 98.4666C268.085 97.3288 268.295 96.0199 268.295 94.5397C268.295 93.0706 268.09 91.7783 267.682 90.6626C267.273 89.547 266.671 88.6744 265.876 88.0447C265.08 87.4151 264.103 87.1003 262.943 87.1003C261.794 87.1003 260.822 87.4041 260.027 88.0116C259.243 88.6191 258.641 89.4807 258.221 90.5963C257.801 91.712 257.591 93.0265 257.591 94.5397ZM280.212 107.265V81.8148H287.27V107.265H280.212ZM283.758 78.5342C282.708 78.5342 281.808 78.1863 281.057 77.4904C280.317 76.7834 279.947 75.9384 279.947 74.9553C279.947 73.9833 280.317 73.1493 281.057 72.4534C281.808 71.7465 282.708 71.393 283.758 71.393C284.807 71.393 285.702 71.7465 286.442 72.4534C287.193 73.1493 287.568 73.9833 287.568 74.9553C287.568 75.9384 287.193 76.7834 286.442 77.4904C285.702 78.1863 284.807 78.5342 283.758 78.5342ZM293.057 107.265V73.3316H300.115V86.0896H300.331C300.64 85.4048 301.087 84.7089 301.673 84.0019C302.269 83.2839 303.042 82.6875 303.992 82.2125C304.953 81.7265 306.146 81.4835 307.571 81.4835C309.427 81.4835 311.139 81.9695 312.708 82.9415C314.276 83.9025 315.53 85.3551 316.469 87.2991C317.408 89.2322 317.877 91.6568 317.877 94.5729C317.877 97.4117 317.419 99.8086 316.502 101.764C315.596 103.708 314.359 105.182 312.79 106.188C311.233 107.182 309.488 107.679 307.555 107.679C306.185 107.679 305.02 107.452 304.059 107C303.109 106.547 302.33 105.978 301.722 105.293C301.115 104.597 300.651 103.896 300.331 103.189H300.016V107.265H293.057ZM299.966 94.5397C299.966 96.053 300.176 97.373 300.596 98.4997C301.016 99.6264 301.623 100.505 302.418 101.134C303.214 101.753 304.18 102.062 305.318 102.062C306.467 102.062 307.439 101.747 308.234 101.118C309.029 100.477 309.631 99.5933 310.04 98.4666C310.46 97.3288 310.67 96.0199 310.67 94.5397C310.67 93.0706 310.465 91.7783 310.057 90.6626C309.648 89.547 309.046 88.6744 308.251 88.0447C307.455 87.4151 306.478 87.1003 305.318 87.1003C304.169 87.1003 303.197 87.4041 302.402 88.0116C301.618 88.6191 301.016 89.4807 300.596 90.5963C300.176 91.712 299.966 93.0265 299.966 94.5397ZM329.645 73.3316V107.265H322.587V73.3316H329.645ZM335.299 107.265V81.8148H342.358V107.265H335.299ZM338.845 78.5342C337.796 78.5342 336.895 78.1863 336.144 77.4904C335.404 76.7834 335.034 75.9384 335.034 74.9553C335.034 73.9833 335.404 73.1493 336.144 72.4534C336.895 71.7465 337.796 71.393 338.845 71.393C339.894 71.393 340.789 71.7465 341.529 72.4534C342.28 73.1493 342.656 73.9833 342.656 74.9553C342.656 75.9384 342.28 76.7834 341.529 77.4904C340.789 78.1863 339.894 78.5342 338.845 78.5342ZM359.511 107.762C356.937 107.762 354.711 107.215 352.833 106.121C350.967 105.017 349.525 103.481 348.509 101.515C347.493 99.538 346.985 97.246 346.985 94.6392C346.985 92.0102 347.493 89.7127 348.509 87.7465C349.525 85.7693 350.967 84.2339 352.833 83.1403C354.711 82.0358 356.937 81.4835 359.511 81.4835C362.084 81.4835 364.305 82.0358 366.171 83.1403C368.049 84.2339 369.496 85.7693 370.512 87.7465C371.529 89.7127 372.037 92.0102 372.037 94.6392C372.037 97.246 371.529 99.538 370.512 101.515C369.496 103.481 368.049 105.017 366.171 106.121C364.305 107.215 362.084 107.762 359.511 107.762ZM359.544 102.294C360.715 102.294 361.692 101.963 362.476 101.3C363.261 100.626 363.852 99.7092 364.249 98.5494C364.658 97.3896 364.862 96.0696 364.862 94.5894C364.862 93.1093 364.658 91.7893 364.249 90.6295C363.852 89.4697 363.261 88.5529 362.476 87.8791C361.692 87.2052 360.715 86.8683 359.544 86.8683C358.362 86.8683 357.368 87.2052 356.561 87.8791C355.766 88.5529 355.164 89.4697 354.755 90.6295C354.358 91.7893 354.159 93.1093 354.159 94.5894C354.159 96.0696 354.358 97.3896 354.755 98.5494C355.164 99.7092 355.766 100.626 356.561 101.3C357.368 101.963 358.362 102.294 359.544 102.294ZM390.163 81.8148V87.1169H374.837V81.8148H390.163ZM378.316 75.7175H385.375V99.4441C385.375 100.096 385.474 100.604 385.673 100.968C385.872 101.322 386.148 101.57 386.501 101.714C386.866 101.858 387.286 101.929 387.761 101.929C388.092 101.929 388.423 101.902 388.755 101.847C389.086 101.78 389.34 101.731 389.517 101.698L390.627 106.95C390.273 107.06 389.776 107.187 389.136 107.331C388.495 107.486 387.716 107.579 386.8 107.613C385.098 107.679 383.607 107.452 382.326 106.933C381.056 106.414 380.067 105.608 379.36 104.514C378.653 103.421 378.305 102.04 378.316 100.372V75.7175ZM406.086 107.762C403.468 107.762 401.214 107.232 399.326 106.171C397.448 105.1 396.001 103.586 394.985 101.631C393.968 99.6651 393.46 97.3399 393.46 94.6557C393.46 92.0378 393.968 89.7403 394.985 87.7631C396.001 85.7858 397.431 84.2449 399.276 83.1403C401.132 82.0358 403.308 81.4835 405.804 81.4835C407.483 81.4835 409.046 81.7541 410.493 82.2953C411.951 82.8255 413.221 83.6264 414.304 84.6978C415.397 85.7693 416.248 87.1169 416.856 88.7406C417.463 90.3533 417.767 92.2422 417.767 94.4072V96.3458H396.277V91.9716H411.123C411.123 90.9553 410.902 90.0551 410.46 89.2708C410.018 88.4866 409.405 87.8735 408.621 87.4317C407.848 86.9788 406.947 86.7524 405.92 86.7524C404.849 86.7524 403.899 87.0009 403.07 87.498C402.253 87.984 401.612 88.6412 401.148 89.4697C400.684 90.2871 400.447 91.1984 400.436 92.2035V96.3623C400.436 97.6216 400.668 98.7096 401.132 99.6264C401.607 100.543 402.275 101.25 403.136 101.747C403.998 102.244 405.02 102.493 406.202 102.493C406.986 102.493 407.704 102.382 408.356 102.161C409.007 101.941 409.565 101.609 410.029 101.167C410.493 100.725 410.847 100.184 411.09 99.5435L417.618 99.9743C417.286 101.543 416.607 102.913 415.58 104.083C414.563 105.243 413.249 106.149 411.636 106.801C410.035 107.441 408.184 107.762 406.086 107.762ZM428.769 99.9412L428.785 91.4745H429.812L437.964 81.8148H446.066L435.114 94.606H433.441L428.769 99.9412ZM422.373 107.265V73.3316H429.431V107.265H422.373ZM438.279 107.265L430.79 96.1801L435.496 91.1928L446.547 107.265H438.279Z" fill="white"/>
</g>
<defs>
<clipPath id="clip0_115_352">
<rect width="420" height="194" fill="white"/>
</clipPath>
</defs>
</svg>
