<svg width="469" height="194" viewBox="0 0 469 194" fill="none" xmlns="http://www.w3.org/2000/svg">
<path d="M11.9493 114V80.0669H19.1236V108.085H33.6711V114H11.9493ZM42.2496 115.624L39.0187 113.437L57.2942 87.1253L60.5582 89.3124L42.2496 115.624ZM49.7885 114.53C47.2148 114.53 44.989 113.983 43.1112 112.89C41.2444 111.785 39.8029 110.25 38.7867 108.284C37.7705 106.318 37.2624 104.026 37.2624 101.408C37.2624 98.7787 37.7705 96.4812 38.7867 94.515C39.8029 92.5378 41.2444 91.0024 43.1112 89.9088C44.989 88.8042 47.2148 88.2519 49.7885 88.2519C52.3622 88.2519 54.5824 88.8042 56.4491 89.9088C58.327 91.0024 59.774 92.5378 60.7902 94.515C61.8064 96.4812 62.3145 98.7787 62.3145 101.408C62.3145 104.026 61.8064 106.318 60.7902 108.284C59.774 110.25 58.327 111.785 56.4491 112.89C54.5824 113.983 52.3622 114.53 49.7885 114.53ZM49.8216 109.062C50.9925 109.062 51.97 108.731 52.7543 108.068C53.5385 107.395 54.1295 106.478 54.5272 105.318C54.9359 104.158 55.1402 102.844 55.1402 101.375C55.1402 99.8833 54.9359 98.5578 54.5272 97.398C54.1295 96.2382 53.5385 95.3213 52.7543 94.6475C51.97 93.9737 50.9925 93.6368 49.8216 93.6368C48.6397 93.6368 47.6455 93.9737 46.8392 94.6475C46.0439 95.3213 45.4419 96.2382 45.0332 97.398C44.6355 98.5578 44.4367 99.8833 44.4367 101.375C44.4367 102.844 44.6355 104.158 45.0332 105.318C45.4419 106.478 46.0439 107.395 46.8392 108.068C47.6455 108.731 48.6397 109.062 49.8216 109.062ZM66.9041 114V88.5502H73.7471V92.9907H74.0122C74.4761 91.4111 75.2548 90.2181 76.3484 89.4118C77.4419 88.5944 78.7012 88.1857 80.1261 88.1857C80.4796 88.1857 80.8606 88.2078 81.2693 88.2519C81.678 88.2961 82.037 88.3569 82.3463 88.4342V94.6972C82.0149 94.5978 81.5565 94.5095 80.9711 94.4321C80.3857 94.3548 79.8499 94.3162 79.3639 94.3162C78.3256 94.3162 77.3977 94.5426 76.5803 94.9955C75.774 95.4373 75.1333 96.0559 74.6584 96.8512C74.1944 97.6465 73.9625 98.5633 73.9625 99.6016V114H66.9041ZM96.4092 114.497C93.7913 114.497 91.5379 113.967 89.6491 112.906C87.7713 111.835 86.3242 110.322 85.308 108.367C84.2918 106.4 83.7837 104.075 83.7837 101.391C83.7837 98.7732 84.2918 96.4756 85.308 94.4984C86.3242 92.5212 87.7547 90.9803 89.5994 89.8757C91.4551 88.7711 93.6311 88.2188 96.1275 88.2188C97.8065 88.2188 99.3695 88.4894 100.816 89.0307C102.275 89.5609 103.545 90.3617 104.627 91.4332C105.721 92.5046 106.571 93.8522 107.179 95.476C107.786 97.0887 108.09 98.9775 108.09 101.143V103.081H86.6004V98.7069H101.446C101.446 97.6907 101.225 96.7904 100.783 96.0062C100.342 95.2219 99.7285 94.6089 98.9442 94.167C98.171 93.7142 97.2707 93.4877 96.2435 93.4877C95.172 93.4877 94.2221 93.7363 93.3936 94.2333C92.5762 94.7193 91.9356 95.3766 91.4716 96.205C91.0077 97.0224 90.7702 97.9337 90.7592 98.9389V103.098C90.7592 104.357 90.9911 105.445 91.4551 106.362C91.93 107.279 92.5983 107.985 93.4599 108.483C94.3215 108.98 95.3432 109.228 96.5251 109.228C97.3094 109.228 98.0274 109.118 98.6791 108.897C99.3308 108.676 99.8886 108.344 100.353 107.903C100.816 107.461 101.17 106.92 101.413 106.279L107.941 106.71C107.61 108.278 106.93 109.648 105.903 110.819C104.887 111.979 103.572 112.884 101.96 113.536C100.358 114.177 98.5079 114.497 96.4092 114.497ZM119.755 99.2868V114H112.696V88.5502H119.423V93.0404H119.722C120.285 91.5602 121.229 90.3893 122.555 89.5278C123.88 88.6551 125.488 88.2188 127.376 88.2188C129.144 88.2188 130.685 88.6054 131.999 89.3786C133.314 90.1518 134.335 91.2564 135.064 92.6924C135.793 94.1173 136.158 95.8184 136.158 97.7956V114H129.1V99.0549C129.111 97.4974 128.713 96.2823 127.907 95.4097C127.1 94.526 125.99 94.0842 124.576 94.0842C123.626 94.0842 122.787 94.2885 122.058 94.6972C121.34 95.1059 120.776 95.7024 120.368 96.4867C119.97 97.2599 119.766 98.1933 119.755 99.2868ZM162.896 95.8074L156.434 96.205C156.324 95.6527 156.086 95.1557 155.722 94.7138C155.357 94.2609 154.877 93.9019 154.28 93.6368C153.695 93.3607 152.993 93.2226 152.176 93.2226C151.082 93.2226 150.16 93.4546 149.409 93.9185C148.658 94.3714 148.282 94.9789 148.282 95.7411C148.282 96.3486 148.525 96.8622 149.011 97.282C149.497 97.7017 150.331 98.0386 151.513 98.2927L156.119 99.2206C158.594 99.7287 160.438 100.546 161.653 101.673C162.868 102.799 163.476 104.28 163.476 106.113C163.476 107.781 162.984 109.245 162.001 110.504C161.029 111.763 159.693 112.746 157.992 113.453C156.302 114.149 154.352 114.497 152.143 114.497C148.774 114.497 146.09 113.796 144.09 112.393C142.102 110.979 140.937 109.057 140.594 106.627L147.537 106.262C147.746 107.29 148.255 108.074 149.061 108.615C149.867 109.145 150.9 109.41 152.159 109.41C153.396 109.41 154.391 109.173 155.142 108.698C155.904 108.212 156.291 107.588 156.302 106.826C156.291 106.185 156.02 105.66 155.49 105.252C154.959 104.832 154.142 104.512 153.037 104.291L148.63 103.412C146.145 102.915 144.295 102.054 143.08 100.828C141.876 99.6016 141.274 98.0386 141.274 96.1387C141.274 94.5039 141.715 93.0956 142.599 91.9137C143.494 90.7318 144.748 89.8205 146.36 89.1798C147.984 88.5391 149.884 88.2188 152.06 88.2188C155.274 88.2188 157.804 88.8981 159.648 90.2568C161.504 91.6154 162.587 93.4656 162.896 95.8074ZM174.316 106.677L174.333 98.2098H175.36L183.512 88.5502H191.614L180.662 101.341H178.988L174.316 106.677ZM167.92 114V80.0669H174.979V114H167.92ZM183.827 114L176.337 102.915L181.043 97.9282L192.094 114H183.827ZM205.528 114.497C202.954 114.497 200.728 113.95 198.85 112.857C196.984 111.752 195.542 110.217 194.526 108.251C193.51 106.273 193.002 103.981 193.002 101.375C193.002 98.7456 193.51 96.448 194.526 94.4819C195.542 92.5046 196.984 90.9692 198.85 89.8757C200.728 88.7711 202.954 88.2188 205.528 88.2188C208.101 88.2188 210.322 88.7711 212.188 89.8757C214.066 90.9692 215.513 92.5046 216.529 94.4819C217.546 96.448 218.054 98.7456 218.054 101.375C218.054 103.981 217.546 106.273 216.529 108.251C215.513 110.217 214.066 111.752 212.188 112.857C210.322 113.95 208.101 114.497 205.528 114.497ZM205.561 109.029C206.732 109.029 207.709 108.698 208.494 108.035C209.278 107.361 209.869 106.445 210.266 105.285C210.675 104.125 210.879 102.805 210.879 101.325C210.879 99.8446 210.675 98.5247 210.266 97.3648C209.869 96.205 209.278 95.2882 208.494 94.6144C207.709 93.9406 206.732 93.6037 205.561 93.6037C204.379 93.6037 203.385 93.9406 202.578 94.6144C201.783 95.2882 201.181 96.205 200.772 97.3648C200.375 98.5247 200.176 99.8446 200.176 101.325C200.176 102.805 200.375 104.125 200.772 105.285C201.181 106.445 201.783 107.361 202.578 108.035C203.385 108.698 204.379 109.029 205.561 109.029ZM234.109 124.074C231.823 124.074 229.862 123.759 228.227 123.129C226.603 122.511 225.311 121.666 224.35 120.594C223.389 119.523 222.765 118.319 222.478 116.982L229.006 116.104C229.205 116.612 229.519 117.087 229.95 117.529C230.381 117.971 230.95 118.324 231.657 118.59C232.375 118.866 233.247 119.004 234.275 119.004C235.81 119.004 237.075 118.628 238.069 117.877C239.074 117.137 239.577 115.894 239.577 114.149V109.493H239.279C238.969 110.2 238.505 110.868 237.887 111.498C237.268 112.128 236.473 112.641 235.501 113.039C234.529 113.437 233.369 113.635 232.021 113.635C230.11 113.635 228.371 113.194 226.802 112.31C225.245 111.415 224.002 110.051 223.074 108.217C222.157 106.373 221.699 104.042 221.699 101.225C221.699 98.3424 222.168 95.9344 223.107 94.0014C224.046 92.0683 225.294 90.6213 226.852 89.6603C228.42 88.6993 230.138 88.2188 232.005 88.2188C233.43 88.2188 234.623 88.4618 235.584 88.9478C236.545 89.4228 237.318 90.0193 237.903 90.7373C238.5 91.4442 238.958 92.1401 239.279 92.825H239.544V88.5502H246.552V114.249C246.552 116.414 246.022 118.225 244.962 119.683C243.901 121.141 242.432 122.235 240.554 122.964C238.688 123.704 236.539 124.074 234.109 124.074ZM234.258 108.333C235.396 108.333 236.357 108.052 237.141 107.488C237.936 106.914 238.544 106.097 238.964 105.036C239.395 103.965 239.61 102.683 239.61 101.192C239.61 99.7011 239.4 98.4087 238.98 97.3151C238.561 96.2105 237.953 95.3545 237.158 94.747C236.362 94.1394 235.396 93.8357 234.258 93.8357C233.098 93.8357 232.121 94.1505 231.325 94.7801C230.53 95.3987 229.928 96.2602 229.519 97.3648C229.111 98.4694 228.906 99.7452 228.906 101.192C228.906 102.661 229.111 103.932 229.519 105.003C229.939 106.064 230.541 106.886 231.325 107.472C232.121 108.046 233.098 108.333 234.258 108.333ZM263.1 114V80.0669H270.159V92.825H270.374C270.683 92.1401 271.131 91.4442 271.716 90.7373C272.313 90.0193 273.086 89.4228 274.036 88.9478C274.997 88.4618 276.19 88.2188 277.615 88.2188C279.471 88.2188 281.183 88.7048 282.751 89.6769C284.32 90.6379 285.573 92.0904 286.512 94.0345C287.451 95.9675 287.921 98.3921 287.921 101.308C287.921 104.147 287.462 106.544 286.545 108.499C285.64 110.443 284.403 111.918 282.834 112.923C281.277 113.917 279.531 114.414 277.598 114.414C276.229 114.414 275.063 114.188 274.102 113.735C273.152 113.282 272.373 112.713 271.766 112.028C271.158 111.332 270.695 110.631 270.374 109.924H270.059V114H263.1ZM270.01 101.275C270.01 102.788 270.22 104.108 270.639 105.235C271.059 106.362 271.667 107.24 272.462 107.87C273.257 108.488 274.224 108.797 275.361 108.797C276.51 108.797 277.482 108.483 278.278 107.853C279.073 107.212 279.675 106.329 280.084 105.202C280.503 104.064 280.713 102.755 280.713 101.275C280.713 99.806 280.509 98.5136 280.1 97.398C279.691 96.2823 279.089 95.4097 278.294 94.7801C277.499 94.1505 276.521 93.8357 275.361 93.8357C274.213 93.8357 273.241 94.1394 272.445 94.747C271.661 95.3545 271.059 96.2161 270.639 97.3317C270.22 98.4473 270.01 99.7618 270.01 101.275ZM292.63 114V88.5502H299.689V114H292.63ZM296.176 85.2695C295.127 85.2695 294.226 84.9216 293.475 84.2257C292.735 83.5188 292.365 82.6738 292.365 81.6907C292.365 80.7186 292.735 79.8847 293.475 79.1888C294.226 78.4818 295.127 78.1284 296.176 78.1284C297.225 78.1284 298.12 78.4818 298.86 79.1888C299.611 79.8847 299.987 80.7186 299.987 81.6907C299.987 82.6738 299.611 83.5188 298.86 84.2257C298.12 84.9216 297.225 85.2695 296.176 85.2695ZM305.475 114V80.0669H312.534V92.825H312.749C313.058 92.1401 313.506 91.4442 314.091 90.7373C314.688 90.0193 315.461 89.4228 316.411 88.9478C317.372 88.4618 318.565 88.2188 319.99 88.2188C321.845 88.2188 323.558 88.7048 325.126 89.6769C326.695 90.6379 327.948 92.0904 328.887 94.0345C329.826 95.9675 330.296 98.3921 330.296 101.308C330.296 104.147 329.837 106.544 328.92 108.499C328.015 110.443 326.777 111.918 325.209 112.923C323.651 113.917 321.906 114.414 319.973 114.414C318.603 114.414 317.438 114.188 316.477 113.735C315.527 113.282 314.748 112.713 314.141 112.028C313.533 111.332 313.069 110.631 312.749 109.924H312.434V114H305.475ZM312.385 101.275C312.385 102.788 312.594 104.108 313.014 105.235C313.434 106.362 314.041 107.24 314.837 107.87C315.632 108.488 316.599 108.797 317.736 108.797C318.885 108.797 319.857 108.483 320.652 107.853C321.448 107.212 322.05 106.329 322.458 105.202C322.878 104.064 323.088 102.755 323.088 101.275C323.088 99.806 322.884 98.5136 322.475 97.398C322.066 96.2823 321.464 95.4097 320.669 94.7801C319.874 94.1505 318.896 93.8357 317.736 93.8357C316.588 93.8357 315.616 94.1394 314.82 94.747C314.036 95.3545 313.434 96.2161 313.014 97.3317C312.594 98.4473 312.385 99.7618 312.385 101.275ZM342.064 80.0669V114H335.005V80.0669H342.064ZM347.718 114V88.5502H354.776V114H347.718ZM351.263 85.2695C350.214 85.2695 349.314 84.9216 348.563 84.2257C347.823 83.5188 347.453 82.6738 347.453 81.6907C347.453 80.7186 347.823 79.8847 348.563 79.1888C349.314 78.4818 350.214 78.1284 351.263 78.1284C352.313 78.1284 353.208 78.4818 353.948 79.1888C354.699 79.8847 355.074 80.7186 355.074 81.6907C355.074 82.6738 354.699 83.5188 353.948 84.2257C353.208 84.9216 352.313 85.2695 351.263 85.2695ZM371.929 114.497C369.355 114.497 367.13 113.95 365.252 112.857C363.385 111.752 361.944 110.217 360.927 108.251C359.911 106.273 359.403 103.981 359.403 101.375C359.403 98.7456 359.911 96.448 360.927 94.4819C361.944 92.5046 363.385 90.9692 365.252 89.8757C367.13 88.7711 369.355 88.2188 371.929 88.2188C374.503 88.2188 376.723 88.7711 378.59 89.8757C380.468 90.9692 381.915 92.5046 382.931 94.4819C383.947 96.448 384.455 98.7456 384.455 101.375C384.455 103.981 383.947 106.273 382.931 108.251C381.915 110.217 380.468 111.752 378.59 112.857C376.723 113.95 374.503 114.497 371.929 114.497ZM371.962 109.029C373.133 109.029 374.111 108.698 374.895 108.035C375.679 107.361 376.27 106.445 376.668 105.285C377.076 104.125 377.281 102.805 377.281 101.325C377.281 99.8446 377.076 98.5247 376.668 97.3648C376.27 96.205 375.679 95.2882 374.895 94.6144C374.111 93.9406 373.133 93.6037 371.962 93.6037C370.78 93.6037 369.786 93.9406 368.98 94.6144C368.184 95.2882 367.582 96.205 367.174 97.3648C366.776 98.5247 366.577 99.8446 366.577 101.325C366.577 102.805 366.776 104.125 367.174 105.285C367.582 106.445 368.184 107.361 368.98 108.035C369.786 108.698 370.78 109.029 371.962 109.029ZM402.581 88.5502V93.8522H387.255V88.5502H402.581ZM390.735 82.4528H397.793V106.179C397.793 106.831 397.892 107.339 398.091 107.704C398.29 108.057 398.566 108.306 398.92 108.449C399.284 108.593 399.704 108.665 400.179 108.665C400.51 108.665 400.842 108.637 401.173 108.582C401.505 108.516 401.759 108.466 401.935 108.433L403.045 113.685C402.692 113.796 402.195 113.923 401.554 114.066C400.914 114.221 400.135 114.315 399.218 114.348C397.517 114.414 396.026 114.188 394.744 113.669C393.474 113.149 392.486 112.343 391.779 111.25C391.072 110.156 390.724 108.775 390.735 107.107V82.4528ZM418.504 114.497C415.886 114.497 413.633 113.967 411.744 112.906C409.866 111.835 408.419 110.322 407.403 108.367C406.387 106.4 405.879 104.075 405.879 101.391C405.879 98.7732 406.387 96.4756 407.403 94.4984C408.419 92.5212 409.85 90.9803 411.694 89.8757C413.55 88.7711 415.726 88.2188 418.223 88.2188C419.902 88.2188 421.465 88.4894 422.912 89.0307C424.37 89.5609 425.64 90.3617 426.722 91.4332C427.816 92.5046 428.666 93.8522 429.274 95.476C429.881 97.0887 430.185 98.9775 430.185 101.143V103.081H408.695V98.7069H423.541C423.541 97.6907 423.32 96.7904 422.878 96.0062C422.437 95.2219 421.823 94.6089 421.039 94.167C420.266 93.7142 419.366 93.4877 418.339 93.4877C417.267 93.4877 416.317 93.7363 415.489 94.2333C414.671 94.7193 414.031 95.3766 413.567 96.205C413.103 97.0224 412.865 97.9337 412.854 98.9389V103.098C412.854 104.357 413.086 105.445 413.55 106.362C414.025 107.279 414.693 107.985 415.555 108.483C416.417 108.98 417.438 109.228 418.62 109.228C419.404 109.228 420.122 109.118 420.774 108.897C421.426 108.676 421.984 108.344 422.448 107.903C422.912 107.461 423.265 106.92 423.508 106.279L430.036 106.71C429.705 108.278 429.025 109.648 427.998 110.819C426.982 111.979 425.667 112.884 424.055 113.536C422.453 114.177 420.603 114.497 418.504 114.497ZM441.187 106.677L441.204 98.2098H442.231L450.383 88.5502H458.485L447.533 101.341H445.859L441.187 106.677ZM434.791 114V80.0669H441.85V114H434.791ZM450.698 114L443.208 102.915L447.914 97.9282L458.965 114H450.698Z" fill="white"/>
</svg>
