<svg width="304" height="194" viewBox="0 0 304 194" fill="none" xmlns="http://www.w3.org/2000/svg">
<g clip-path="url(#clip0_115_344)">
<path fill-rule="evenodd" clip-rule="evenodd" d="M139.808 136.417C139.261 136.262 123.338 128.875 114.573 120.306C110.174 116.005 107.733 113.028 107.721 112.83C107.676 112.1 108.611 112.724 121.054 107.782C122.813 107.084 123.069 107.04 124.286 108.52C127.158 112.012 129.794 115.157 138.527 120.533C139.476 121.118 139.748 121.181 142.747 118.819C156.566 107.935 168.57 84.9554 156.098 77.1369C151.486 74.2457 144.184 76.5846 139.948 83.2338C138.373 85.7068 139.108 80.5311 132.889 76.7919C123.682 71.2562 110.209 79.7702 115.509 91.351C116.295 93.0694 128.253 88.99 126.684 90.8959C125.663 92.1362 114.675 105.485 113.843 106.331C113.29 106.895 113.081 106.577 96.8605 99.0185C91.6688 96.599 90.7239 96.1865 91.6042 96.022C102.309 94.0198 103.194 94.5887 102.847 93.7388C102.687 93.3455 97.8285 86.4358 100.691 75.6642C104.661 60.727 121.881 49.8137 138.061 66.0953C138.886 66.925 139.134 67.9532 140.301 66.5324C161.05 41.2607 192.238 79.5762 174.858 104.567C164.097 120.042 144.221 132.353 139.808 136.417H139.808Z" fill="white"/>
<path fill-rule="evenodd" clip-rule="evenodd" d="M211.685 87.404C211.994 86.5739 218.938 68.7284 219.109 68.5291C219.528 68.0414 219.677 68.1691 241.872 68.1569C242.119 68.1569 244.878 68.1553 244.948 68.4507C245.047 68.866 225.197 129.05 224.819 129.242C224.563 129.372 199.126 129.644 198.678 129.087C198.445 128.797 179.991 74.2635 178.941 71.2225C178.867 71.0084 178.061 68.6772 178.374 68.45C178.534 68.3332 203.759 68.1444 203.936 68.2312C204.463 68.49 204.515 68.9995 210.571 85.4811C211.12 86.9761 210.779 87.4344 211.685 87.404Z" fill="white"/>
<path fill-rule="evenodd" clip-rule="evenodd" d="M303.307 68.801C303.857 73.5587 303.327 73.5527 303.649 78.3527C303.708 82.4883 303.832 82.4576 303.754 82.8055C303.536 83.7824 280.526 82.985 279.887 83.6058C279.503 83.9792 279.789 91.272 279.801 91.3133C280.109 92.3411 294.981 91.2957 295.698 91.8327C296.197 92.2067 296.134 105.472 296.061 105.613C295.74 106.226 283.519 105.756 280.793 105.828C279.557 105.86 279.981 108.17 279.95 112.491C279.935 114.492 280.823 113.958 282.836 113.975C302.731 114.145 302.842 114.083 303.312 114.543C303.77 118.625 303.366 118.612 303.649 122.732C303.701 125.818 303.7 125.782 303.815 128.892C303.636 128.998 303.538 129.212 303.359 129.318C302.579 129.78 257.785 129.215 253.823 129.164C253.05 129.155 252.946 128.793 252.944 128.192C252.928 123.437 252.752 69.6666 252.983 68.7559C253.208 67.8695 253.623 68.1261 264.402 68.2592C265.619 68.2743 265.591 68.2845 266.793 68.288C302.806 68.3895 302.9 68.4144 303.307 68.8013L303.307 68.801Z" fill="white"/>
<path fill-rule="evenodd" clip-rule="evenodd" d="M78.0111 129.373C55.7446 129.373 55.493 129.444 55.3375 128.923C55.3046 128.813 55.4239 68.7827 55.5964 68.5043C55.845 68.1027 55.9913 68.1559 76.9871 68.1565C79.2415 68.1565 81.7484 67.705 81.7551 69.1351C81.879 94.6474 81.5234 113.357 82.1407 113.795C82.3247 113.925 82.3574 113.896 97.1282 113.894C105.14 113.893 106.242 113.672 106.251 114.547C106.263 115.713 106.39 128.362 105.887 129.127C105.702 129.408 105.597 129.373 78.0111 129.373Z" fill="white"/>
<path fill-rule="evenodd" clip-rule="evenodd" d="M0.936928 107.4C2.54461 104.597 2.43069 104.401 5.26397 102.87C5.83773 102.56 8.82781 100.944 13.1436 100.776C25.166 100.308 26.6332 108.536 26.9184 109.001C27.6182 110.144 28.6313 107.111 35.4243 103.43C39.4998 101.221 47.4435 98.5121 47.6224 98.5748C48.3884 98.843 48.1072 105.563 48.0534 105.701C47.7916 106.371 30.0057 114.573 28.9379 115.323C28.3875 115.709 28.4876 120.839 28.5683 120.997C28.9196 121.686 46.0028 121.091 47.2998 121.271C47.7728 121.336 48.1481 121.438 48.2393 127.164C48.2537 128.075 44.8777 127.758 44.2147 127.757C0.975327 127.667 0.944928 127.726 0.531168 127.486C-0.329312 126.984 0.144608 126.73 0.0204481 126.487C0.0476481 126.329 0.328928 126.301 0.355808 126.142C0.458208 125.544 0.515168 117.665 0.520288 116.928C1.19997 111.897 0.378208 111.485 0.936288 107.4H0.936928ZM13.1302 107.553C7.49149 108.821 8.38941 110.49 8.41437 116.245C8.42493 118.693 8.01565 121.008 9.39421 121.034C19.5257 121.225 19.5424 121.422 20.3363 121.054C20.7139 120.878 20.9283 110.821 20.206 109.84C18.2137 107.136 13.7232 107.504 13.1302 107.553Z" fill="white"/>
<path fill-rule="evenodd" clip-rule="evenodd" d="M0.521646 83.8141C0.497966 70.5479 0.348206 70.0784 1.18565 70.0282C7.68933 69.6384 7.86885 69.976 7.93893 70.513C8.11493 71.8592 7.67557 87.328 8.33637 87.6253C8.55717 87.7245 18.5447 87.9172 18.8759 87.4992C19.4084 86.8269 18.714 71.4365 19.6132 71.1261C19.794 71.0637 26.5636 70.9892 26.8016 71.1876C27.6004 71.8525 26.4932 86.9373 27.5293 87.4532C27.6794 87.528 39.8596 87.5565 40.0608 87.4407C40.9927 86.9037 39.6797 70.1863 40.4893 69.5255C40.5351 69.488 47.8301 68.8804 48.0964 69.7767C48.2964 70.4503 48.2996 91.4848 48.2996 93.3725C48.2999 94.4762 47.6669 94.2525 35.3389 94.2263C32.608 94.2205 1.84613 94.1552 1.20421 94.0388C1.14181 94.0276 0.633646 93.9351 0.474926 93.7232C0.403886 93.6285 0.597486 93.4666 0.526766 93.3719C0.536046 93.2407 0.721966 93.1655 0.731246 93.0343C0.995566 89.2973 0.584686 84.5488 0.521326 83.8138L0.521646 83.8141Z" fill="white"/>
</g>
<defs>
<clipPath id="clip0_115_344">
<rect width="304" height="194" fill="white"/>
</clipPath>
</defs>
</svg>
