<?xml version="1.0" encoding="UTF-8" standalone="no"?><!DOCTYPE svg PUBLIC "-//W3C//DTD SVG 1.1//EN" "http://www.w3.org/Graphics/SVG/1.1/DTD/svg11.dtd"><svg width="100%" height="100%" viewBox="0 0 100 100" version="1.1" xmlns="http://www.w3.org/2000/svg" xmlns:xlink="http://www.w3.org/1999/xlink" xml:space="preserve" xmlns:serif="http://www.serif.com/" style="fill-rule:evenodd;clip-rule:evenodd;stroke-linejoin:round;stroke-miterlimit:2;"><g><path d="M80.596,24.407l19.241,12.906l-9.223,6.187l0,33.804l-11.241,7.593l0,-33.857l-6.544,4.39l0,35.118l-11.241,7.593l0,-35.171l-6.299,4.225l-0,32.768l-11.128,0l0,-33.029l-6.61,-4.434l-0,35.052l-11.241,-7.593l0,-34.999l-6.139,-4.118l-0,34.688l-11.241,-7.593l0,-34.635l-8.929,-5.989l19.241,-12.906l30.677,20.577l30.677,-20.577Zm-30.677,-24.407l24.543,16.462l-24.543,16.462l-24.543,-16.462l24.543,-16.462Z" style="fill:#f22828;"/></g></svg>