<svg width="21" height="25" viewBox="0 0 21 25" fill="none" xmlns="http://www.w3.org/2000/svg">
<path d="M0.356019 24.7901C0.56615 24.9234 0.85169 24.9989 1.15008 25C1.29816 25.0008 1.44498 24.9827 1.58152 24.9466C1.71806 24.9105 1.84145 24.8573 1.94414 24.7901L20.668 13.008C20.7732 12.9427 20.8567 12.8649 20.9137 12.7791C20.9707 12.6933 21 12.6013 21 12.5083C21 12.4153 20.9707 12.3233 20.9137 12.2375C20.8567 12.1518 20.7732 12.074 20.668 12.0087L1.94414 0.224027C1.84118 0.154773 1.71714 0.0992587 1.57939 0.0607887C1.44165 0.0223187 1.29301 0.00167912 1.14232 9.82535e-05C0.991639 -0.00148261 0.841989 0.0160276 0.70228 0.0515867C0.562571 0.0871458 0.435657 0.140027 0.329092 0.207084C0.222527 0.27414 0.13849 0.354001 0.0819802 0.441914C0.0254705 0.529827 -0.00235613 0.623995 0.000156143 0.718814C0.00266842 0.813633 0.0354683 0.907165 0.0966039 0.993843C0.15774 1.08052 0.245961 1.15858 0.356019 1.22336L18.2859 12.5083L0.356019 23.7908C0.251342 23.8563 0.168271 23.9341 0.111585 24.0199C0.054899 24.1056 0.0257164 24.1976 0.0257164 24.2904C0.0257164 24.3833 0.054899 24.4753 0.111585 24.561C0.168271 24.6468 0.251342 24.7246 0.356019 24.7901Z" fill="white"/>
</svg>
