<svg width="298" height="275" viewBox="0 0 298 275" fill="none" xmlns="http://www.w3.org/2000/svg">
<g clip-path="url(#clip0_176_238)">
<path fill-rule="evenodd" clip-rule="evenodd" d="M137.958 82L67.3267 129.173L137.958 176.346L208.589 129.173L137.958 82Z" fill="#0B2D74"/>
</g>
<g clip-path="url(#clip1_176_238)">
<path fill-rule="evenodd" clip-rule="evenodd" d="M34.9332 89L0.160883 112.224L34.9332 135.447L69.7056 112.224L34.9332 89Z" fill="#0B2D74"/>
</g>
<g clip-path="url(#clip2_176_238)">
<path fill-rule="evenodd" clip-rule="evenodd" d="M104.933 172L70.1604 195.224L104.933 218.447L139.705 195.224L104.933 172Z" fill="#0B2D74"/>
</g>
<g clip-path="url(#clip3_176_238)">
<path fill-rule="evenodd" clip-rule="evenodd" d="M262.933 135L228.161 158.224L262.933 181.447L297.705 158.224L262.933 135Z" fill="#0B2D74"/>
</g>
<defs>
<clipPath id="clip0_176_238">
<rect width="141.59" height="94.6627" fill="white" transform="matrix(-1 0 0 1 208.589 82)"/>
</clipPath>
<clipPath id="clip1_176_238">
<rect width="69.7056" height="46.6032" fill="white" transform="matrix(-1 0 0 1 69.7056 89)"/>
</clipPath>
<clipPath id="clip2_176_238">
<rect width="69.7056" height="46.6032" fill="white" transform="matrix(-1 0 0 1 139.705 172)"/>
</clipPath>
<clipPath id="clip3_176_238">
<rect width="69.7056" height="46.6032" fill="white" transform="matrix(-1 0 0 1 297.705 135)"/>
</clipPath>
</defs>
</svg>
