<svg width="236" height="303" viewBox="0 0 236 303" fill="none" xmlns="http://www.w3.org/2000/svg">
<g clip-path="url(#clip0_97_81)">
<path fill-rule="evenodd" clip-rule="evenodd" d="M189.977 57.2849L235.332 87.5764L213.591 102.097V181.436L187.094 199.257V119.793L171.668 130.096V212.52L145.17 230.341V147.793L130.322 157.71V234.617H104.092V157.097L88.511 146.691V228.959L62.0136 211.138V128.994L47.5438 119.33V200.744L21.0464 182.923V101.633L-0.000640869 87.5761L45.3544 57.2845L117.666 105.579L189.977 57.2845L189.977 57.2849ZM117.666 0L175.517 38.6373L117.666 77.2746L59.8152 38.6373L117.666 0Z" fill="#F22828"/>
<path d="M7.98908 272.492H1.79919V252.433H8.26332C10.2091 252.433 11.8741 252.835 13.2583 253.638C14.6426 254.435 15.7036 255.58 16.4414 257.076C17.1793 258.564 17.5482 260.347 17.5482 262.423C17.5482 264.513 17.176 266.312 16.4316 267.82C15.6873 269.322 14.6034 270.477 13.18 271.287C11.7566 272.09 10.0263 272.492 7.98908 272.492ZM4.22813 270.337H7.83238C9.49085 270.337 10.8653 270.017 11.9557 269.377C13.0461 268.737 13.859 267.826 14.3945 266.645C14.9299 265.463 15.1976 264.056 15.1976 262.423C15.1976 260.804 14.9331 259.41 14.4042 258.241C13.8754 257.066 13.0853 256.165 12.0341 255.538C10.9828 254.905 9.67368 254.588 8.10661 254.588H4.22813V270.337ZM21.6225 272.492V252.433H33.7281V254.588H24.0515V261.365H33.1013V263.52H24.0515V270.337H33.8848V272.492H21.6225ZM54.0117 252.433V272.492H51.6612L40.7309 256.743H40.535V272.492H38.1061V252.433H40.4567L51.4261 268.221H51.622V252.433H54.0117ZM79.7924 252.433H82.2213V265.714C82.2213 267.085 81.8981 268.31 81.2517 269.387C80.6118 270.458 79.7075 271.303 78.5387 271.924C77.37 272.537 75.9988 272.844 74.4252 272.844C72.8516 272.844 71.4804 272.537 70.3116 271.924C69.1429 271.303 68.2353 270.458 67.5889 269.387C66.949 268.31 66.6291 267.085 66.6291 265.714V252.433H69.058V265.518C69.058 266.498 69.2735 267.369 69.7044 268.133C70.1354 268.891 70.7491 269.488 71.5457 269.926C72.3488 270.357 73.3087 270.572 74.4252 270.572C75.5417 270.572 76.5015 270.357 77.3047 269.926C78.1078 269.488 78.7216 268.891 79.146 268.133C79.5769 267.369 79.7924 266.498 79.7924 265.518V252.433ZM87.0719 272.492V252.433H89.5008V262.384H89.7359L98.7465 252.433H101.92L93.4968 261.483L101.92 272.492H98.9815L92.0081 263.168L89.5008 265.988V272.492H87.0719ZM105.064 272.492V252.433H111.841C113.408 252.433 114.695 252.701 115.7 253.236C116.706 253.765 117.45 254.493 117.933 255.42C118.416 256.348 118.658 257.402 118.658 258.584C118.658 259.766 118.416 260.814 117.933 261.728C117.45 262.642 116.709 263.36 115.71 263.883C114.711 264.398 113.434 264.656 111.88 264.656H106.396V262.462H111.802C112.873 262.462 113.735 262.306 114.388 261.992C115.047 261.679 115.524 261.235 115.818 260.66C116.118 260.079 116.268 259.387 116.268 258.584C116.268 257.781 116.118 257.079 115.818 256.478C115.517 255.878 115.037 255.414 114.378 255.087C113.718 254.754 112.847 254.588 111.763 254.588H107.493V272.492H105.064ZM114.505 263.481L119.442 272.492H116.621L111.763 263.481H114.505ZM123.528 272.492H120.982L128.347 252.433H130.854L138.219 272.492H135.673L129.679 255.607H129.522L123.528 272.492ZM124.468 264.656H134.733V266.811H124.468V264.656ZM143.773 252.433V272.492H141.344V252.433H143.773ZM164.548 252.433V272.492H162.198L151.268 256.743H151.072V272.492H148.643V252.433H150.993L161.963 268.221H162.159V252.433H164.548ZM180.378 257.448C180.261 256.455 179.784 255.685 178.948 255.136C178.112 254.588 177.087 254.314 175.873 254.314C174.985 254.314 174.208 254.457 173.542 254.745C172.882 255.032 172.367 255.427 171.994 255.93C171.629 256.433 171.446 257.004 171.446 257.644C171.446 258.179 171.573 258.639 171.828 259.025C172.089 259.403 172.422 259.72 172.827 259.975C173.232 260.223 173.656 260.429 174.1 260.592C174.544 260.748 174.952 260.876 175.324 260.974L177.362 261.522C177.884 261.659 178.465 261.849 179.105 262.09C179.751 262.332 180.368 262.662 180.956 263.079C181.55 263.491 182.04 264.02 182.425 264.666C182.81 265.313 183.003 266.106 183.003 267.046C183.003 268.13 182.719 269.109 182.151 269.984C181.589 270.859 180.767 271.555 179.683 272.07C178.605 272.586 177.296 272.844 175.755 272.844C174.319 272.844 173.075 272.612 172.024 272.149C170.979 271.685 170.156 271.039 169.556 270.21C168.961 269.38 168.625 268.417 168.547 267.32H171.054C171.119 268.078 171.374 268.705 171.818 269.201C172.269 269.691 172.837 270.056 173.522 270.298C174.214 270.533 174.959 270.65 175.755 270.65C176.683 270.65 177.515 270.5 178.253 270.2C178.991 269.893 179.575 269.469 180.006 268.927C180.437 268.378 180.652 267.738 180.652 267.007C180.652 266.341 180.466 265.799 180.094 265.381C179.722 264.963 179.232 264.624 178.625 264.363C178.018 264.101 177.362 263.873 176.656 263.677L174.188 262.972C172.621 262.521 171.381 261.878 170.467 261.042C169.552 260.207 169.095 259.113 169.095 257.761C169.095 256.638 169.399 255.659 170.006 254.823C170.62 253.981 171.443 253.328 172.474 252.864C173.513 252.394 174.671 252.159 175.951 252.159C177.244 252.159 178.393 252.391 179.399 252.854C180.404 253.311 181.201 253.938 181.789 254.735C182.383 255.531 182.696 256.436 182.729 257.448H180.378ZM186.997 272.492V252.433H189.426V262.384H189.661L198.671 252.433H201.845L193.422 261.483L201.845 272.492H198.906L191.933 263.168L189.426 265.988V272.492H186.997ZM204.988 272.492V252.433H217.094V254.588H207.417V261.365H216.467V263.52H207.417V270.337H217.251V272.492H204.988Z" fill="#F22828"/>
<path d="M1.08777 300.899V281.138H5.2658V289.851H5.52632L12.6377 281.138H17.6455L10.3122 289.986L17.7324 300.899H12.7342L7.32104 292.775L5.2658 295.283V300.899H1.08777ZM32.0274 281.138H36.2054V293.971C36.2054 295.412 35.8613 296.673 35.173 297.753C34.4911 298.834 33.5359 299.677 32.3072 300.282C31.0786 300.88 29.6473 301.179 28.0134 301.179C26.3731 301.179 24.9386 300.88 23.7099 300.282C22.4813 299.677 21.526 298.834 20.8442 297.753C20.1623 296.673 19.8214 295.412 19.8214 293.971V281.138H23.9994V293.614C23.9994 294.367 24.1634 295.036 24.4915 295.621C24.826 296.206 25.2956 296.666 25.9003 297.001C26.5049 297.335 27.2093 297.503 28.0134 297.503C28.8239 297.503 29.5283 297.335 30.1265 297.001C30.7312 296.666 31.1976 296.206 31.5256 295.621C31.8601 295.036 32.0274 294.367 32.0274 293.614V281.138ZM56.1717 281.138V300.899H52.563L43.9657 288.461H43.8209V300.899H39.6429V281.138H43.3095L51.8393 293.566H52.013V281.138H56.1717ZM70.3437 286.821C70.2665 286.043 69.9352 285.438 69.3499 285.007C68.7645 284.576 67.97 284.361 66.9665 284.361C66.2847 284.361 65.709 284.457 65.2394 284.65C64.7698 284.837 64.4096 285.097 64.1587 285.432C63.9142 285.766 63.792 286.146 63.792 286.57C63.7792 286.924 63.8531 287.233 64.0139 287.497C64.1812 287.76 64.4096 287.989 64.699 288.182C64.9885 288.368 65.323 288.532 65.7025 288.674C66.0821 288.809 66.4873 288.925 66.9183 289.021L68.6937 289.446C69.5557 289.639 70.3469 289.896 71.0674 290.218C71.7878 290.539 72.4118 290.935 72.9393 291.404C73.4668 291.874 73.8753 292.427 74.1647 293.064C74.4606 293.701 74.6118 294.431 74.6182 295.254C74.6118 296.464 74.303 297.512 73.6919 298.4C73.0873 299.281 72.2124 299.966 71.0674 300.455C69.9288 300.938 68.5554 301.179 66.9473 301.179C65.3519 301.179 63.9625 300.934 62.7789 300.446C61.6017 299.957 60.6818 299.233 60.0192 298.275C59.3631 297.31 59.019 296.116 58.9868 294.695H63.0297C63.0748 295.357 63.2645 295.91 63.599 296.354C63.94 296.792 64.3935 297.123 64.9595 297.348C65.5321 297.567 66.1785 297.676 66.899 297.676C67.6066 297.676 68.2209 297.573 68.742 297.368C69.2695 297.162 69.6779 296.875 69.9674 296.509C70.2569 296.142 70.4016 295.721 70.4016 295.245C70.4016 294.801 70.2697 294.428 70.006 294.125C69.7487 293.823 69.3692 293.566 68.8674 293.354C68.3721 293.141 67.7642 292.948 67.0437 292.775L64.892 292.234C63.2259 291.829 61.9105 291.195 60.9456 290.333C59.9806 289.471 59.5014 288.31 59.5078 286.85C59.5014 285.654 59.8198 284.608 60.4631 283.714C61.1128 282.82 62.0037 282.122 63.1359 281.62C64.268 281.119 65.5546 280.868 66.9955 280.868C68.4621 280.868 69.7423 281.119 70.8358 281.62C71.9358 282.122 72.7913 282.82 73.4025 283.714C74.0136 284.608 74.3288 285.644 74.3481 286.821H70.3437ZM76.6759 284.583V281.138H92.9056V284.583H86.8556V300.899H82.7258V284.583H76.6759ZM95.5784 300.899V281.138H108.662V284.583H99.7564V289.291H107.794V292.736H99.7564V300.899H95.5784ZM129.632 291.018C129.632 293.173 129.224 295.007 128.407 296.518C127.596 298.03 126.49 299.185 125.088 299.982C123.692 300.774 122.122 301.169 120.379 301.169C118.623 301.169 117.047 300.77 115.651 299.973C114.255 299.175 113.152 298.02 112.341 296.509C111.531 294.997 111.125 293.167 111.125 291.018C111.125 288.863 111.531 287.03 112.341 285.518C113.152 284.007 114.255 282.855 115.651 282.064C117.047 281.266 118.623 280.868 120.379 280.868C122.122 280.868 123.692 281.266 125.088 282.064C126.49 282.855 127.596 284.007 128.407 285.518C129.224 287.03 129.632 288.863 129.632 291.018ZM125.396 291.018C125.396 289.623 125.187 288.445 124.769 287.487C124.357 286.528 123.775 285.802 123.023 285.306C122.27 284.811 121.389 284.563 120.379 284.563C119.369 284.563 118.488 284.811 117.735 285.306C116.982 285.802 116.397 286.528 115.979 287.487C115.567 288.445 115.361 289.623 115.361 291.018C115.361 292.414 115.567 293.592 115.979 294.55C116.397 295.508 116.982 296.235 117.735 296.731C118.488 297.226 119.369 297.474 120.379 297.474C121.389 297.474 122.27 297.226 123.023 296.731C123.775 296.235 124.357 295.508 124.769 294.55C125.187 293.592 125.396 292.414 125.396 291.018ZM132.727 300.899V281.138H140.524C142.016 281.138 143.29 281.405 144.345 281.939C145.406 282.466 146.213 283.216 146.766 284.187C147.326 285.152 147.606 286.287 147.606 287.593C147.606 288.905 147.323 290.034 146.757 290.98C146.191 291.919 145.371 292.639 144.296 293.141C143.228 293.643 141.936 293.894 140.417 293.894H135.197V290.536H139.742C140.54 290.536 141.202 290.427 141.73 290.208C142.257 289.989 142.65 289.661 142.907 289.224C143.171 288.786 143.302 288.243 143.302 287.593C143.302 286.937 143.171 286.384 142.907 285.933C142.65 285.483 142.254 285.142 141.72 284.911C141.193 284.673 140.527 284.554 139.723 284.554H136.905V300.899H132.727ZM143.399 291.906L148.31 300.899H143.698L138.893 291.906H143.399ZM150.559 300.899V281.138H163.874V284.583H154.737V289.291H163.189V292.736H154.737V297.454H163.913V300.899H150.559ZM183.725 281.138V300.899H180.116L171.519 288.461H171.374V300.899H167.196V281.138H170.863L179.392 293.566H179.566V281.138H183.725ZM191.355 281.138V300.899H187.177V281.138H191.355ZM211.321 281.138V300.899H207.712L199.115 288.461H198.97V300.899H194.792V281.138H198.459L206.989 293.566H207.162V281.138H211.321ZM227.876 287.525C227.741 287.056 227.551 286.641 227.307 286.281C227.063 285.914 226.763 285.605 226.41 285.354C226.062 285.097 225.663 284.901 225.213 284.766C224.769 284.631 224.277 284.563 223.737 284.563C222.727 284.563 221.839 284.814 221.074 285.316C220.315 285.818 219.723 286.548 219.298 287.506C218.874 288.458 218.661 289.623 218.661 290.999C218.661 292.376 218.87 293.546 219.289 294.511C219.707 295.476 220.299 296.213 221.064 296.721C221.83 297.223 222.733 297.474 223.775 297.474C224.721 297.474 225.528 297.306 226.197 296.972C226.873 296.631 227.387 296.152 227.741 295.534C228.101 294.917 228.282 294.187 228.282 293.344L229.131 293.469H224.036V290.324H232.305V292.813C232.305 294.55 231.939 296.042 231.205 297.29C230.472 298.532 229.462 299.49 228.175 300.166C226.889 300.835 225.416 301.169 223.756 301.169C221.904 301.169 220.276 300.761 218.874 299.944C217.471 299.12 216.378 297.953 215.593 296.441C214.815 294.923 214.426 293.122 214.426 291.038C214.426 289.436 214.657 288.008 215.12 286.754C215.59 285.493 216.246 284.425 217.089 283.55C217.931 282.675 218.912 282.009 220.032 281.553C221.151 281.096 222.363 280.868 223.669 280.868C224.789 280.868 225.831 281.032 226.796 281.36C227.76 281.681 228.616 282.138 229.362 282.73C230.115 283.322 230.729 284.026 231.205 284.843C231.681 285.654 231.987 286.548 232.122 287.525H227.876Z" fill="#F22828"/>
</g>
<defs>
<clipPath id="clip0_97_81">
<rect width="236" height="302.689" fill="white"/>
</clipPath>
</defs>
</svg>
