<svg width="151" height="234" viewBox="0 0 151 234" fill="none" xmlns="http://www.w3.org/2000/svg">
<g clip-path="url(#clip0_111_313)">
<path fill-rule="evenodd" clip-rule="evenodd" d="M121.203 36.5468L150.139 55.8722L136.268 65.136V115.753L119.363 127.123V76.4263L109.522 82.9992V135.584L92.6166 146.954V94.2894L83.1433 100.616V149.682H66.4092V100.225L56.4686 93.5865V146.073L39.5636 134.703V82.2962L30.332 76.1308V128.072L13.4271 116.703V64.8405L-0.000732422 55.8726L28.9351 36.5471L75.0685 67.3585L121.202 36.5471L121.203 36.5468ZM75.0695 0L111.977 24.6498L75.0695 49.2996L38.1615 24.6498L75.0695 0Z" fill="#0B2D74"/>
<path d="M38.8719 173.255H45.7815V211.035C45.7815 214.935 44.8621 218.418 43.0232 221.483C41.2029 224.529 38.6304 226.934 35.3056 228.699C31.9808 230.445 28.0802 231.318 23.6038 231.318C19.1275 231.318 15.2269 230.445 11.9021 228.699C8.57729 226.934 5.99548 224.529 4.15663 221.483C2.33635 218.418 1.42622 214.935 1.42622 211.035V173.255H8.33583V210.477C8.33583 213.264 8.94878 215.743 10.1747 217.916C11.4006 220.071 13.1466 221.771 15.4126 223.015C17.6972 224.241 20.4277 224.854 23.6038 224.854C26.78 224.854 29.5105 224.241 31.7951 223.015C34.0797 221.771 35.8257 220.071 37.033 217.916C38.2589 215.743 38.8719 213.264 38.8719 210.477V173.255Z" fill="#0B2D74"/>
<path d="M55.4161 230.315V173.255H67.4801V198.413H68.2323L88.7661 173.255H103.226L82.0516 198.804L103.477 230.315H89.0448L73.4145 206.855L67.4801 214.099V230.315H55.4161ZM109.509 230.315V173.255H147.289V183.201H121.573V196.797H144.781V206.744H121.573V230.315H109.509Z" fill="#0B2D74"/>
</g>
<defs>
<clipPath id="clip0_111_313">
<rect width="150.314" height="234" fill="white"/>
</clipPath>
</defs>
</svg>
