<svg width="239" height="91" viewBox="0 0 239 91" fill="none" xmlns="http://www.w3.org/2000/svg">
<mask id="mask0_263_315" style="mask-type:luminance" maskUnits="userSpaceOnUse" x="38" y="18" width="189" height="49">
<path d="M226.167 18H38.1172V66.6949H226.167V18Z" fill="white"/>
</mask>
<g mask="url(#mask0_263_315)">
<path fill-rule="evenodd" clip-rule="evenodd" d="M124.6 66.5048C124.261 66.409 114.412 61.8394 108.99 56.5387C106.269 53.8784 104.759 52.0367 104.752 51.9145C104.724 51.4629 105.302 51.8485 112.999 48.7918C114.087 48.3599 114.246 48.3324 114.999 49.2482C116.775 51.4083 118.406 53.3536 123.808 56.6794C124.395 57.0409 124.563 57.0801 126.418 55.619C134.967 48.8865 142.392 34.6714 134.677 29.8349C131.824 28.0464 127.308 29.4933 124.687 33.6063C123.713 35.136 124.167 31.9345 120.32 29.6215C114.625 26.1971 106.291 31.4639 109.569 38.6276C110.056 39.6905 117.453 37.1671 116.482 38.3461C115.851 39.1133 109.054 47.3707 108.539 47.8943C108.197 48.2428 108.068 48.0463 98.0338 43.3705C94.8224 41.8738 94.2379 41.6187 94.7823 41.5169C101.404 40.2783 101.951 40.6302 101.737 40.1046C101.638 39.8613 98.6326 35.5869 100.403 28.9239C102.859 19.684 113.511 12.9331 123.52 23.0047C124.03 23.518 124.184 24.1539 124.905 23.2752C137.74 7.64251 157.033 31.344 146.282 46.8029C139.625 56.3752 127.331 63.9908 124.6 66.5051L124.6 66.5048Z" fill="white"/>
<path fill-rule="evenodd" clip-rule="evenodd" d="M169.062 36.1864C169.253 35.6729 173.549 24.6339 173.655 24.5106C173.914 24.2089 174.006 24.288 187.736 24.2804C187.889 24.2804 189.595 24.2795 189.639 24.4622C189.7 24.7192 177.421 61.948 177.187 62.067C177.028 62.1474 161.294 62.3157 161.017 61.9709C160.873 61.7914 149.457 28.0578 148.808 26.1767C148.762 26.0442 148.264 24.6023 148.457 24.4617C148.556 24.3895 164.16 24.2726 164.269 24.3263C164.595 24.4865 164.627 24.8015 168.374 34.9969C168.713 35.9216 168.502 36.2052 169.062 36.1864Z" fill="white"/>
<path fill-rule="evenodd" clip-rule="evenodd" d="M225.738 24.6791C226.078 27.622 225.751 27.6184 225.95 30.5877C225.986 33.146 226.063 33.127 226.015 33.3422C225.88 33.9465 211.646 33.4532 211.251 33.8374C211.014 34.0685 211.19 38.5797 211.198 38.6051C211.388 39.241 220.588 38.5943 221.031 38.9263C221.34 39.1576 221.301 47.3636 221.256 47.4505C221.057 47.8297 213.498 47.5392 211.812 47.5832C211.047 47.6032 211.309 49.032 211.29 51.7049C211.281 52.9431 211.83 52.6125 213.075 52.6233C225.382 52.7285 225.451 52.6902 225.742 52.9745C226.025 55.4998 225.775 55.4915 225.95 58.0402C225.982 59.9493 225.981 59.9268 226.053 61.8508C225.942 61.9164 225.881 62.0487 225.771 62.114C225.288 62.4003 197.579 62.0503 195.128 62.0191C194.65 62.0129 194.586 61.7892 194.585 61.4176C194.575 58.4762 194.466 25.2146 194.609 24.6513C194.748 24.103 195.005 24.2619 201.673 24.3442C202.425 24.3536 202.408 24.3598 203.152 24.362C225.429 24.4249 225.487 24.4402 225.739 24.6795L225.738 24.6793L225.738 24.6791Z" fill="white"/>
<path fill-rule="evenodd" clip-rule="evenodd" d="M86.3736 62.1474C72.5998 62.1474 72.4444 62.1916 72.3481 61.8691C72.3277 61.801 72.4015 24.6675 72.5084 24.4954C72.6622 24.2469 72.7527 24.2799 85.7402 24.2801C87.1347 24.2801 88.6855 24.0009 88.6896 24.8855C88.7662 40.667 88.5464 52.2403 88.9283 52.5113C89.0422 52.592 89.0624 52.5743 98.1994 52.5727C103.155 52.5721 103.837 52.4354 103.843 52.9767C103.85 53.6983 103.929 61.5227 103.617 61.9958C103.503 62.1698 103.438 62.1476 86.3739 62.1476V62.1478L86.3736 62.1474Z" fill="white"/>
<path fill-rule="evenodd" clip-rule="evenodd" d="M38.6968 48.5557C39.6913 46.8215 39.6209 46.7002 41.3734 45.7532C41.7283 45.5614 43.578 44.5621 46.2477 44.458C53.6847 44.1683 54.5923 49.2581 54.7685 49.546C55.2013 50.253 55.8281 48.3764 60.0303 46.0994C62.5514 44.7331 67.4652 43.0576 67.5759 43.0964C68.0497 43.2623 67.8757 47.4193 67.8425 47.5044C67.6806 47.9186 56.6786 52.9926 56.0179 53.4566C55.6775 53.6954 55.7394 56.8688 55.7893 56.9667C56.0067 57.3924 66.5741 57.0244 67.3764 57.1359C67.669 57.1764 67.9012 57.2395 67.9576 60.781C67.9665 61.3445 65.8781 61.1489 65.468 61.1482C38.7209 61.0923 38.7021 61.1292 38.4461 60.9802C37.9138 60.6698 38.207 60.5126 38.1302 60.3629C38.1469 60.265 38.3209 60.2473 38.3376 60.1494C38.4009 59.7792 38.4362 54.9054 38.4394 54.4494C38.8598 51.3373 38.3516 51.0828 38.6968 48.5559H38.6973L38.6968 48.5557ZM46.2395 48.6501C42.7514 49.4341 43.3068 50.4671 43.3224 54.0267C43.3288 55.541 43.0758 56.9729 43.9285 56.9891C50.1957 57.1074 50.206 57.2294 50.697 57.0013C50.9306 56.8929 51.0631 50.6716 50.6166 50.065C49.3842 48.3922 46.6063 48.6199 46.2395 48.6501Z" fill="white"/>
<path fill-rule="evenodd" clip-rule="evenodd" d="M38.4394 33.9652C38.4247 25.7589 38.3321 25.4684 38.8502 25.4375C42.8733 25.1963 42.9843 25.4052 43.0276 25.7373C43.1365 26.5702 42.8646 36.1388 43.2733 36.3227C43.41 36.3841 49.588 36.5033 49.7929 36.2447C50.1223 35.8289 49.6927 26.3086 50.2488 26.1165C50.3607 26.078 54.5482 26.0317 54.6956 26.1546C55.1896 26.5658 54.5049 35.8972 55.1458 36.2163C55.2387 36.2626 62.7731 36.2803 62.8976 36.2085C63.4741 35.8763 62.6619 25.5351 63.1626 25.1264C63.1908 25.1033 67.7035 24.7273 67.8681 25.2818C67.9919 25.6986 67.9938 38.7102 67.9938 39.8779C67.994 40.5606 67.6025 40.4224 59.9766 40.4061C58.2873 40.4024 39.2585 40.3621 38.8614 40.2901C38.8229 40.2832 38.5084 40.2259 38.4103 40.095C38.3663 40.0363 38.4861 39.9362 38.4424 39.8777C38.4481 39.7965 38.5632 39.75 38.5689 39.6689C38.7324 37.3572 38.4784 34.42 38.4392 33.9652L38.4394 33.9654V33.9652Z" fill="white"/>
</g>
</svg>
