<svg width="188" height="91" viewBox="0 0 188 91" fill="none" xmlns="http://www.w3.org/2000/svg">
<mask id="mask0_263_334" style="mask-type:luminance" maskUnits="userSpaceOnUse" x="0" y="7" width="186" height="64">
<path d="M185.082 7H0V70.7059H185.082V7Z" fill="white"/>
</mask>
<g mask="url(#mask0_263_334)">
<path d="M21.7922 7.91406C22.025 8.84821 22.1912 9.69055 22.4486 10.5031C22.9962 12.2102 24.1012 13.5851 25.2137 14.9456C26.3237 16.3033 27.6441 17.5198 28.5807 18.9865C32.027 24.3802 29.0144 31.4413 22.7609 32.8238C17.8232 33.9163 12.5063 30.4824 11.52 25.5372C11.1383 23.6345 11.5696 21.8109 12.2632 20.0518C13.9082 15.8944 16.6015 12.4877 19.9016 9.52684C20.2064 9.25438 20.5137 8.98444 20.8232 8.71679C21.1156 8.46906 21.4153 8.22613 21.7919 7.91406" fill="white"/>
<path d="M46.1325 58.3898H50.2006L48.1887 53.7172L46.1322 58.3898H46.1325ZM46.9377 48.5762H49.5069L56.3699 64.2245H52.75L51.4741 61.3184H44.9259L43.6499 64.2245H40.0747L46.9377 48.5762Z" fill="white"/>
<path d="M57.2854 52.6009H60.5261V53.0692C60.66 52.8908 60.9027 52.7324 61.2521 52.5886C61.604 52.4473 61.9582 52.3779 62.3149 52.3779C62.8971 52.3779 63.3505 52.4549 63.6774 52.6108C64.0069 52.7692 64.3116 53.0245 64.5942 53.3837L62.9416 55.9753C62.7756 55.663 62.4264 55.5071 61.8909 55.5071C61.2047 55.5071 60.7486 55.9085 60.5258 56.7137V64.2258H57.2852V52.6007L57.2854 52.6009Z" fill="white"/>
<path d="M64.4829 52.6011H66.6953V49.8955H69.936V52.6011H73.4912V55.6188H69.936V59.397C69.936 60.0958 70.0276 60.5963 70.2059 60.8935C70.3843 61.1932 70.689 61.3418 71.1227 61.3418C71.8064 61.3418 72.4706 61.089 73.1121 60.5812L74.4524 62.8829C73.5135 63.8665 72.2993 64.3595 70.8081 64.3595C69.5571 64.3595 68.5586 64.0201 67.8129 63.3413C67.0697 62.6624 66.6956 61.6687 66.6956 60.3582V55.6185H64.4831V52.6009L64.4829 52.6011Z" fill="white"/>
<path d="M96.693 64.2245H93.8761L90.5461 54.7477L87.3055 64.2245H84.4886L79.6152 48.5762H83.1929L86.0522 58.0108L89.1838 48.5762H91.9538L95.1523 57.9437L97.8776 48.5762H101.322L96.6934 64.2245H96.693Z" fill="white"/>
<path d="M104.705 60.5361C105.25 61.1034 105.953 61.386 106.818 61.386C107.71 61.386 108.431 61.1183 108.974 60.5807C109.519 60.0456 109.791 59.3146 109.791 58.3905C109.791 57.4664 109.506 56.7331 108.941 56.1879C108.374 55.6455 107.665 55.3726 106.818 55.3726C105.968 55.3726 105.267 55.6403 104.715 56.1779C104.164 56.7129 103.89 57.4513 103.89 58.3903C103.89 59.2548 104.16 59.9685 104.705 60.5358M102.292 54.0543C103.461 52.9196 104.97 52.3545 106.818 52.3545C108.664 52.3545 110.18 52.9193 111.367 54.0543C112.551 55.1865 113.144 56.631 113.144 58.39C113.144 60.1342 112.552 61.5714 111.367 62.7034C110.18 63.8356 108.664 64.4032 106.818 64.4032C105.014 64.4032 103.515 63.8358 102.324 62.7034C101.132 61.5712 100.535 60.1342 100.535 58.39C100.535 56.631 101.12 55.1865 102.292 54.0543Z" fill="white"/>
<path d="M114.595 52.6009H117.836V53.0692C117.97 52.8908 118.213 52.7324 118.562 52.5886C118.914 52.4473 119.268 52.3779 119.625 52.3779C120.207 52.3779 120.661 52.4549 120.987 52.6108C121.317 52.7692 121.622 53.0245 121.904 53.3837L120.252 55.9753C120.086 55.663 119.736 55.5071 119.201 55.5071C118.515 55.5071 118.059 55.9085 117.836 56.7137V64.2258H114.595V52.6007L114.595 52.6009Z" fill="white"/>
<path d="M122.687 47.9053H125.927V56.5347L129.594 52.6003H133.751L128.767 57.6744L133.908 64.2226H129.795L126.331 59.8424L125.927 60.1101V64.2229H122.687V47.9055V47.9053Z" fill="white"/>
<path d="M140.289 60.2233C139.836 60.0596 139.288 59.8888 138.646 59.7082C138.005 59.5298 137.36 59.3068 136.711 59.0391C136.065 58.7715 135.512 58.3726 135.059 57.8424C134.603 57.3146 134.377 56.6829 134.377 55.9544C134.377 54.8371 134.821 53.9574 135.705 53.3159C136.592 52.6766 137.819 52.3545 139.385 52.3545C140.443 52.3545 141.414 52.5601 142.301 52.969C143.188 53.3802 143.824 53.8759 144.211 54.4554L141.999 56.5788C141.226 55.776 140.138 55.3722 138.735 55.3722C138.064 55.3722 137.73 55.5578 137.73 55.9322C137.73 56.1105 137.958 56.2715 138.411 56.4128C138.867 56.554 139.415 56.71 140.054 56.881C140.696 57.052 141.34 57.2723 141.989 57.5399C142.635 57.8099 143.188 58.2188 143.642 58.7713C144.097 59.3214 144.325 59.9779 144.325 60.7385C144.325 61.9451 143.859 62.8568 142.928 63.4763C141.996 64.0934 140.822 64.4029 139.407 64.4029C138.064 64.4029 136.915 64.1403 135.953 63.6101C134.992 63.0798 134.289 62.406 133.84 61.5858L136.411 59.8442C136.738 60.2753 137.207 60.6396 137.819 60.9393C138.431 61.2364 139.077 61.3853 139.764 61.3853C140.569 61.3853 140.97 61.1772 140.97 60.7609C140.97 60.5651 140.745 60.3868 140.289 60.2233Z" fill="white"/>
<path d="M145.664 47.9053H148.905V53.3362C149.621 52.6969 150.649 52.3748 151.989 52.3748C153.555 52.3748 154.715 52.8036 155.466 53.6608C156.219 54.518 156.595 55.8709 156.595 57.7191V64.2226H153.355V57.875C153.355 56.9656 153.184 56.3241 152.839 55.9525C152.497 55.5806 151.93 55.3924 151.14 55.3924C150.203 55.3924 149.457 55.8558 148.905 56.7799V64.2226H145.664V47.9053Z" fill="white"/>
<path d="M162.103 60.5361C162.648 61.1034 163.352 61.386 164.217 61.386C165.108 61.386 165.83 61.1183 166.372 60.5807C166.917 60.0456 167.19 59.3146 167.19 58.3905C167.19 57.4664 166.905 56.7331 166.34 56.1879C165.772 55.6455 165.064 55.3726 164.216 55.3726C163.367 55.3726 162.665 55.6403 162.113 56.1779C161.563 56.7129 161.288 57.4513 161.288 58.3903C161.288 59.2548 161.558 59.9685 162.103 60.5358M159.69 54.0543C160.86 52.9196 162.369 52.3545 164.217 52.3545C166.063 52.3545 167.579 52.9193 168.766 54.0543C169.95 55.1865 170.542 56.631 170.542 58.39C170.542 60.1342 169.95 61.5714 168.766 62.7034C167.579 63.8356 166.063 64.4032 164.217 64.4032C162.413 64.4032 160.914 63.8358 159.722 62.7034C158.531 61.5712 157.934 60.1342 157.934 58.39C157.934 56.631 158.518 55.1865 159.69 54.0543Z" fill="white"/>
<path d="M175.236 56.691C175.712 55.8114 176.457 55.3729 177.471 55.3729C178.335 55.3729 179.007 55.638 179.483 56.1658C179.961 56.696 180.199 57.4665 180.199 58.4799C180.199 59.3742 179.939 60.0803 179.416 60.6032C178.895 61.1261 178.187 61.3862 177.292 61.3862C176.846 61.3862 176.44 61.2921 176.073 61.1065C175.709 60.9208 175.429 60.6854 175.236 60.4029V56.6915V56.691ZM175.627 64.0891C176.071 64.2972 176.77 64.4039 177.738 64.4039C179.483 64.4039 180.887 63.8217 181.953 62.6597C183.018 61.4978 183.551 60.0212 183.551 58.2346C183.551 56.4904 183.033 55.0732 181.997 53.9856C180.962 52.8979 179.572 52.3555 177.83 52.3555C176.71 52.3555 175.845 52.638 175.236 53.2054V52.6009H171.995L172.002 70.6799H175.627V64.0891Z" fill="white"/>
<path d="M40.0747 14.0107H60.8616V19.6969H46.1547V25.7H59.883V31.3861H46.1547V41.4648H40.0747V14.0107Z" fill="white"/>
<path d="M73.6702 36.1316C74.4679 35.6881 75.0352 35.1379 75.3773 34.484V33.5426C74.4605 33.2032 73.4275 33.0322 72.2779 33.0322C69.6369 33.0322 68.3162 33.7012 68.3162 35.0342C68.3162 35.5819 68.5589 36.0153 69.0423 36.3276C69.5254 36.6424 70.1992 36.7983 71.0614 36.7983C72.0029 36.7983 72.8725 36.5779 73.6702 36.1318M63.7277 23.7761C65.7418 21.6851 68.735 20.6396 72.7088 20.6396C75.3498 20.6396 77.4038 21.378 78.8682 22.8546C80.3326 24.3337 81.0632 26.4174 81.0632 29.1104V41.4661H75.3771V39.623C74.9063 40.1732 74.1679 40.6561 73.1596 41.0748C72.1538 41.4936 71.0612 41.7017 69.8841 41.7017C67.6369 41.7017 65.8334 41.0945 64.4732 39.8781C63.1129 38.6616 62.4341 37.0461 62.4341 35.0345C62.4341 32.8122 63.316 31.1371 65.0801 30.0125C66.8443 28.8901 69.0491 28.3278 71.6904 28.3278C73.2065 28.3278 74.4356 28.4963 75.3771 28.8382C75.4018 27.8172 75.1417 27.0791 74.5915 26.6207C74.0438 26.1623 73.2065 25.9345 72.0817 25.9345C70.9841 25.9345 70.0352 26.071 69.2376 26.3457C68.4399 26.6207 67.5057 27.1386 66.4328 27.8967L63.7272 23.7764V23.7761H63.7277Z" fill="white"/>
<path d="M95.4223 41.4649H91.1088L81.7334 21.0693H88.1257L93.3436 32.8355L98.3237 21.0693H104.364L95.4223 41.4649Z" fill="white"/>
<path d="M110.662 34.9934C111.616 35.9871 112.852 36.4851 114.368 36.4851C115.937 36.4851 117.198 36.0143 118.154 35.0729C119.108 34.1314 119.583 32.8506 119.583 31.2277C119.583 29.6074 119.088 28.3191 118.094 27.3652C117.101 26.4114 115.86 25.9331 114.368 25.9331C112.876 25.9331 111.648 26.4038 110.681 27.3453C109.713 28.2868 109.23 29.5802 109.23 31.2277C109.23 32.7439 109.708 34.0002 110.662 34.9939M106.425 23.6192C108.479 21.6323 111.125 20.6387 114.368 20.6387C117.611 20.6387 120.272 21.6323 122.351 23.6192C124.429 25.6061 125.467 28.1432 125.467 31.228C125.467 34.2878 124.429 36.8125 122.351 38.7996C120.272 40.7865 117.611 41.7802 114.368 41.7802C111.204 41.7802 108.575 40.7865 106.484 38.7996C104.393 36.8127 103.345 34.288 103.345 31.228C103.345 28.1432 104.374 25.6064 106.425 23.6192Z" fill="white"/>
<path d="M128.02 21.0695H133.709V21.8921C133.944 21.5798 134.368 21.2975 134.982 21.0496C135.597 20.8018 136.219 20.6777 136.845 20.6777C137.866 20.6777 138.664 20.8142 139.238 21.0889C139.813 21.3639 140.348 21.815 140.846 22.4419L137.943 26.9931C137.655 26.4429 137.041 26.1681 136.099 26.1681C134.898 26.1681 134.1 26.8742 133.709 28.2865V41.4646H128.02V21.069V21.0695Z" fill="white"/>
<path d="M142.573 21.0692H148.26V41.4647H142.573V21.0692ZM143.124 13.6363C143.723 13.1012 144.496 12.8311 145.438 12.8311C146.352 12.8311 147.11 13.101 147.712 13.6363C148.314 14.1714 148.614 14.8454 148.614 15.6555C148.614 16.4928 148.314 17.1867 147.712 17.7342C147.11 18.2844 146.352 18.5591 145.438 18.5591C144.444 18.5591 143.659 18.2892 143.084 17.7539C142.509 17.2188 142.222 16.52 142.222 15.6555C142.222 14.8454 142.521 14.1714 143.124 13.6363Z" fill="white"/>
<path d="M150.575 21.0702H154.458V16.3232H160.146V21.0702H166.382V26.3646H160.146V32.9948C160.146 34.2238 160.302 35.0982 160.617 35.6209C160.929 36.1439 161.467 36.4065 162.225 36.4065C163.427 36.4065 164.591 35.9605 165.716 35.0735L168.067 39.1121C166.422 40.8391 164.289 41.7012 161.675 41.7012C159.48 41.7012 157.726 41.1065 156.42 39.9173C155.112 38.7281 154.458 36.9814 154.458 34.6799V26.3651H150.575V21.0702Z" fill="white"/>
<path d="M167.49 21.0702H171.372V16.3232H177.061V21.0702H183.297V26.3646H177.061V32.9948C177.061 34.2238 177.217 35.0982 177.532 35.6209C177.844 36.1439 178.381 36.4065 179.139 36.4065C180.341 36.4065 181.505 35.9605 182.63 35.0735L184.982 39.1121C183.337 40.8391 181.203 41.7012 178.589 41.7012C176.394 41.7012 174.64 41.1065 173.334 39.9173C172.026 38.7281 171.372 36.9814 171.372 34.6799V26.3651H167.49V21.0702Z" fill="white"/>
<path d="M0 17.3572L2.73536 19.7604L0 22.7185L2.73536 25.1217L0 27.8941L2.73536 30.1141L0 32.3315L2.73536 34.5515L0 38.248L2.73536 40.6512L0 43.6093L2.73536 46.0124L0 48.7874L2.73536 51.0049L0 53.2248V64.3888H9.06787V6.99805L0 17.3568V17.3575V17.3572Z" fill="white"/>
<path fill-rule="evenodd" clip-rule="evenodd" d="M16.5148 39.4423L16.5127 39.2637L16.5148 39.2639V39.4423ZM24.8003 42.1419C24.8005 46.7788 24.801 56.3201 24.8028 64.3888H16.5551C16.5441 56.2899 16.5328 46.5924 16.5228 41.9665C18.4188 42.9471 20.6257 43.3245 22.7607 42.8519C23.4884 42.6909 24.1668 42.446 24.8005 42.1417H24.8003V42.1419Z" fill="white"/>
<path fill-rule="evenodd" clip-rule="evenodd" d="M24.8015 34.2202V40.046C24.1673 40.3508 23.4884 40.5962 22.7601 40.7572C20.6221 41.2304 18.412 40.8513 16.5142 39.8677V34.0361C18.4127 35.0165 20.6224 35.3925 22.7613 34.919C23.4866 34.7587 24.1685 34.5217 24.8017 34.2202H24.8015Z" fill="white"/>
</g>
</svg>
